<svg width="519" height="466" viewBox="0 0 519 466" fill="none" xmlns="http://www.w3.org/2000/svg">
<path d="M49.3719 135.691L46.4209 134.034C49.5494 128.479 54.5044 118.526 54.5044 115.491H57.8866C57.8866 120.404 50.2428 134.135 49.3719 135.691V135.691Z" fill="url(#paint0_linear_383_1548)"/>
<path d="M60.7864 161.827L57.8354 160.17C60.964 154.615 65.9189 144.663 65.9189 141.627H69.3011C69.3011 146.54 61.6573 160.271 60.7864 161.827V161.827Z" fill="url(#paint1_linear_383_1548)"/>
<path d="M70.7981 188.268L67.8472 186.61C70.9757 181.055 75.9306 171.103 75.9306 168.067H79.3129C79.3129 172.98 71.6691 186.712 70.7981 188.268V188.268Z" fill="url(#paint2_linear_383_1548)"/>
<path d="M78.535 216.78L75.584 215.122C78.7125 209.567 83.6675 199.615 83.6675 196.579H87.0497C87.0497 201.492 79.4059 215.224 78.535 216.78V216.78Z" fill="url(#paint3_linear_383_1548)"/>
<path d="M91.2771 280.788L88.3262 279.131C91.4547 273.575 96.4096 263.623 96.4096 260.588H99.7919C99.7919 265.5 92.1481 279.232 91.2771 280.788V280.788Z" fill="url(#paint4_linear_383_1548)"/>
<path d="M85.3416 247.465L82.3906 245.807C85.5192 240.252 90.4741 230.3 90.4741 227.265H93.8563C93.8563 232.177 86.2125 245.909 85.3416 247.465V247.465Z" fill="url(#paint5_linear_383_1548)"/>
<path d="M45.9557 136.368C44.29 135.75 29.5689 130.237 26.3896 126.492L28.9686 124.302C30.9303 126.618 41.153 130.99 47.131 133.197L45.9557 136.368Z" fill="url(#paint6_linear_383_1548)"/>
<path d="M57.4385 163.501C55.7897 162.842 41.2039 156.965 38.1177 153.143L40.7473 151.021C42.6583 153.38 52.7627 157.997 58.69 160.356L57.4385 163.501Z" fill="url(#paint7_linear_383_1548)"/>
<path d="M67.0605 189.79C65.4793 188.978 51.5446 181.698 48.8389 177.597L51.663 175.737C53.3288 178.273 62.9427 183.854 68.6079 186.78L67.0605 189.781V189.79Z" fill="url(#paint8_linear_383_1548)"/>
<path d="M75.533 218.141C74.011 217.219 60.5921 209.034 58.1738 204.756L61.1164 203.09C62.613 205.737 71.8295 211.952 77.2833 215.249L75.533 218.141V218.141Z" fill="url(#paint9_linear_383_1548)"/>
<path d="M86.5086 281.946C85.0881 280.881 72.5401 271.402 70.5615 266.904L73.6562 265.534C74.8823 268.316 83.4308 275.41 88.538 279.232L86.5086 281.938V281.946Z" fill="url(#paint10_linear_383_1548)"/>
<path d="M80.911 248.277C79.4904 247.211 66.9425 237.732 64.9639 233.234L68.0586 231.864C69.2846 234.638 77.8332 241.74 82.9403 245.562L80.911 248.268V248.277Z" fill="url(#paint11_linear_383_1548)"/>
<path d="M55.1129 120.903C55.1129 120.903 34.4815 101.768 55.781 80.1046C55.781 80.1046 77.1565 102.74 55.1129 120.903Z" fill="url(#paint12_radial_383_1548)"/>
<path d="M36.5871 130.584C36.5871 130.584 10.4595 141.035 0 112.506C0 112.506 29.6113 102.884 36.5871 130.584Z" fill="url(#paint13_radial_383_1548)"/>
<path d="M42.1251 154.564C42.1251 154.564 15.9976 165.015 5.53809 136.486C5.53809 136.486 35.1493 126.864 42.1251 154.564Z" fill="url(#paint14_radial_383_1548)"/>
<path d="M51.1139 178.544C51.1139 178.544 24.9863 188.995 14.5269 160.466C14.5269 160.466 44.1381 150.844 51.1139 178.544Z" fill="url(#paint15_radial_383_1548)"/>
<path d="M61.6575 205.855C61.6575 205.855 33.7966 217.6 21.9927 187.152C21.9927 187.152 53.6163 176.227 61.6575 205.855Z" fill="url(#paint16_radial_383_1548)"/>
<path d="M68.3968 235.5C68.3968 235.5 39.1829 247.186 27.4805 215.283C27.4805 215.283 60.5923 204.519 68.3968 235.5Z" fill="url(#paint17_radial_383_1548)"/>
<path d="M77.1399 272.172C77.1399 272.172 44.1296 285.379 30.9136 249.334C30.9136 249.334 68.3292 237.174 77.1399 272.172Z" fill="url(#paint18_radial_383_1548)"/>
<path d="M93.4251 316.995C92.0046 315.929 79.4566 306.451 77.478 301.952L80.5728 300.582C81.7988 303.364 90.3473 310.459 95.4545 314.28L93.4251 316.986V316.995Z" fill="url(#paint19_linear_383_1548)"/>
<path d="M84.0565 307.22C84.0565 307.22 51.0461 320.428 37.8301 284.382C37.8301 284.382 75.2458 272.223 84.0565 307.22Z" fill="url(#paint20_radial_383_1548)"/>
<path d="M66.5448 144.891C66.5448 144.891 50.7499 121.604 76.3701 105.285C76.3701 105.285 92.1058 132.148 66.5448 144.891Z" fill="url(#paint21_radial_383_1548)"/>
<path d="M76.3025 172.997C76.3025 172.997 61.3193 149.178 87.4976 133.755C87.4976 133.755 102.295 161.151 76.3025 172.997Z" fill="url(#paint22_radial_383_1548)"/>
<path d="M83.3965 202.887C83.3965 202.887 71.2291 174.561 102.185 162.309C102.185 162.309 113.549 194.474 83.3965 202.887Z" fill="url(#paint23_radial_383_1548)"/>
<path d="M90.0595 230.545C90.0595 230.545 81.6801 201.932 112.83 193.781C112.83 193.781 119.984 225.988 90.0595 230.545Z" fill="url(#paint24_radial_383_1548)"/>
<path d="M95.3696 267.386C95.3696 267.386 85.1384 236.38 118.918 226.309C118.918 226.309 127.949 261.29 95.3696 267.386Z" fill="url(#paint25_radial_383_1548)"/>
<path d="M94.9637 314.297L92.0127 312.64C95.1412 307.085 100.096 297.132 100.096 294.097H103.478C103.478 299.01 95.8346 312.741 94.9637 314.297V314.297Z" fill="url(#paint26_linear_383_1548)"/>
<path d="M99.0649 300.895C99.0649 300.895 88.8337 269.889 122.614 259.818C122.614 259.818 131.644 294.799 99.0649 300.895Z" fill="url(#paint27_radial_383_1548)"/>
<path d="M92.5711 461.829L89.2058 461.516C101.06 333.136 83.6167 242.586 66.8917 189.232C48.8138 131.548 27.7426 103.882 27.5312 103.611L30.2116 101.539C30.423 101.818 51.8662 129.958 70.1217 188.217C80.8264 222.369 88.3856 260.089 92.588 300.312C97.8389 350.563 97.8305 404.907 92.5711 461.829V461.829Z" fill="url(#paint28_linear_383_1548)"/>
<path d="M35.8852 114.02C35.8852 114.02 8.43018 107.856 15.9387 78.422C15.9387 78.422 45.8036 87.2326 35.8852 114.02Z" fill="url(#paint29_radial_383_1548)"/>
<path d="M406.88 463.368C419.335 423.957 417.441 394.464 413.593 375.092C406.33 338.514 388.252 318.517 391.043 281.059C392.844 256.952 397.283 238.84 397.283 238.84C401.781 220.475 404.529 219.359 404.96 209.094C405.814 188.826 395.465 185.274 395.363 164C395.329 157.185 395.245 137.628 408.038 129.806C414.921 125.595 423.816 125.832 430.386 128.496C445.707 134.693 449.893 154.665 452.455 166.875C456.733 187.287 454.028 204.172 451.973 214.852C442.545 263.894 430.69 266.693 427.503 293.048C421.846 339.96 456.522 354.951 452.929 402.911C450.882 430.231 437.666 451.632 427.021 465.279L406.871 463.36L406.88 463.368Z" fill="url(#paint30_linear_383_1548)"/>
<path d="M402.61 19.859C402.559 18.9374 402.339 18.1595 401.959 17.5422C401.232 15.5974 400.217 14.3799 398.932 14.1093C398.543 14.0248 398.137 14.0416 397.731 14.1346C392.7 13.1876 382.799 15.7242 372.373 21.0089C358.743 27.9171 349.391 36.88 351.496 41.0401C352.908 43.8305 359.132 43.7374 367.19 41.2853C359.072 52.2267 355.327 62.2043 358.709 65.1891C362.311 68.3683 372.804 62.5256 383.34 51.8801C382.858 60.9782 384.38 67.6074 387.593 68.2838C392.15 69.2393 398.382 57.8835 401.519 42.9257C403.455 33.6669 403.751 25.2029 402.61 19.8675V19.859Z" fill="url(#paint31_radial_383_1548)"/>
<path d="M403.117 465.076C396.057 410.648 396.277 356.896 403.768 305.292C408.715 271.233 417.83 230.723 426.641 191.54C443.315 117.427 460.556 40.7864 446.452 17.4069C444.524 14.2191 439.417 5.74673 430.555 3.79351C419.149 1.27376 407.844 10.7186 402.12 16.5698L399.701 14.2023C405.916 7.85221 418.286 -2.37059 431.283 0.495832C441.565 2.76191 447.221 12.1391 449.352 15.6651C464.158 40.2115 447.543 114.079 429.947 192.293C421.144 231.408 412.046 271.859 407.125 305.782C399.676 357.082 399.464 410.53 406.483 464.645L403.126 465.076H403.117Z" fill="url(#paint32_linear_383_1548)"/>
<path d="M477.636 190.314C476.444 188.2 470.508 177.428 470.508 173.352H473.89C473.89 175.821 477.999 184.048 480.587 188.657L477.636 190.314Z" fill="url(#paint33_linear_383_1548)"/>
<path d="M468.131 212.078C466.939 209.965 461.003 199.192 461.003 195.117H464.386C464.386 197.594 468.495 205.813 471.082 210.421L468.131 212.078Z" fill="url(#paint34_linear_383_1548)"/>
<path d="M459.795 234.105C458.602 231.991 452.667 221.219 452.667 217.143H456.049C456.049 219.612 460.158 227.84 462.746 232.448L459.795 234.105Z" fill="url(#paint35_linear_383_1548)"/>
<path d="M453.343 257.848C452.151 255.734 446.215 244.962 446.215 240.886H449.597C449.597 243.364 453.706 251.583 456.294 256.191L453.343 257.848Z" fill="url(#paint36_linear_383_1548)"/>
<path d="M442.731 311.16C441.539 309.046 435.603 298.274 435.603 294.199H438.985C438.985 296.676 443.095 304.895 445.682 309.503L442.731 311.16Z" fill="url(#paint37_linear_383_1548)"/>
<path d="M447.678 283.409C446.486 281.295 440.55 270.523 440.55 266.448H443.932C443.932 268.925 448.041 277.144 450.629 281.752L447.678 283.409Z" fill="url(#paint38_linear_383_1548)"/>
<path d="M480.823 191.007L479.648 187.836C484.603 186.002 493.058 182.4 494.657 180.514L497.235 182.704C494.597 185.807 483.098 190.17 480.823 191.016V191.007Z" fill="url(#paint39_linear_383_1548)"/>
<path d="M471.26 213.6L470.009 210.455C474.913 208.502 483.284 204.688 484.84 202.761L487.469 204.883C484.907 208.054 473.518 212.696 471.26 213.592V213.6Z" fill="url(#paint40_linear_383_1548)"/>
<path d="M463.278 235.483L461.731 232.482C466.424 230.055 474.38 225.447 475.733 223.375L478.557 225.235C476.317 228.643 465.434 234.376 463.278 235.483Z" fill="url(#paint41_linear_383_1548)"/>
<path d="M456.235 259.083L454.484 256.191C459.008 253.46 466.627 248.319 467.844 246.171L470.787 247.837C468.783 251.388 458.306 257.831 456.226 259.091L456.235 259.083Z" fill="url(#paint42_linear_383_1548)"/>
<path d="M447.12 312.217L445.09 309.512C449.318 306.341 456.395 300.481 457.393 298.215L460.488 299.585C458.839 303.314 449.056 310.763 447.12 312.226V312.217Z" fill="url(#paint43_linear_383_1548)"/>
<path d="M451.779 284.17L449.75 281.464C453.977 278.294 461.054 272.434 462.052 270.168L465.147 271.538C463.498 275.267 453.724 282.716 451.779 284.179V284.17Z" fill="url(#paint44_linear_383_1548)"/>
<path d="M473.103 177.859C473.103 177.859 490.285 161.92 472.545 143.876C472.545 143.876 454.738 162.732 473.103 177.859Z" fill="url(#paint45_radial_383_1548)"/>
<path d="M488.526 185.926C488.526 185.926 510.282 194.626 519 170.875C519 170.875 494.335 162.859 488.526 185.926Z" fill="url(#paint46_radial_383_1548)"/>
<path d="M483.918 205.897C483.918 205.897 505.674 214.598 514.392 190.847C514.392 190.847 489.727 182.831 483.918 205.897Z" fill="url(#paint47_radial_383_1548)"/>
<path d="M476.427 225.869C476.427 225.869 498.183 234.57 506.9 210.819C506.9 210.819 482.236 202.803 476.427 225.869Z" fill="url(#paint48_radial_383_1548)"/>
<path d="M467.641 248.615C467.641 248.615 490.843 258.398 500.677 233.04C500.677 233.04 474.338 223.942 467.641 248.615Z" fill="url(#paint49_radial_383_1548)"/>
<path d="M462.035 273.305C462.035 273.305 486.37 283.037 496.111 256.47C496.111 256.47 468.529 247.507 462.035 273.305Z" fill="url(#paint50_radial_383_1548)"/>
<path d="M454.747 303.846C454.747 303.846 482.235 314.847 493.244 284.821C493.244 284.821 462.086 274.692 454.747 303.846Z" fill="url(#paint51_radial_383_1548)"/>
<path d="M441.353 341.406L439.324 338.7C443.551 335.529 450.629 329.669 451.626 327.403L454.721 328.773C453.072 332.502 443.289 339.951 441.353 341.414V341.406Z" fill="url(#paint52_linear_383_1548)"/>
<path d="M448.988 333.035C448.988 333.035 476.477 344.035 487.486 314.01C487.486 314.01 456.328 303.88 448.988 333.035Z" fill="url(#paint53_radial_383_1548)"/>
<path d="M463.574 197.839C463.574 197.839 476.731 178.451 455.389 164.854C455.389 164.854 442.283 187.228 463.574 197.839Z" fill="url(#paint54_radial_383_1548)"/>
<path d="M455.448 221.244C455.448 221.244 467.929 201.408 446.122 188.564C446.122 188.564 433.794 211.377 455.448 221.244Z" fill="url(#paint55_radial_383_1548)"/>
<path d="M449.547 246.137C449.547 246.137 459.685 222.546 433.896 212.341C433.896 212.341 424.434 239.136 449.547 246.137Z" fill="url(#paint56_radial_383_1548)"/>
<path d="M443.991 269.179C443.991 269.179 450.967 245.351 425.025 238.561C425.025 238.561 419.064 265.382 443.991 269.179Z" fill="url(#paint57_radial_383_1548)"/>
<path d="M439.569 299.864C439.569 299.864 448.092 274.041 419.952 265.653C419.952 265.653 412.435 294.782 439.569 299.864Z" fill="url(#paint58_radial_383_1548)"/>
<path d="M439.662 339.072C438.469 336.958 432.534 326.186 432.534 322.11H435.916C435.916 324.588 440.025 332.806 442.613 337.415L439.662 339.072V339.072Z" fill="url(#paint59_linear_383_1548)"/>
<path d="M436.491 327.775C436.491 327.775 445.014 301.952 416.874 293.564C416.874 293.564 409.357 322.694 436.491 327.775Z" fill="url(#paint60_radial_383_1548)"/>
<path d="M441.615 461.829C431.688 354.393 446.316 278.547 460.327 233.843C475.547 185.274 492.881 162.512 493.616 161.565L496.297 163.628C496.119 163.857 478.532 186.999 463.489 235.069C449.605 279.452 435.13 354.765 444.989 461.516L441.623 461.829H441.615Z" fill="url(#paint61_linear_383_1548)"/>
<path d="M489.118 172.135C489.118 172.135 511.982 167.002 505.725 142.481C505.725 142.481 480.857 149.82 489.118 172.135Z" fill="url(#paint62_radial_383_1548)"/>
<path d="M101.839 273.482C99.6485 263.158 110.277 251.709 117.515 246.535C130.274 237.42 144.074 239.576 147.803 240.218C164.139 243.042 179.655 255.853 182.716 272.679C183.561 277.338 184.846 284.424 181.016 289.869C168.155 308.142 106.498 295.416 101.847 273.482H101.839Z" fill="#E4392A"/>
<path d="M169.212 301.157C167.022 290.833 177.651 279.384 184.889 274.21C197.648 265.095 211.447 267.251 215.176 267.893C231.512 270.717 247.028 283.528 250.089 300.354C250.935 305.013 252.22 312.099 248.39 317.544C235.529 335.817 173.871 323.091 169.221 301.157H169.212Z" fill="#E4392A"/>
<path d="M31.3785 269.83C29.1886 259.505 39.8172 248.057 47.0551 242.882C59.8145 233.767 73.6139 235.923 77.3428 236.566C93.6789 239.39 109.195 252.2 112.256 269.026C113.101 273.685 114.386 280.771 110.556 286.216C97.6952 304.489 36.0375 291.763 31.387 269.83H31.3785Z" fill="#E4392A"/>
<path d="M85.4176 360.16C83.2784 358.232 71.6943 347.527 66.1559 329.221C63.5939 320.766 58.3684 303.483 66.5787 288.55C79.6002 264.875 116.221 265.695 123.341 265.847C139.584 266.211 151.726 271.352 163.589 276.408C183.147 284.745 191.357 293.514 193.555 295.949C197.817 300.692 202.391 305.774 204.252 312.446C209.722 332.088 189.615 358.139 167.555 369.664C141.393 383.337 106.852 379.506 85.4176 360.143V360.16Z" fill="url(#paint63_radial_383_1548)"/>
<path d="M124.787 376.775C158.575 357.395 172.154 337.288 178.141 321.882C180.999 314.526 184.626 301.808 196.633 292.381C200.049 289.7 211.473 280.729 226.058 283.451C237.33 285.557 246.343 293.877 249.878 302.045C261.073 327.885 218.22 362.714 216.47 364.117C186.825 387.962 140.658 399.258 128.008 383.886C126.072 381.536 125.209 378.906 124.795 376.775H124.787Z" fill="url(#paint64_radial_383_1548)"/>
<path d="M124.829 376.107C100.561 345.633 95.3528 321.933 95.4712 305.41C95.5219 297.513 96.8409 284.356 89.1549 271.174C86.9649 267.428 79.6509 254.872 65.0989 252.031C53.8446 249.832 42.4043 254.246 36.1049 260.529C16.1753 280.424 43.1737 328.596 44.2814 330.54C63.0442 363.635 101.804 391.158 119.231 381.527C121.903 380.056 123.67 377.925 124.846 376.099L124.829 376.107Z" fill="url(#paint65_radial_383_1548)"/>
<path d="M90.9221 373.427C86.9733 370.095 79.1435 362.544 74.7804 350.242C73.9095 347.781 66.7308 326.642 76.4546 310.653C91.7084 285.557 139.186 288.601 165.009 305.258C176.864 312.902 180.322 320.943 181.058 322.77C188.363 340.856 175.756 359.805 172.839 364.193C170.066 368.362 159.293 384.563 138.239 388.562C111.993 393.551 92.7569 375.228 90.9389 373.427H90.9221Z" fill="url(#paint66_radial_383_1548)"/>
<path d="M100.79 463.588C100.46 462.227 92.85 430.121 96.9002 413.235C101.027 396.054 110.505 387.657 110.903 387.311L115.908 393.043C115.824 393.111 107.816 400.349 104.299 415.019C100.671 430.129 108.112 461.508 108.188 461.821L100.79 463.596V463.588Z" fill="url(#paint67_linear_383_1548)"/>
<path d="M186.099 399.154C186.574 395.307 170.687 390.18 150.614 387.701C130.542 385.222 113.885 386.331 113.409 390.178C112.934 394.024 128.821 399.152 148.894 401.631C168.967 404.11 185.624 403.001 186.099 399.154Z" fill="url(#paint68_linear_383_1548)"/>
<path d="M117.376 391.439C119.05 387.943 105.618 378.03 87.375 369.297C69.1322 360.565 52.9869 356.32 51.3134 359.816C49.6399 363.312 63.0718 373.225 81.3146 381.958C99.5573 390.69 115.703 394.935 117.376 391.439Z" fill="url(#paint69_linear_383_1548)"/>
<path d="M239.419 202.05C227.555 192.986 228.409 170.9 231.411 158.682C236.713 137.137 253.505 126.728 258.097 123.989C278.229 111.965 306.699 111.407 325.487 126.661C330.687 130.88 338.593 137.298 339.498 146.675C342.534 178.146 264.625 221.312 239.419 202.059V202.05Z" fill="#E4392A"/>
<path d="M337.232 169.666C325.368 160.601 326.222 138.515 329.224 126.297C334.526 104.753 351.318 94.3437 355.91 91.6042C376.042 79.5804 404.512 79.0224 423.3 94.2761C428.5 98.4954 436.406 104.913 437.311 114.29C440.347 145.762 362.437 188.927 337.232 169.674V169.666Z" fill="#E4392A"/>
<path d="M160.418 263.082C148.555 254.018 149.409 231.932 152.411 219.714C157.712 198.169 174.505 187.76 179.096 185.021C199.229 172.997 227.699 172.439 246.487 187.693C251.687 191.912 259.593 198.33 260.498 207.707C263.533 239.178 185.624 282.344 160.418 263.091V263.082Z" fill="#E4392A"/>
<path d="M301.684 310.222C297.609 310.12 275.312 309.308 252.499 294.773C241.955 288.06 220.41 274.328 215.463 250.737C207.625 213.33 247.679 180.446 255.467 174.054C273.232 159.477 291.005 153.803 308.407 148.29C337.079 139.209 353.982 141.052 358.582 141.644C367.528 142.802 377.125 144.045 385.267 149.499C409.239 165.539 411.665 212.036 398.61 244.734C383.128 283.519 342.533 311.245 301.676 310.222H301.684Z" fill="url(#paint70_radial_383_1548)"/>
<path d="M359.25 291.772C377.658 239.829 373.692 205.728 365.921 183.685C362.209 173.149 354.379 156.154 358.582 134.981C359.774 128.961 363.774 108.803 381.936 98.284C395.972 90.1498 413.314 90.7755 424.636 96.28C460.471 113.698 446.57 190.576 445.987 193.696C436.144 246.611 397.004 301.293 369.253 296.448C365.008 295.704 361.651 293.683 359.241 291.78L359.25 291.772Z" fill="url(#paint71_radial_383_1548)"/>
<path d="M358.684 291.011C304.551 280.67 277.122 260.038 262.012 242.197C254.79 233.674 244.077 218.335 223.674 211.267C217.874 209.254 198.451 202.532 180.204 212.899C166.101 220.914 157.882 236.194 156.918 248.75C153.865 288.474 227.234 315.286 230.227 316.369C280.876 334.599 347.835 328.409 357.66 302.02C359.165 297.978 359.106 294.063 358.684 291.019V291.011Z" fill="url(#paint72_radial_383_1548)"/>
<path d="M319.813 319.387C312.508 319.447 297.136 318.567 281.113 309.376C277.908 307.541 250.723 291.467 246.42 265.34C239.664 224.339 293.424 183.854 336.496 177.935C356.265 175.221 367.384 180.658 369.853 181.935C394.366 194.609 398.298 226.571 399.211 233.978C400.073 241.005 403.439 268.325 384.532 292.025C360.967 321.569 323.424 319.633 319.813 319.379V319.387Z" fill="url(#paint73_radial_383_1548)"/>
<path d="M410.458 297.35C434.291 281.51 451.151 264.967 448.117 260.401C445.082 255.835 423.301 264.975 399.469 280.816C375.636 296.656 358.776 313.199 361.81 317.765C364.845 322.331 386.625 313.191 410.458 297.35Z" fill="url(#paint74_linear_383_1548)"/>
<path d="M319.903 338.543C347.536 331.103 368.781 320.78 367.356 315.486C365.93 310.192 342.374 311.932 314.741 319.373C287.109 326.813 265.864 337.136 267.289 342.43C268.714 347.724 292.271 345.984 319.903 338.543Z" fill="url(#paint75_linear_383_1548)"/>
<path d="M378.334 461.635L370.724 461.381C370.741 460.992 372.018 422.105 372.018 381.197C372.018 340.289 358.768 319.92 358.633 319.709L365.067 315.65C365.659 316.589 379.628 339.131 379.628 381.206C379.628 423.28 378.343 461.254 378.334 461.643V461.635Z" fill="url(#paint76_linear_383_1548)"/>
<path d="M237.271 353.235C237.397 352.322 237.33 351.51 237.059 350.834C236.712 348.787 235.943 347.401 234.734 346.893C234.37 346.741 233.964 346.682 233.55 346.69C228.79 344.813 218.584 345.447 207.355 348.677C192.668 352.897 181.802 359.949 183.088 364.43C183.95 367.44 190.08 368.514 198.451 367.618C188.423 376.843 182.868 385.932 185.624 389.501C188.567 393.306 199.965 389.534 212.318 381.054C210.137 389.898 210.382 396.696 213.418 397.965C217.713 399.757 225.974 389.78 231.859 375.676C235.503 366.95 237.381 358.689 237.262 353.226L237.271 353.235Z" fill="url(#paint77_radial_383_1548)"/>
<path d="M265.259 463.3C264.861 462.26 255.687 437.317 264.32 395.005C273.131 351.84 274.872 340.425 261.293 337.406C247.155 334.269 237.753 349.81 237.66 349.963L234.751 348.238C235.182 347.511 245.473 330.422 262.028 334.1C279.413 337.964 276.208 353.675 267.635 395.673C259.213 436.936 268.328 461.846 268.421 462.091L265.259 463.292V463.3Z" fill="url(#paint78_linear_383_1548)"/>
<path d="M202.89 302.747C203.296 301.918 203.491 301.132 203.448 300.405C203.77 298.35 203.474 296.794 202.484 295.932C202.188 295.67 201.825 295.484 201.419 295.365C197.496 292.076 187.611 289.455 175.934 288.973C160.663 288.339 148.132 291.594 147.938 296.253C147.811 299.382 153.282 302.333 161.509 304.134C149.079 309.714 140.937 316.597 142.433 320.85C144.023 325.382 156.03 325.416 170.429 321.273C165.559 328.976 163.648 335.504 166.134 337.668C169.643 340.729 180.635 333.863 190.672 322.347C196.887 315.21 201.275 307.972 202.89 302.755V302.747Z" fill="url(#paint79_radial_383_1548)"/>
<path d="M428.247 461.347L424.949 460.586C439.307 398.108 421.043 368.911 420.857 368.624L420.806 368.548C393.047 320.106 358.109 290.275 316.972 279.892C256.896 264.731 203.905 297.04 203.372 297.369L201.588 294.494C202.138 294.148 215.362 286.005 236.357 279.655C255.746 273.795 285.611 268.502 317.759 276.602C359.825 287.206 395.473 317.569 423.715 366.831C424.823 368.565 442.774 398.075 428.239 461.347H428.247Z" fill="url(#paint80_linear_383_1548)"/>
<defs>
<linearGradient id="paint0_linear_383_1548" x1="57.8866" y1="125.595" x2="46.4209" y2="125.595" gradientUnits="userSpaceOnUse">
<stop stop-color="#3C3C3B"/>
<stop offset="0.6" stop-color="#60B295"/>
<stop offset="1" stop-color="#F3EFB0"/>
</linearGradient>
<linearGradient id="paint1_linear_383_1548" x1="69.3011" y1="151.723" x2="57.8354" y2="151.723" gradientUnits="userSpaceOnUse">
<stop stop-color="#3C3C3B"/>
<stop offset="0.6" stop-color="#60B295"/>
<stop offset="1" stop-color="#F3EFB0"/>
</linearGradient>
<linearGradient id="paint2_linear_383_1548" x1="79.3129" y1="178.163" x2="67.8472" y2="178.163" gradientUnits="userSpaceOnUse">
<stop stop-color="#3C3C3B"/>
<stop offset="0.6" stop-color="#60B295"/>
<stop offset="1" stop-color="#F3EFB0"/>
</linearGradient>
<linearGradient id="paint3_linear_383_1548" x1="87.0581" y1="206.684" x2="75.5924" y2="206.684" gradientUnits="userSpaceOnUse">
<stop stop-color="#3C3C3B"/>
<stop offset="0.6" stop-color="#60B295"/>
<stop offset="1" stop-color="#F3EFB0"/>
</linearGradient>
<linearGradient id="paint4_linear_383_1548" x1="99.7919" y1="270.684" x2="88.3262" y2="270.684" gradientUnits="userSpaceOnUse">
<stop stop-color="#3C3C3B"/>
<stop offset="0.6" stop-color="#60B295"/>
<stop offset="1" stop-color="#F3EFB0"/>
</linearGradient>
<linearGradient id="paint5_linear_383_1548" x1="93.8563" y1="237.369" x2="82.3906" y2="237.369" gradientUnits="userSpaceOnUse">
<stop stop-color="#3C3C3B"/>
<stop offset="0.6" stop-color="#60B295"/>
<stop offset="1" stop-color="#F3EFB0"/>
</linearGradient>
<linearGradient id="paint6_linear_383_1548" x1="32.8477" y1="134.085" x2="41.5858" y2="126.662" gradientUnits="userSpaceOnUse">
<stop stop-color="#3C3C3B"/>
<stop offset="0.6" stop-color="#60B295"/>
<stop offset="1" stop-color="#F3EFB0"/>
</linearGradient>
<linearGradient id="paint7_linear_383_1548" x1="44.5606" y1="161.133" x2="53.4774" y2="153.926" gradientUnits="userSpaceOnUse">
<stop stop-color="#3C3C3B"/>
<stop offset="0.6" stop-color="#60B295"/>
<stop offset="1" stop-color="#F3EFB0"/>
</linearGradient>
<linearGradient id="paint8_linear_383_1548" x1="54.3358" y1="185.954" x2="63.9216" y2="179.648" gradientUnits="userSpaceOnUse">
<stop stop-color="#3C3C3B"/>
<stop offset="0.6" stop-color="#60B295"/>
<stop offset="1" stop-color="#F3EFB0"/>
</linearGradient>
<linearGradient id="paint9_linear_383_1548" x1="63.1491" y1="213.538" x2="73.1283" y2="207.892" gradientUnits="userSpaceOnUse">
<stop stop-color="#3C3C3B"/>
<stop offset="0.6" stop-color="#60B295"/>
<stop offset="1" stop-color="#F3EFB0"/>
</linearGradient>
<linearGradient id="paint10_linear_383_1548" x1="74.49" y1="275.863" x2="84.9798" y2="271.234" gradientUnits="userSpaceOnUse">
<stop stop-color="#3C3C3B"/>
<stop offset="0.6" stop-color="#60B295"/>
<stop offset="1" stop-color="#F3EFB0"/>
</linearGradient>
<linearGradient id="paint11_linear_383_1548" x1="68.8943" y1="242.195" x2="79.3841" y2="237.566" gradientUnits="userSpaceOnUse">
<stop stop-color="#3C3C3B"/>
<stop offset="0.6" stop-color="#60B295"/>
<stop offset="1" stop-color="#F3EFB0"/>
</linearGradient>
<radialGradient id="paint12_radial_383_1548" cx="0" cy="0" r="1" gradientUnits="userSpaceOnUse" gradientTransform="translate(43.8619 92.7844) rotate(-44.06) scale(38.9207 38.9208)">
<stop stop-color="white"/>
<stop offset="0.57" stop-color="#F8CFB5"/>
<stop offset="0.87" stop-color="#EB6A65"/>
</radialGradient>
<radialGradient id="paint13_radial_383_1548" cx="0" cy="0" r="1" gradientUnits="userSpaceOnUse" gradientTransform="translate(6.12483 128.783) rotate(-108.71) scale(38.9208 38.9208)">
<stop stop-color="white"/>
<stop offset="0.57" stop-color="#F8CFB5"/>
<stop offset="0.87" stop-color="#EB6A65"/>
</radialGradient>
<radialGradient id="paint14_radial_383_1548" cx="0" cy="0" r="1" gradientUnits="userSpaceOnUse" gradientTransform="translate(11.657 152.762) rotate(-108.71) scale(38.9208 38.9208)">
<stop stop-color="white"/>
<stop offset="0.57" stop-color="#F8CFB5"/>
<stop offset="0.87" stop-color="#EB6A65"/>
</radialGradient>
<radialGradient id="paint15_radial_383_1548" cx="0" cy="0" r="1" gradientUnits="userSpaceOnUse" gradientTransform="translate(20.6554 176.747) rotate(-108.71) scale(38.9208 38.9208)">
<stop stop-color="white"/>
<stop offset="0.57" stop-color="#F8CFB5"/>
<stop offset="0.87" stop-color="#EB6A65"/>
</radialGradient>
<radialGradient id="paint16_radial_383_1548" cx="0" cy="0" r="1" gradientUnits="userSpaceOnUse" gradientTransform="translate(28.9215 204.509) rotate(-109.76) scale(41.8295 41.8294)">
<stop stop-color="white"/>
<stop offset="0.57" stop-color="#F8CFB5"/>
<stop offset="0.87" stop-color="#EB6A65"/>
</radialGradient>
<radialGradient id="paint17_radial_383_1548" cx="0" cy="0" r="1" gradientUnits="userSpaceOnUse" gradientTransform="translate(34.3612 233.48) rotate(-108.71) scale(43.529 43.529)">
<stop stop-color="white"/>
<stop offset="0.57" stop-color="#F8CFB5"/>
<stop offset="0.87" stop-color="#EB6A65"/>
</radialGradient>
<radialGradient id="paint18_radial_383_1548" cx="0" cy="0" r="1" gradientUnits="userSpaceOnUse" gradientTransform="translate(38.7154 269.875) rotate(-108.71) scale(49.1858 49.1858)">
<stop stop-color="white"/>
<stop offset="0.57" stop-color="#F8CFB5"/>
<stop offset="0.87" stop-color="#EB6A65"/>
</radialGradient>
<linearGradient id="paint19_linear_383_1548" x1="81.4082" y1="310.915" x2="91.898" y2="306.287" gradientUnits="userSpaceOnUse">
<stop stop-color="#3C3C3B"/>
<stop offset="0.6" stop-color="#60B295"/>
<stop offset="1" stop-color="#F3EFB0"/>
</linearGradient>
<radialGradient id="paint20_radial_383_1548" cx="0" cy="0" r="1" gradientUnits="userSpaceOnUse" gradientTransform="translate(45.6297 304.921) rotate(-108.71) scale(49.1858 49.1858)">
<stop stop-color="white"/>
<stop offset="0.57" stop-color="#F8CFB5"/>
<stop offset="0.87" stop-color="#EB6A65"/>
</radialGradient>
<radialGradient id="paint21_radial_383_1548" cx="0" cy="0" r="1" gradientUnits="userSpaceOnUse" gradientTransform="translate(61.8409 114.851) rotate(-31.07) scale(38.9208 38.9207)">
<stop stop-color="white"/>
<stop offset="0.57" stop-color="#F8CFB5"/>
<stop offset="0.87" stop-color="#EB6A65"/>
</radialGradient>
<radialGradient id="paint22_radial_383_1548" cx="0" cy="0" r="1" gradientUnits="userSpaceOnUse" gradientTransform="translate(72.6641 142.84) rotate(-29.08) scale(38.9208 38.9207)">
<stop stop-color="white"/>
<stop offset="0.57" stop-color="#F8CFB5"/>
<stop offset="0.87" stop-color="#EB6A65"/>
</radialGradient>
<radialGradient id="paint23_radial_383_1548" cx="0" cy="0" r="1" gradientUnits="userSpaceOnUse" gradientTransform="translate(84.6003 169.769) rotate(-20.15) scale(42.6497 42.6496)">
<stop stop-color="white"/>
<stop offset="0.57" stop-color="#F8CFB5"/>
<stop offset="0.87" stop-color="#EB6A65"/>
</radialGradient>
<radialGradient id="paint24_radial_383_1548" cx="0" cy="0" r="1" gradientUnits="userSpaceOnUse" gradientTransform="translate(95.1029 198.796) rotate(-13.23) scale(41.246 41.246)">
<stop stop-color="white"/>
<stop offset="0.57" stop-color="#F8CFB5"/>
<stop offset="0.87" stop-color="#EB6A65"/>
</radialGradient>
<radialGradient id="paint25_radial_383_1548" cx="0" cy="0" r="1" gradientUnits="userSpaceOnUse" gradientTransform="translate(99.6964 232.483) rotate(-15.17) scale(45.1609 45.1609)">
<stop stop-color="white"/>
<stop offset="0.57" stop-color="#F8CFB5"/>
<stop offset="0.87" stop-color="#EB6A65"/>
</radialGradient>
<linearGradient id="paint26_linear_383_1548" x1="103.487" y1="304.201" x2="92.0212" y2="304.201" gradientUnits="userSpaceOnUse">
<stop stop-color="#3C3C3B"/>
<stop offset="0.6" stop-color="#60B295"/>
<stop offset="1" stop-color="#F3EFB0"/>
</linearGradient>
<radialGradient id="paint27_radial_383_1548" cx="0" cy="0" r="1" gradientUnits="userSpaceOnUse" gradientTransform="translate(103.387 265.999) rotate(-15.17) scale(45.1609 45.1609)">
<stop stop-color="white"/>
<stop offset="0.57" stop-color="#F8CFB5"/>
<stop offset="0.87" stop-color="#EB6A65"/>
</radialGradient>
<linearGradient id="paint28_linear_383_1548" x1="96.5199" y1="281.693" x2="27.5312" y2="281.693" gradientUnits="userSpaceOnUse">
<stop stop-color="#3C3C3B"/>
<stop offset="0.6" stop-color="#60B295"/>
<stop offset="1" stop-color="#F3EFB0"/>
</linearGradient>
<radialGradient id="paint29_radial_383_1548" cx="0" cy="0" r="1" gradientUnits="userSpaceOnUse" gradientTransform="translate(11.7668 95.3455) rotate(-74.26) scale(38.9207 38.9207)">
<stop stop-color="white"/>
<stop offset="0.57" stop-color="#F8CFB5"/>
<stop offset="0.87" stop-color="#EB6A65"/>
</radialGradient>
<linearGradient id="paint30_linear_383_1548" x1="342.592" y1="426.248" x2="493.583" y2="164.719" gradientUnits="userSpaceOnUse">
<stop stop-color="#3C3C3B"/>
<stop offset="0.6" stop-color="#60B295"/>
<stop offset="1" stop-color="#F3EFB0"/>
</linearGradient>
<radialGradient id="paint31_radial_383_1548" cx="0" cy="0" r="1" gradientUnits="userSpaceOnUse" gradientTransform="translate(398.965 16.0286) scale(32.6129 32.613)">
<stop stop-color="#F8CFB5"/>
<stop offset="1" stop-color="#FAF7F3"/>
</radialGradient>
<linearGradient id="paint32_linear_383_1548" x1="397.976" y1="232.532" x2="455.068" y2="232.532" gradientUnits="userSpaceOnUse">
<stop stop-color="#3C3C3B"/>
<stop offset="0.6" stop-color="#A767A3"/>
<stop offset="1" stop-color="#EE7F80"/>
</linearGradient>
<linearGradient id="paint33_linear_383_1548" x1="470.508" y1="181.833" x2="480.587" y2="181.833" gradientUnits="userSpaceOnUse">
<stop stop-color="#3C3C3B"/>
<stop offset="0.6" stop-color="#60B295"/>
<stop offset="1" stop-color="#F3EFB0"/>
</linearGradient>
<linearGradient id="paint34_linear_383_1548" x1="461.003" y1="203.598" x2="471.082" y2="203.598" gradientUnits="userSpaceOnUse">
<stop stop-color="#3C3C3B"/>
<stop offset="0.6" stop-color="#60B295"/>
<stop offset="1" stop-color="#F3EFB0"/>
</linearGradient>
<linearGradient id="paint35_linear_383_1548" x1="452.667" y1="225.624" x2="462.737" y2="225.624" gradientUnits="userSpaceOnUse">
<stop stop-color="#3C3C3B"/>
<stop offset="0.6" stop-color="#60B295"/>
<stop offset="1" stop-color="#F3EFB0"/>
</linearGradient>
<linearGradient id="paint36_linear_383_1548" x1="446.215" y1="249.367" x2="456.294" y2="249.367" gradientUnits="userSpaceOnUse">
<stop stop-color="#3C3C3B"/>
<stop offset="0.6" stop-color="#60B295"/>
<stop offset="1" stop-color="#F3EFB0"/>
</linearGradient>
<linearGradient id="paint37_linear_383_1548" x1="435.603" y1="302.679" x2="445.682" y2="302.679" gradientUnits="userSpaceOnUse">
<stop stop-color="#3C3C3B"/>
<stop offset="0.6" stop-color="#60B295"/>
<stop offset="1" stop-color="#F3EFB0"/>
</linearGradient>
<linearGradient id="paint38_linear_383_1548" x1="440.55" y1="274.928" x2="450.629" y2="274.928" gradientUnits="userSpaceOnUse">
<stop stop-color="#3C3C3B"/>
<stop offset="0.6" stop-color="#60B295"/>
<stop offset="1" stop-color="#F3EFB0"/>
</linearGradient>
<linearGradient id="paint39_linear_383_1548" x1="491.814" y1="189.245" x2="484.133" y2="182.72" gradientUnits="userSpaceOnUse">
<stop stop-color="#3C3C3B"/>
<stop offset="0.6" stop-color="#60B295"/>
<stop offset="1" stop-color="#F3EFB0"/>
</linearGradient>
<linearGradient id="paint40_linear_383_1548" x1="482.046" y1="211.379" x2="474.207" y2="205.043" gradientUnits="userSpaceOnUse">
<stop stop-color="#3C3C3B"/>
<stop offset="0.6" stop-color="#60B295"/>
<stop offset="1" stop-color="#F3EFB0"/>
</linearGradient>
<linearGradient id="paint41_linear_383_1548" x1="473.949" y1="232.377" x2="465.529" y2="226.837" gradientUnits="userSpaceOnUse">
<stop stop-color="#3C3C3B"/>
<stop offset="0.6" stop-color="#60B295"/>
<stop offset="1" stop-color="#F3EFB0"/>
</linearGradient>
<linearGradient id="paint42_linear_383_1548" x1="466.626" y1="255.216" x2="457.853" y2="250.253" gradientUnits="userSpaceOnUse">
<stop stop-color="#3C3C3B"/>
<stop offset="0.6" stop-color="#60B295"/>
<stop offset="1" stop-color="#F3EFB0"/>
</linearGradient>
<linearGradient id="paint43_linear_383_1548" x1="457.216" y1="307.467" x2="447.995" y2="303.398" gradientUnits="userSpaceOnUse">
<stop stop-color="#3C3C3B"/>
<stop offset="0.6" stop-color="#60B295"/>
<stop offset="1" stop-color="#F3EFB0"/>
</linearGradient>
<linearGradient id="paint44_linear_383_1548" x1="461.879" y1="279.432" x2="452.658" y2="275.363" gradientUnits="userSpaceOnUse">
<stop stop-color="#3C3C3B"/>
<stop offset="0.6" stop-color="#60B295"/>
<stop offset="1" stop-color="#F3EFB0"/>
</linearGradient>
<radialGradient id="paint45_radial_383_1548" cx="0" cy="0" r="1" gradientUnits="userSpaceOnUse" gradientTransform="translate(482.464 154.517) rotate(-135.94) scale(32.4184)">
<stop stop-color="white"/>
<stop offset="0.57" stop-color="#F8CFB5"/>
<stop offset="0.87" stop-color="#EB6A65"/>
</radialGradient>
<radialGradient id="paint46_radial_383_1548" cx="0" cy="0" r="1" gradientUnits="userSpaceOnUse" gradientTransform="translate(513.93 184.137) rotate(-71.29) scale(32.4185 32.4185)">
<stop stop-color="white"/>
<stop offset="0.57" stop-color="#F8CFB5"/>
<stop offset="0.87" stop-color="#EB6A65"/>
</radialGradient>
<radialGradient id="paint47_radial_383_1548" cx="0" cy="0" r="1" gradientUnits="userSpaceOnUse" gradientTransform="translate(509.317 204.107) rotate(-71.29) scale(32.4185 32.4184)">
<stop stop-color="white"/>
<stop offset="0.57" stop-color="#F8CFB5"/>
<stop offset="0.87" stop-color="#EB6A65"/>
</radialGradient>
<radialGradient id="paint48_radial_383_1548" cx="0" cy="0" r="1" gradientUnits="userSpaceOnUse" gradientTransform="translate(501.831 224.077) rotate(-71.29) scale(32.4185 32.4185)">
<stop stop-color="white"/>
<stop offset="0.57" stop-color="#F8CFB5"/>
<stop offset="0.87" stop-color="#EB6A65"/>
</radialGradient>
<radialGradient id="paint49_radial_383_1548" cx="0" cy="0" r="1" gradientUnits="userSpaceOnUse" gradientTransform="translate(494.942 247.22) rotate(-70.24) scale(34.8368 34.8367)">
<stop stop-color="white"/>
<stop offset="0.57" stop-color="#F8CFB5"/>
<stop offset="0.87" stop-color="#EB6A65"/>
</radialGradient>
<radialGradient id="paint50_radial_383_1548" cx="0" cy="0" r="1" gradientUnits="userSpaceOnUse" gradientTransform="translate(490.425 271.332) rotate(-71.29) scale(36.2573 36.2572)">
<stop stop-color="white"/>
<stop offset="0.57" stop-color="#F8CFB5"/>
<stop offset="0.87" stop-color="#EB6A65"/>
</radialGradient>
<radialGradient id="paint51_radial_383_1548" cx="0" cy="0" r="1" gradientUnits="userSpaceOnUse" gradientTransform="translate(486.792 301.642) rotate(-71.29) scale(40.967 40.9669)">
<stop stop-color="white"/>
<stop offset="0.57" stop-color="#F8CFB5"/>
<stop offset="0.87" stop-color="#EB6A65"/>
</radialGradient>
<linearGradient id="paint52_linear_383_1548" x1="451.458" y1="336.664" x2="442.237" y2="332.595" gradientUnits="userSpaceOnUse">
<stop stop-color="#3C3C3B"/>
<stop offset="0.6" stop-color="#60B295"/>
<stop offset="1" stop-color="#F3EFB0"/>
</linearGradient>
<radialGradient id="paint53_radial_383_1548" cx="0" cy="0" r="1" gradientUnits="userSpaceOnUse" gradientTransform="translate(481.029 330.837) rotate(-71.29) scale(40.967 40.967)">
<stop stop-color="white"/>
<stop offset="0.57" stop-color="#F8CFB5"/>
<stop offset="0.87" stop-color="#EB6A65"/>
</radialGradient>
<radialGradient id="paint54_radial_383_1548" cx="0" cy="0" r="1" gradientUnits="userSpaceOnUse" gradientTransform="translate(467.505 172.264) rotate(-148.93) scale(32.4185 32.4185)">
<stop stop-color="white"/>
<stop offset="0.57" stop-color="#F8CFB5"/>
<stop offset="0.87" stop-color="#EB6A65"/>
</radialGradient>
<radialGradient id="paint55_radial_383_1548" cx="0" cy="0" r="1" gradientUnits="userSpaceOnUse" gradientTransform="translate(458.485 195.764) rotate(-150.92) scale(32.4185 32.4185)">
<stop stop-color="white"/>
<stop offset="0.57" stop-color="#F8CFB5"/>
<stop offset="0.87" stop-color="#EB6A65"/>
</radialGradient>
<radialGradient id="paint56_radial_383_1548" cx="0" cy="0" r="1" gradientUnits="userSpaceOnUse" gradientTransform="translate(448.546 218.986) rotate(-159.85) scale(35.5216 35.5216)">
<stop stop-color="white"/>
<stop offset="0.57" stop-color="#F8CFB5"/>
<stop offset="0.87" stop-color="#EB6A65"/>
</radialGradient>
<radialGradient id="paint57_radial_383_1548" cx="0" cy="0" r="1" gradientUnits="userSpaceOnUse" gradientTransform="translate(439.787 242.474) rotate(-166.77) scale(34.3547 34.3547)">
<stop stop-color="white"/>
<stop offset="0.57" stop-color="#F8CFB5"/>
<stop offset="0.87" stop-color="#EB6A65"/>
</radialGradient>
<radialGradient id="paint58_radial_383_1548" cx="0" cy="0" r="1" gradientUnits="userSpaceOnUse" gradientTransform="translate(435.952 270.735) rotate(-164.83) scale(37.6186 37.6186)">
<stop stop-color="white"/>
<stop offset="0.57" stop-color="#F8CFB5"/>
<stop offset="0.87" stop-color="#EB6A65"/>
</radialGradient>
<linearGradient id="paint59_linear_383_1548" x1="432.525" y1="330.591" x2="442.604" y2="330.591" gradientUnits="userSpaceOnUse">
<stop stop-color="#3C3C3B"/>
<stop offset="0.6" stop-color="#60B295"/>
<stop offset="1" stop-color="#F3EFB0"/>
</linearGradient>
<radialGradient id="paint60_radial_383_1548" cx="0" cy="0" r="1" gradientUnits="userSpaceOnUse" gradientTransform="translate(432.878 298.646) rotate(-164.83) scale(37.6186 37.6186)">
<stop stop-color="white"/>
<stop offset="0.57" stop-color="#F8CFB5"/>
<stop offset="0.87" stop-color="#EB6A65"/>
</radialGradient>
<linearGradient id="paint61_linear_383_1548" x1="438.36" y1="311.701" x2="496.297" y2="311.701" gradientUnits="userSpaceOnUse">
<stop stop-color="#3C3C3B"/>
<stop offset="0.6" stop-color="#60B295"/>
<stop offset="1" stop-color="#F3EFB0"/>
</linearGradient>
<radialGradient id="paint62_radial_383_1548" cx="0" cy="0" r="1" gradientUnits="userSpaceOnUse" gradientTransform="translate(509.233 156.145) rotate(-105.74) scale(32.4184 32.4185)">
<stop stop-color="white"/>
<stop offset="0.57" stop-color="#F8CFB5"/>
<stop offset="0.87" stop-color="#EB6A65"/>
</radialGradient>
<radialGradient id="paint63_radial_383_1548" cx="0" cy="0" r="1" gradientUnits="userSpaceOnUse" gradientTransform="translate(122.661 242.587) rotate(40.65) scale(168.375 168.375)">
<stop stop-color="white"/>
<stop offset="0.59" stop-color="#FCCB80"/>
<stop offset="1" stop-color="#EB6A65"/>
</radialGradient>
<radialGradient id="paint64_radial_383_1548" cx="0" cy="0" r="1" gradientUnits="userSpaceOnUse" gradientTransform="translate(215.818 278.673) rotate(40.65) scale(150.373 150.373)">
<stop stop-color="#FCCB80"/>
<stop offset="0.38" stop-color="#ED7268"/>
<stop offset="1" stop-color="#E4392A"/>
</radialGradient>
<radialGradient id="paint65_radial_383_1548" cx="0" cy="0" r="1" gradientUnits="userSpaceOnUse" gradientTransform="translate(62.9868 250.628) rotate(40.65) scale(153.138 153.138)">
<stop stop-color="#FCCB80"/>
<stop offset="0.38" stop-color="#ED7268"/>
<stop offset="1" stop-color="#E4392A"/>
</radialGradient>
<radialGradient id="paint66_radial_383_1548" cx="0" cy="0" r="1" gradientUnits="userSpaceOnUse" gradientTransform="translate(121.548 273.984) rotate(40.65) scale(138.197 138.197)">
<stop stop-color="#FCCB80"/>
<stop offset="0.38" stop-color="#ED7268"/>
<stop offset="1" stop-color="#E4392A"/>
</radialGradient>
<linearGradient id="paint67_linear_383_1548" x1="95.7249" y1="425.445" x2="115.917" y2="425.445" gradientUnits="userSpaceOnUse">
<stop stop-color="#3C3C3B"/>
<stop offset="0.6" stop-color="#A767A3"/>
<stop offset="1" stop-color="#EE7F80"/>
</linearGradient>
<linearGradient id="paint68_linear_383_1548" x1="113.401" y1="390.176" x2="186.099" y2="399.154" gradientUnits="userSpaceOnUse">
<stop stop-color="#3C3C3B"/>
<stop offset="0.6" stop-color="#A767A3"/>
<stop offset="1" stop-color="#EE7F80"/>
</linearGradient>
<linearGradient id="paint69_linear_383_1548" x1="117.376" y1="391.439" x2="51.3134" y2="359.816" gradientUnits="userSpaceOnUse">
<stop stop-color="#3C3C3B"/>
<stop offset="0.6" stop-color="#A767A3"/>
<stop offset="1" stop-color="#EE7F80"/>
</linearGradient>
<radialGradient id="paint70_radial_383_1548" cx="0" cy="0" r="1" gradientUnits="userSpaceOnUse" gradientTransform="translate(233 149.753) scale(238.2 238.201)">
<stop stop-color="white"/>
<stop offset="0.59" stop-color="#FCCB80"/>
<stop offset="1" stop-color="#EB6A65"/>
</radialGradient>
<radialGradient id="paint71_radial_383_1548" cx="0" cy="0" r="1" gradientUnits="userSpaceOnUse" gradientTransform="translate(366.243 102.63) scale(212.741 212.741)">
<stop stop-color="#FCCB80"/>
<stop offset="0.38" stop-color="#ED7268"/>
<stop offset="1" stop-color="#E4392A"/>
</radialGradient>
<radialGradient id="paint72_radial_383_1548" cx="0" cy="0" r="1" gradientUnits="userSpaceOnUse" gradientTransform="translate(176.349 213.389) scale(216.656 216.656)">
<stop stop-color="#FCCB80"/>
<stop offset="0.38" stop-color="#ED7268"/>
<stop offset="1" stop-color="#E4392A"/>
</radialGradient>
<radialGradient id="paint73_radial_383_1548" cx="0" cy="0" r="1" gradientUnits="userSpaceOnUse" gradientTransform="translate(260.735 184.48) scale(195.517 195.517)">
<stop stop-color="#FCCB80"/>
<stop offset="0.38" stop-color="#ED7268"/>
<stop offset="1" stop-color="#E4392A"/>
</radialGradient>
<linearGradient id="paint74_linear_383_1548" x1="361.817" y1="317.76" x2="448.117" y2="260.401" gradientUnits="userSpaceOnUse">
<stop stop-color="#3C3C3B"/>
<stop offset="0.6" stop-color="#A767A3"/>
<stop offset="1" stop-color="#EE7F80"/>
</linearGradient>
<linearGradient id="paint75_linear_383_1548" x1="367.356" y1="315.486" x2="267.297" y2="342.428" gradientUnits="userSpaceOnUse">
<stop stop-color="#3C3C3B"/>
<stop offset="0.6" stop-color="#A767A3"/>
<stop offset="1" stop-color="#EE7F80"/>
</linearGradient>
<linearGradient id="paint76_linear_383_1548" x1="358.641" y1="388.647" x2="379.628" y2="388.647" gradientUnits="userSpaceOnUse">
<stop stop-color="#3C3C3B"/>
<stop offset="0.6" stop-color="#A767A3"/>
<stop offset="1" stop-color="#EE7F80"/>
</linearGradient>
<radialGradient id="paint77_radial_383_1548" cx="0" cy="0" r="1" gradientUnits="userSpaceOnUse" gradientTransform="translate(234.362 348.797) rotate(10.83) scale(32.6129 32.613)">
<stop stop-color="#F8CFB5"/>
<stop offset="1" stop-color="#FAF7F3"/>
</radialGradient>
<linearGradient id="paint78_linear_383_1548" x1="234.743" y1="398.447" x2="274.585" y2="398.447" gradientUnits="userSpaceOnUse">
<stop stop-color="#3C3C3B"/>
<stop offset="0.6" stop-color="#A767A3"/>
<stop offset="1" stop-color="#EE7F80"/>
</linearGradient>
<radialGradient id="paint79_radial_383_1548" cx="0" cy="0" r="1" gradientUnits="userSpaceOnUse" gradientTransform="translate(201.654 297.649) rotate(29.24) scale(32.6129 32.6129)">
<stop stop-color="#F8CFB5"/>
<stop offset="1" stop-color="#FAF7F3"/>
</radialGradient>
<linearGradient id="paint80_linear_383_1548" x1="201.597" y1="366.907" x2="433.895" y2="366.907" gradientUnits="userSpaceOnUse">
<stop stop-color="#3C3C3B"/>
<stop offset="0.6" stop-color="#A767A3"/>
<stop offset="1" stop-color="#EE7F80"/>
</linearGradient>
</defs>
</svg>
