<svg width="260" height="260" viewBox="0 0 260 260" fill="none" xmlns="http://www.w3.org/2000/svg">
<path d="M25.682 98.4697C25.4708 97.9891 25.289 97.5281 25.1023 97.0818C21.545 115.414 18.8869 137.533 19.2112 162.584C19.3783 175.62 20.3363 187.704 21.7366 198.695C16.9854 192.246 10.6915 182.261 6.09753 168.931C0.0983436 151.554 0 137.219 0 129.411C0 94.0705 14.0768 62.001 36.9238 38.4846C21.7858 57.3566 23.8592 85.9931 25.682 98.4648V98.4697Z" fill="#999A9C"/>
<path d="M85.674 156.709C77.3262 153.452 65.0429 147.479 52.8627 136.552C37.5822 122.844 29.6422 107.773 25.6771 98.4742V98.4644C23.8494 85.9927 21.7809 57.3562 36.9189 38.4842C38.3094 37.0472 39.7392 35.6446 41.1935 34.2763C42.7265 32.8295 44.2889 31.4318 45.8907 30.0684C44.1219 43.624 42.9377 66.3459 50.3421 92.8784C59.2205 124.688 76.0045 146.056 85.6789 156.704L85.674 156.709Z" fill="#999A9C"/>
<path d="M186.633 186.939C171.682 198.136 156.775 203.089 147.931 205.414C161.054 196.748 190.426 174.629 205.142 134.87C211.038 118.931 213.052 104.301 213.553 92.8787C213.553 92.8787 227.016 8.05792 130.262 2.18251C134.503 1.13297 140.669 -0.009746 148.142 6.27047e-05C151.213 0.00987141 160.931 0.210948 174.011 4.70333C178.949 6.40024 209.573 16.8367 225.468 38.2932C254.761 77.8566 232.386 152.682 186.633 186.934V186.939Z" fill="#999A9C"/>
<path d="M213.558 92.8834C205.682 108.107 196.116 121.039 185.164 131.961L185.105 132.02C185.105 132.02 185.12 131.976 185.13 131.961C189.817 121.054 207.525 79.8428 191.684 45.8556C176.094 12.4227 136.173 3.42806 130.268 2.18726C227.021 8.06757 213.558 92.8834 213.558 92.8834V92.8834Z" fill="#999A9C"/>
<path d="M153.822 190.299C148.8 193.379 144.855 193.757 136.154 199.539C129.678 203.845 124.956 208.225 122.003 211.221C121.993 211.246 121.988 211.27 121.988 211.295C99.559 210.363 77.9108 203.811 64.5269 198.872C60.8271 196.69 56.1398 195.679 51.3493 193.507C51.2903 193.482 51.2461 193.462 51.2068 193.438C51.1331 193.404 51.0741 193.379 51.0201 193.355C50.9464 193.32 50.912 193.306 50.912 193.306C47.8756 191.878 44.8047 189.956 41.9255 186.94C39.0807 183.968 37.1448 180.677 36.8795 180.221C36.8795 180.221 34.128 175.503 32.6736 169.304C30.9736 162.065 29.3916 144.64 29.4408 121.437C31.0818 125.645 46.7554 164.076 84.9664 172.663C90.3023 173.865 105.19 177.205 121.011 171.883C124.99 170.53 129.01 168.642 132.975 166.023C132.999 166.008 133.034 165.988 133.058 165.974C133.093 165.959 133.132 165.929 133.166 165.905C133.181 165.895 133.191 165.89 133.191 165.89C133.731 165.537 134.267 165.169 134.797 164.782C157.91 148.087 158.185 119.524 158.16 116.4C161.005 119.196 172.606 131.256 173.171 149.99C173.652 165.802 166.164 182.727 153.822 190.299V190.299Z" fill="url(#paint0_linear_43_2459)"/>
<path d="M176.792 205.624C150.796 220.558 113.98 234.78 83.9937 219.69C79.9058 217.63 75.6803 214.893 71.4893 211.215C71.3713 207.552 70.3101 205.168 69.5141 203.79C68.2268 201.563 66.517 200.043 64.5271 198.871C77.911 203.81 99.5592 210.357 121.989 211.294C121.998 211.303 122.003 211.303 122.013 211.294C133.034 212.78 152.663 213.873 174.994 206.257C175.598 206.046 176.197 205.835 176.792 205.629V205.624Z" fill="url(#paint1_linear_43_2459)"/>
<path d="M233.885 212.972C217.705 239.755 188.117 248.622 169.943 254.061C151.434 259.603 136.625 260 130.822 260C124.455 260 109.494 259.549 91.3242 253.943C87.1282 252.648 83.1484 251.422 79.429 250.172C66.1188 245.689 56.1642 240.883 51.3197 231.442C49.3494 227.602 48.0818 222.732 42.9081 217.165C42.9081 217.165 41.2179 215.341 31.1308 207.087C36 203.997 41.1098 202.854 45.9789 202.854C59.6331 202.854 71.5135 211.79 71.5135 211.79C71.5135 211.589 71.5037 211.398 71.4988 211.211C75.6899 214.89 79.9104 217.626 84.0032 219.686C113.989 234.777 150.805 220.549 176.802 205.621C176.811 205.621 176.811 205.611 176.816 205.611C211.455 193.124 229.743 167.391 235.575 158.382C237.452 160.422 239.899 163.556 241.726 167.823C249.794 186.66 237.123 207.622 233.895 212.972H233.885Z" fill="url(#paint2_linear_43_2459)"/>
<path d="M257.307 159.225C255.371 167.322 252.757 173.865 250.576 178.538C250.413 174.904 249.627 168.107 245.53 160.902C242.508 155.596 238.833 152.07 236.273 149.985C227.296 158.946 218.329 167.896 209.353 176.856C221.651 160.966 229.158 146.336 233.752 135.709C236.361 129.672 239.648 121.962 242.164 111.354C246.247 94.164 245.923 79.3676 244.95 69.4412C248.625 76.4053 251.691 83.7275 254.069 91.3587C259.582 109.029 259.96 129.343 259.965 130.25C260.068 138.161 260.127 147.391 257.307 159.225V159.225Z" fill="#999A9C"/>
<path d="M96.6501 158.189C100.32 154.148 123.168 128.366 119.365 99.4058C118.785 94.9821 117.591 85.811 110.953 76.733C104.526 67.9395 96.4488 63.9425 91.6042 61.6178C80.844 56.4535 70.8257 55.6737 64.684 55.7375C64.9346 55.4776 65.5487 54.84 66.5167 54.0063C66.5412 53.9719 66.5756 53.9327 66.6001 53.8984H66.61C73.2037 51.6816 83.168 49.6169 94.5522 51.9563C109.956 55.1245 123.408 65.3991 131.083 78.7634C134.365 84.4819 136.596 90.7742 137.46 97.3068C141.43 127.189 115.679 151.858 96.655 158.189H96.6501Z" fill="#999A9C"/>
<path d="M131.073 78.7586C123.399 65.3992 109.946 55.1197 94.5426 51.9514C83.1584 49.6072 73.199 51.6719 66.6004 53.8936C69.3765 50.4262 77.7881 41.3384 88.2044 42.8735C101.028 44.7617 105.367 48.023 108.516 45.87C111.656 43.7268 100.448 42.7116 98.655 44.3938C98.8319 44.2173 100.272 42.7656 102.237 41.5983C104.846 40.0633 107.519 40.5586 109.474 40.7842C112.948 41.1864 115.513 42.4321 116.977 43.2021C122.799 46.2673 131.103 50.6518 133.559 59.3276C134.031 63.7709 133.923 70.5634 131.068 78.7586H131.073Z" fill="#999A9C"/>
<path d="M177.416 90.1669C177.416 90.1669 165.511 74.522 149.174 87.3812C149.174 87.3812 169.004 86.8123 170.685 98.5681C170.12 98.0139 166.548 94.5955 161.497 95.1007C157.375 95.5126 154.844 98.2934 153.857 99.4067C150.609 103.085 150.407 107.141 149.651 111.162C148.304 118.308 145.622 123.198 142.079 129.637C135.785 141.084 126.067 147.724 121.045 150.633C111.386 156.219 102.198 157.739 96.6456 158.19C115.67 151.859 141.421 127.185 137.451 97.3076C136.586 90.775 134.355 84.4828 131.073 78.7643C133.928 70.5691 134.036 63.7717 133.564 59.3332C133.574 59.348 133.574 59.3676 133.579 59.3823C133.673 59.7158 133.8 60.1719 133.933 60.7114C134.699 57.8325 134.075 54.5221 133.663 52.3789C131.55 41.2852 122.288 34.6251 118.52 32.222C121.65 32.119 148.118 31.7364 165.28 53.0802C177.495 68.2788 177.573 85.2527 177.411 90.1669H177.416Z" fill="#999A9C"/>
<defs>
<linearGradient id="paint0_linear_43_2459" x1="160.465" y1="187.151" x2="33.802" y2="113.895" gradientUnits="userSpaceOnUse">
<stop stop-color="#E43D2B"/>
<stop offset="1" stop-color="#FBCB80"/>
</linearGradient>
<linearGradient id="paint1_linear_43_2459" x1="162.116" y1="230.994" x2="75.0675" y2="180.646" gradientUnits="userSpaceOnUse">
<stop stop-color="#E43D2B"/>
<stop offset="1" stop-color="#FBCB80"/>
</linearGradient>
<linearGradient id="paint2_linear_43_2459" x1="89.7126" y1="123.257" x2="215.626" y2="295.036" gradientUnits="userSpaceOnUse">
<stop stop-color="#E43D2B"/>
<stop offset="1" stop-color="#FBCB80"/>
</linearGradient>
</defs>
</svg>
