<svg width="189" height="133" viewBox="0 0 189 133" fill="none" xmlns="http://www.w3.org/2000/svg">
<path d="M124.196 100.118C118.198 98.9161 120.835 97.6134 111.005 96.5184C100.212 95.3164 105.008 96.5183 84.6305 97.7203C63.97 98.9349 66.6446 94.1207 49.8607 103.718C33.0768 113.309 79.835 126.499 88.2238 126.499C96.6126 126.499 115.8 116.908 120.596 118.104C125.391 119.3 148.173 113.308 142.175 104.913C136.178 96.5183 126.31 100.54 124.189 100.118H124.196Z" fill="url(#paint0_radial_43_2431)"/>
<path d="M103.812 98.9163C102.069 100.578 100.464 102.378 98.8593 104.171C98.0727 105.077 97.2796 105.984 96.5055 106.909C95.7315 107.828 94.9701 108.765 94.2212 109.703C95.0393 108.822 95.8513 107.928 96.6506 107.035L99.048 104.335L101.427 101.622C102.22 100.722 103.007 99.8099 103.812 98.9163Z" fill="url(#paint1_linear_43_2431)"/>
<path d="M117.003 98.9162C115.089 99.5644 113.195 100.269 111.314 101.012C109.432 101.754 107.582 102.566 105.738 103.397C103.9 104.247 102.094 105.159 100.332 106.16C98.5823 107.167 96.8518 108.268 95.4233 109.703C96.9147 108.337 98.6707 107.305 100.426 106.33C102.195 105.367 104.001 104.454 105.838 103.623C107.67 102.774 109.52 101.968 111.383 101.188C113.245 100.414 115.114 99.6462 116.996 98.9099L117.003 98.9162Z" fill="url(#paint2_linear_43_2431)"/>
<path d="M127.789 100.118C125.171 100.452 122.572 100.924 119.998 101.496C117.418 102.063 114.863 102.717 112.327 103.46C109.803 104.234 107.317 105.134 104.876 106.134C102.44 107.154 100.074 108.343 97.821 109.709C98.9852 109.092 100.124 108.431 101.333 107.896C102.509 107.299 103.73 106.808 104.939 106.285C107.387 105.316 109.879 104.448 112.402 103.699C114.919 102.931 117.468 102.252 120.036 101.66C121.32 101.364 122.61 101.087 123.9 100.836C125.19 100.565 126.486 100.326 127.789 100.118Z" fill="url(#paint3_linear_43_2431)"/>
<path d="M138.582 103.711C135.121 103.844 131.665 104.108 128.217 104.454C124.768 104.8 121.326 105.203 117.902 105.738C114.485 106.304 111.068 106.915 107.707 107.752C104.341 108.576 101.005 109.551 97.8145 110.904L100.256 110.017C101.068 109.721 101.912 109.507 102.736 109.243C103.56 108.973 104.397 108.759 105.234 108.545C106.071 108.331 106.902 108.091 107.751 107.915C111.118 107.103 114.529 106.531 117.946 105.989C121.364 105.429 124.8 105.001 128.236 104.624C129.954 104.435 131.678 104.271 133.402 104.127C135.127 103.969 136.851 103.825 138.582 103.718V103.711Z" fill="url(#paint4_linear_43_2431)"/>
<path d="M139.778 110.904C136.373 110.615 132.968 110.407 129.551 110.269C126.14 110.124 122.723 110.023 119.312 109.998C115.895 109.998 112.478 110.074 109.067 110.307C107.362 110.426 105.662 110.59 103.969 110.842C102.283 111.112 100.596 111.446 99.0167 112.107C100.609 111.49 102.302 111.194 103.988 110.961C105.675 110.728 107.374 110.584 109.08 110.477C112.484 110.275 115.901 110.231 119.312 110.25C122.723 110.25 126.14 110.319 129.551 110.439L134.667 110.653C136.373 110.722 138.078 110.804 139.784 110.904H139.778Z" fill="url(#paint5_linear_43_2431)"/>
<path d="M120.596 116.902C118.84 116.436 117.066 116.071 115.272 115.763C113.485 115.455 111.685 115.203 109.885 114.995C108.079 114.806 106.273 114.649 104.46 114.567C102.648 114.473 100.829 114.466 99.0167 114.498C100.829 114.561 102.641 114.63 104.448 114.756C106.254 114.876 108.06 115.033 109.86 115.241C111.66 115.423 113.453 115.675 115.247 115.945C117.034 116.222 118.821 116.524 120.596 116.896V116.902Z" fill="url(#paint6_linear_43_2431)"/>
<path d="M93.0256 109.709C93.1703 108.815 93.3024 107.922 93.4219 107.022L93.7492 104.328L94.0199 101.628C94.1017 100.729 94.1708 99.8223 94.2212 98.9224C94.0764 99.816 93.9444 100.71 93.8248 101.61L93.4975 104.303L93.2268 107.003C93.145 107.903 93.0759 108.809 93.0256 109.709Z" fill="url(#paint7_linear_43_2431)"/>
<path d="M91.8234 109.709C91.364 107.777 90.7286 105.895 90.0049 104.045C89.6273 103.126 89.2244 102.22 88.7524 101.339C88.2804 100.464 87.7519 99.6022 87.0282 98.9163C87.6827 99.6651 88.1419 100.546 88.5824 101.427C89.0104 102.315 89.4195 103.215 89.7719 104.14C90.1495 105.052 90.4895 105.984 90.8293 106.909C91.1628 107.84 91.5024 108.771 91.8234 109.709Z" fill="url(#paint8_linear_43_2431)"/>
<path d="M90.6278 109.709C89.193 107.582 87.5757 105.581 85.8262 103.705C84.9389 102.78 84.0325 101.868 83.0382 101.05C82.0502 100.231 81.0056 99.4636 79.8351 98.9224C80.9553 99.5454 81.9497 100.357 82.9125 101.194C83.8691 102.038 84.7752 102.937 85.6437 103.875C86.531 104.794 87.3679 105.763 88.1923 106.739C89.0167 107.714 89.835 108.702 90.6217 109.709H90.6278Z" fill="url(#paint9_linear_43_2431)"/>
<path d="M89.4257 110.905C88.0097 109.143 86.3232 107.607 84.5045 106.254C82.6858 104.901 80.7224 103.743 78.652 102.818C76.5815 101.906 74.4228 101.157 72.195 100.741C71.0937 100.477 69.9609 100.376 68.8407 100.244C68.2806 100.162 67.7143 100.175 67.1479 100.156L65.4551 100.112C67.708 100.225 69.9672 100.402 72.1572 100.93C74.3661 101.383 76.5059 102.126 78.5512 103.045C80.6154 103.938 82.5661 105.096 84.3911 106.405C86.2161 107.72 87.9405 109.199 89.4257 110.898V110.905Z" fill="url(#paint10_linear_43_2431)"/>
<path d="M88.23 112.107C85.6938 110.905 83.0947 109.841 80.4579 108.878C77.8273 107.909 75.159 107.034 72.4593 106.248C69.7469 105.518 67.0097 104.895 64.2407 104.41C61.4654 103.963 58.6647 103.693 55.858 103.712C57.2613 103.787 58.6585 103.819 60.0493 104.007C61.4464 104.121 62.8245 104.372 64.209 104.574C66.9654 105.083 69.6904 105.732 72.3901 106.487C75.0899 107.242 77.7582 108.092 80.4013 109.029C81.7229 109.501 83.0319 109.992 84.3345 110.508C85.6435 111.012 86.9399 111.54 88.23 112.1V112.107Z" fill="url(#paint11_linear_43_2431)"/>
<path d="M88.23 113.302C85.2093 112.484 82.1509 111.811 79.0735 111.226C75.9962 110.647 72.9061 110.124 69.7973 109.747C66.6821 109.407 63.561 109.13 60.427 109.086C57.2993 109.042 54.1524 109.174 51.0625 109.709L53.3911 109.445C54.1651 109.344 54.9519 109.35 55.7323 109.3C56.1225 109.281 56.5126 109.25 56.9027 109.243H58.0732C58.8535 109.243 59.634 109.206 60.4144 109.256C63.5421 109.325 66.6569 109.633 69.7595 109.998C72.8683 110.345 75.9584 110.842 79.0357 111.389C80.5776 111.666 82.1067 111.968 83.6422 112.295C85.1778 112.604 86.7072 112.937 88.2238 113.302H88.23Z" fill="url(#paint12_linear_43_2431)"/>
<path d="M88.23 114.504C85.8323 114.127 83.4033 113.932 80.9741 113.856C78.5449 113.774 76.1157 113.812 73.6866 113.963C71.2574 114.127 68.8471 114.473 66.462 114.926C64.0706 115.367 61.7359 116.071 59.4578 116.902C60.622 116.562 61.761 116.141 62.9504 115.889C63.5419 115.744 64.1211 115.574 64.7126 115.448L66.4934 115.09C68.8785 114.668 71.2824 114.347 73.7053 114.209C76.1219 114.032 78.5448 113.963 80.9676 114.02C82.1822 114.051 83.3905 114.102 84.5988 114.183C85.8071 114.253 87.0218 114.353 88.2238 114.498L88.23 114.504Z" fill="url(#paint13_linear_43_2431)"/>
<path d="M88.23 115.7C85.4295 116.009 82.6795 116.701 80.0175 117.632C78.6897 118.117 77.3996 118.683 76.1473 119.344C74.9012 120.011 73.7305 120.804 72.6418 121.698C73.7871 120.873 74.9828 120.143 76.2352 119.514C77.4938 118.897 78.7777 118.331 80.0993 117.871C81.4145 117.393 82.7612 116.984 84.1142 116.625C85.4735 116.273 86.8393 115.952 88.2238 115.706L88.23 115.7Z" fill="url(#paint14_linear_43_2431)"/>
<path d="M89.4257 116.902C87.9216 118.003 86.5435 119.268 85.266 120.628C84.6367 121.32 84.0263 122.031 83.504 122.805C82.9754 123.573 82.4969 124.397 82.2389 125.297C82.5851 124.429 83.1138 123.661 83.6613 122.918C84.2151 122.176 84.8131 121.471 85.455 120.798C86.078 120.112 86.7324 119.457 87.3994 118.809C88.0665 118.167 88.7399 117.525 89.4321 116.902H89.4257Z" fill="url(#paint15_linear_43_2431)"/>
<path d="M91.8234 116.902C91.8926 117.248 91.8423 117.601 91.7794 117.947C91.7228 118.293 91.6537 118.639 91.5907 118.985C91.4586 119.677 91.3639 120.382 91.3136 121.093C91.2758 121.804 91.2948 122.516 91.3766 123.22C91.4521 123.925 91.6157 124.618 91.8234 125.297C91.7227 124.599 91.6032 123.906 91.5717 123.202C91.5276 122.503 91.5089 121.804 91.5655 121.106C91.597 120.407 91.6913 119.715 91.7794 119.017C91.8235 118.664 91.8739 118.318 91.9054 117.966C91.9243 117.613 91.9494 117.242 91.8298 116.908L91.8234 116.902Z" fill="url(#paint16_linear_43_2431)"/>
<path d="M95.4232 118.098C95.977 118.828 96.512 119.564 96.94 120.357C97.3868 121.144 97.7077 121.987 97.8209 122.893C97.865 122.434 97.8021 121.968 97.6888 121.521C97.5629 121.074 97.3676 120.646 97.16 120.237C96.6943 119.438 96.1342 118.696 95.4293 118.098H95.4232Z" fill="url(#paint17_linear_43_2431)"/>
<path d="M96.6189 116.902C97.2797 116.99 97.9154 117.217 98.5007 117.506C99.0922 117.802 99.6395 118.173 100.137 118.607C100.64 119.035 101.081 119.526 101.49 120.049C101.704 120.307 101.88 120.584 102.075 120.854L102.61 121.697C102.472 121.389 102.327 121.087 102.176 120.785C102 120.502 101.836 120.2 101.641 119.929C101.257 119.375 100.797 118.872 100.294 118.419C99.7717 117.991 99.2053 117.6 98.576 117.336C97.9529 117.072 97.2861 116.889 96.6127 116.902H96.6189Z" fill="url(#paint18_linear_43_2431)"/>
<path d="M99.0166 115.7C99.948 115.908 100.873 116.141 101.792 116.38C102.711 116.625 103.63 116.864 104.536 117.154C105.442 117.431 106.348 117.727 107.229 118.079C108.11 118.431 108.979 118.815 109.803 119.294C109.029 118.733 108.173 118.287 107.299 117.896C106.424 117.506 105.511 117.204 104.605 116.908C102.774 116.367 100.905 115.933 99.0105 115.694L99.0166 115.7Z" fill="url(#paint19_linear_43_2431)"/>
<path d="M89.4257 113.302C89.4257 113.743 89.6462 114.164 89.9546 114.479C90.2629 114.794 90.6405 115.039 91.0433 115.228C91.8425 115.612 92.7362 115.782 93.6235 115.813C94.5109 115.832 95.4232 115.725 96.2665 115.373C96.6881 115.196 97.091 114.957 97.4308 114.624C97.7706 114.297 98.0223 113.818 98.0349 113.309C98.0223 112.792 97.7706 112.32 97.4308 111.993C97.091 111.66 96.6818 111.421 96.2665 111.244C95.4232 110.892 94.5107 110.785 93.6171 110.804C92.7298 110.842 91.8361 111.011 91.0368 111.389C90.6341 111.578 90.2565 111.817 89.9481 112.138C89.6398 112.446 89.4259 112.868 89.4196 113.315L89.4257 113.302ZM89.4257 113.302C89.4383 112.862 89.6525 112.446 89.9672 112.138C90.2818 111.83 90.6657 111.609 91.0685 111.439C91.8803 111.106 92.7614 110.999 93.6235 111.018C94.4857 111.055 95.3541 111.219 96.1156 111.584C96.8645 111.93 97.5944 112.534 97.6007 113.302C97.6007 114.07 96.8645 114.68 96.1156 115.02C95.3541 115.385 94.4857 115.555 93.6235 115.587C92.7614 115.605 91.874 115.498 91.0685 115.165C90.6657 114.995 90.2818 114.775 89.9672 114.467C89.6525 114.164 89.4383 113.743 89.4257 113.302Z" fill="#FBF8F3"/>
<path d="M90.6278 113.302C90.6341 113.604 90.886 113.818 91.1188 113.969C91.3643 114.12 91.6347 114.234 91.9116 114.315C92.4654 114.492 93.0445 114.58 93.6235 114.611C94.2088 114.636 94.7941 114.611 95.3793 114.473C95.6688 114.397 95.9582 114.309 96.2351 114.146C96.4931 113.988 96.8141 113.749 96.8392 113.302C96.8141 112.855 96.4868 112.623 96.2351 112.459C95.9582 112.295 95.6688 112.207 95.3793 112.132C94.7941 111.993 94.2025 111.968 93.6235 111.993C93.0382 112.025 92.4591 112.113 91.9116 112.289C91.6347 112.371 91.3643 112.484 91.1188 112.635C90.8797 112.786 90.6341 113 90.6278 113.302ZM90.6278 113.302C90.6404 113 90.8923 112.793 91.1314 112.648C91.3769 112.503 91.6538 112.415 91.9307 112.346C92.4908 112.22 93.0633 112.188 93.6297 112.214C94.196 112.245 94.7561 112.333 95.2847 112.497C95.549 112.579 95.801 112.686 96.0212 112.818C96.2415 112.95 96.4113 113.139 96.405 113.296C96.405 113.453 96.2352 113.642 96.0212 113.774C95.801 113.913 95.549 114.02 95.2847 114.102C94.7561 114.271 94.196 114.36 93.6297 114.385C93.0633 114.41 92.4908 114.385 91.9307 114.253C91.6538 114.183 91.3769 114.095 91.1314 113.95C90.8923 113.806 90.6467 113.598 90.6278 113.296V113.302Z" fill="#FBF8F3"/>
<path d="M142.841 119.658C143.889 120.678 155.416 113.535 170.094 118.637C170.094 118.637 190.008 116.597 188.96 125.781C188.96 125.781 181.621 130.883 167.997 131.903C154.374 132.924 137.599 130.883 136.55 124.76H158.561L142.841 119.658Z" fill="url(#paint20_radial_43_2431)"/>
<path d="M76.2226 83.7873C76.2226 83.7873 80.4265 73.5922 82.2263 66.9907C84.0262 60.3954 87.6386 39.4015 104.441 29.8108C104.441 29.8108 111.641 26.8152 122.433 34.0208C122.433 34.0208 124.233 35.2229 125.435 33.423C126.637 31.6232 125.486 37.2555 125.486 37.2555L100.816 74.2026L76.8144 86.789L76.2165 83.7873H76.2226Z" fill="url(#paint21_radial_43_2431)"/>
<path d="M95.8827 4.53735C95.8827 4.53735 85.801 14.7638 79.7973 30.9058C73.7936 47.0415 74.9957 86.0213 74.9957 86.0213C74.9957 86.0213 100.2 60.4459 101.163 49.4266C102.126 38.4009 99.9606 10.4466 95.8827 4.53735Z" fill="url(#paint22_radial_43_2431)"/>
<path d="M97.9278 7.49492C102.446 16.3683 107.172 33.2907 101.169 49.4327C101.169 49.4327 94.8063 43.3219 95.5301 35.059L96.9712 18.5206C97.6886 10.2513 95.8887 4.54346 95.8887 4.54346C95.8887 4.54346 97.5124 6.6768 97.9278 7.49492Z" fill="url(#paint23_radial_43_2431)"/>
<path d="M79.8728 82.4594C79.8728 82.4594 50.6158 47.5575 38.9168 45.8269C27.2178 44.0962 13.2973 53.5611 9.1564 55.2162C5.30499 56.7581 -3.05176e-05 58.8726 -3.05176e-05 58.8726C-3.05176e-05 58.8726 1.12003 68.0354 24.4173 76.3361C47.7146 84.6368 73.7496 89.1805 79.8728 82.4657" fill="url(#paint24_radial_43_2431)"/>
<path d="M81.8364 84.7755C81.8364 84.7755 48.3188 86.3047 43.0514 84.1399C37.784 81.975 12.3095 73.1583 8.20637 68.3943C8.20637 68.3943 16.5385 67.205 18.4328 66.4435C20.3333 65.6884 22.9636 66.7645 23.6999 68.6084C24.4362 70.4523 27.0668 71.5283 27.0668 71.5283C27.0668 71.5283 35.3991 70.3391 41.4028 74.3415C47.4065 78.344 46.3744 87.0977 81.8364 84.7755Z" fill="url(#paint25_radial_43_2431)"/>
<path d="M41.5664 5.91528C41.5664 5.91528 59.8103 18.7471 62.0192 19.8043C64.2218 20.8616 81.4902 41.3837 79.7218 50.7291C77.9471 60.0807 79.4262 85.2659 79.4262 85.2659C79.4262 85.2659 47.5197 55.6881 45.6821 42.5668C43.8445 29.4456 41.5664 5.91528 41.5664 5.91528Z" fill="url(#paint26_radial_43_2431)"/>
<path d="M79.426 85.2598C79.426 85.2598 38.0925 47.0792 40.2259 25.6636C42.3592 4.24791 41.5662 5.90937 41.5662 5.90937C41.5662 5.90937 48.7909 13.4548 44.9961 15.714C41.2013 17.9733 47.0162 22.8002 49.8355 28.2312C52.6549 33.6622 50.8803 43.0139 52.9004 50.1C54.9205 57.1861 73.5984 80.4267 79.4196 85.2535L79.426 85.2598Z" fill="url(#paint27_radial_43_2431)"/>
<path d="M60.4773 15.154C60.4773 15.154 56.689 9.47121 62.3717 1.88794L66.1602 9.46494C68.0544 13.2534 66.1602 21.1703 66.1602 21.1703L60.4773 15.1477V15.154Z" fill="url(#paint28_radial_43_2431)"/>
<path d="M76.4494 11.5356C76.4494 11.5356 75.6374 3.78867 69.9547 1.89442C69.9547 1.89442 65.77 0.0694788 63.1268 13.2977C60.4837 26.526 76.4556 11.5356 76.4556 11.5356H76.4494Z" fill="url(#paint29_radial_43_2431)"/>
<path d="M79.4262 0C79.4262 0 79.4262 1.89429 71.8492 11.3718C64.2723 20.843 69.9548 32.2147 69.9548 32.2147L81.3268 15.1603C81.3268 15.1603 81.3266 5.68902 79.4324 0H79.4262Z" fill="url(#paint30_radial_43_2431)"/>
<path d="M81.3202 22.7374C81.3202 22.7374 77.5318 9.4713 69.9485 3.78857C69.9485 3.78857 58.5769 13.2597 58.5769 34.1027C58.5769 54.9457 75.6311 56.84 75.6311 56.84C75.6311 56.84 83.2083 37.8913 81.314 22.7311L81.3202 22.7374Z" fill="url(#paint31_radial_43_2431)"/>
<path d="M79.4261 0C79.4261 0 83.2145 9.47127 75.6376 15.1603C68.0606 20.843 62.3715 51.1634 71.8491 81.4776C71.8491 81.4776 104.057 62.5289 94.5862 37.8974C85.115 13.266 83.2145 9.47751 79.4261 0Z" fill="url(#paint32_radial_43_2431)"/>
<path d="M79.4263 17.0483C79.4263 17.0483 87.0031 28.42 88.8974 37.8912C90.7539 47.1799 92.686 75.7887 73.7372 87.1541C73.7372 87.1541 56.6828 68.2054 58.5771 51.1509C60.4713 34.0964 75.6313 26.5195 79.4198 17.042L79.4263 17.0483Z" fill="url(#paint33_radial_43_2431)"/>
<path d="M58.5831 9.47144C58.5831 9.47144 56.689 18.9427 52.9005 24.6317C49.112 30.3145 41.5287 68.2118 71.8492 85.2663C71.8492 85.2663 83.2208 47.3688 73.7433 34.1091C64.2721 20.8431 66.1664 17.0547 58.5831 9.47773V9.47144Z" fill="url(#paint34_radial_43_2431)"/>
<path d="M56.6891 35.9971C56.6891 35.9971 62.3716 43.5741 73.7433 49.2631C85.1151 54.9521 87.0093 79.5773 73.7433 87.1606C73.7433 87.1606 52.9006 90.9491 49.1121 68.2119C45.3236 45.4747 56.6891 43.5803 56.6891 36.0034V35.9971Z" fill="url(#paint35_radial_43_2431)"/>
<path d="M73.7431 87.1605C73.7431 87.1605 99.6208 83.8 108.626 66.4119C117.632 49.0176 126.039 36.425 126.039 36.425C126.039 36.425 115.838 47.8156 111.634 50.2133C107.437 52.611 94.8381 52.0068 87.0282 67.595C79.2247 83.1894 73.737 87.1542 73.737 87.1542L73.7431 87.1605Z" fill="url(#paint36_linear_43_2431)"/>
<defs>
<radialGradient id="paint0_radial_43_2431" cx="0" cy="0" r="1" gradientUnits="userSpaceOnUse" gradientTransform="translate(94.6967 111.187) rotate(-175.64) scale(35.9214 17.9607)">
<stop stop-color="#4C6F62"/>
<stop offset="0.63" stop-color="#62B497"/>
<stop offset="0.87" stop-color="#88C5AE"/>
</radialGradient>
<linearGradient id="paint1_linear_43_2431" x1="103.9" y1="104.31" x2="94.1268" y2="104.31" gradientUnits="userSpaceOnUse">
<stop stop-color="#FAF7F3"/>
<stop offset="0.39" stop-color="#FAD0B6"/>
<stop offset="1" stop-color="#F5EFB2"/>
</linearGradient>
<linearGradient id="paint2_linear_43_2431" x1="117.04" y1="104.309" x2="95.3289" y2="104.309" gradientUnits="userSpaceOnUse">
<stop stop-color="#FAF7F3"/>
<stop offset="0.39" stop-color="#FAD0B6"/>
<stop offset="1" stop-color="#F5EFB2"/>
</linearGradient>
<linearGradient id="paint3_linear_43_2431" x1="127.789" y1="104.914" x2="97.7391" y2="104.914" gradientUnits="userSpaceOnUse">
<stop stop-color="#FAF7F3"/>
<stop offset="0.39" stop-color="#FAD0B6"/>
<stop offset="1" stop-color="#F5EFB2"/>
</linearGradient>
<linearGradient id="paint4_linear_43_2431" x1="138.582" y1="107.311" x2="97.7641" y2="107.311" gradientUnits="userSpaceOnUse">
<stop stop-color="#FAF7F3"/>
<stop offset="0.39" stop-color="#FAD0B6"/>
<stop offset="1" stop-color="#F5EFB2"/>
</linearGradient>
<linearGradient id="paint5_linear_43_2431" x1="139.778" y1="111.049" x2="98.96" y2="111.049" gradientUnits="userSpaceOnUse">
<stop stop-color="#FAF7F3"/>
<stop offset="0.39" stop-color="#FAD0B6"/>
<stop offset="1" stop-color="#F5EFB2"/>
</linearGradient>
<linearGradient id="paint6_linear_43_2431" x1="120.627" y1="115.694" x2="99.0167" y2="115.694" gradientUnits="userSpaceOnUse">
<stop stop-color="#FAF7F3"/>
<stop offset="0.39" stop-color="#FAD0B6"/>
<stop offset="1" stop-color="#F5EFB2"/>
</linearGradient>
<linearGradient id="paint7_linear_43_2431" x1="94.347" y1="104.309" x2="92.8997" y2="104.309" gradientUnits="userSpaceOnUse">
<stop stop-color="#FAF7F3"/>
<stop offset="0.39" stop-color="#FAD0B6"/>
<stop offset="1" stop-color="#F5EFB2"/>
</linearGradient>
<linearGradient id="paint8_linear_43_2431" x1="91.9429" y1="104.31" x2="86.9401" y2="104.31" gradientUnits="userSpaceOnUse">
<stop stop-color="#FAF7F3"/>
<stop offset="0.39" stop-color="#FAD0B6"/>
<stop offset="1" stop-color="#F5EFB2"/>
</linearGradient>
<linearGradient id="paint9_linear_43_2431" x1="90.7285" y1="104.309" x2="79.7784" y2="104.309" gradientUnits="userSpaceOnUse">
<stop stop-color="#FAF7F3"/>
<stop offset="0.39" stop-color="#FAD0B6"/>
<stop offset="1" stop-color="#F5EFB2"/>
</linearGradient>
<linearGradient id="paint10_linear_43_2431" x1="89.5263" y1="105.512" x2="65.4488" y2="105.512" gradientUnits="userSpaceOnUse">
<stop stop-color="#FAF7F3"/>
<stop offset="0.39" stop-color="#FAD0B6"/>
<stop offset="1" stop-color="#F5EFB2"/>
</linearGradient>
<linearGradient id="paint11_linear_43_2431" x1="88.2803" y1="107.909" x2="55.858" y2="107.909" gradientUnits="userSpaceOnUse">
<stop stop-color="#FAF7F3"/>
<stop offset="0.39" stop-color="#FAD0B6"/>
<stop offset="1" stop-color="#F5EFB2"/>
</linearGradient>
<linearGradient id="paint12_linear_43_2431" x1="88.23" y1="111.188" x2="51.0122" y2="111.188" gradientUnits="userSpaceOnUse">
<stop stop-color="#FAF7F3"/>
<stop offset="0.39" stop-color="#FAD0B6"/>
<stop offset="1" stop-color="#F5EFB2"/>
</linearGradient>
<linearGradient id="paint13_linear_43_2431" x1="88.23" y1="115.354" x2="59.3949" y2="115.354" gradientUnits="userSpaceOnUse">
<stop stop-color="#FAF7F3"/>
<stop offset="0.39" stop-color="#FAD0B6"/>
<stop offset="1" stop-color="#F5EFB2"/>
</linearGradient>
<linearGradient id="paint14_linear_43_2431" x1="88.23" y1="118.696" x2="72.5474" y2="118.696" gradientUnits="userSpaceOnUse">
<stop stop-color="#FAF7F3"/>
<stop offset="0.39" stop-color="#FAD0B6"/>
<stop offset="1" stop-color="#F5EFB2"/>
</linearGradient>
<linearGradient id="paint15_linear_43_2431" x1="89.5014" y1="121.093" x2="82.1131" y2="121.093" gradientUnits="userSpaceOnUse">
<stop stop-color="#FAF7F3"/>
<stop offset="0.39" stop-color="#FAD0B6"/>
<stop offset="1" stop-color="#F5EFB2"/>
</linearGradient>
<linearGradient id="paint16_linear_43_2431" x1="92.0124" y1="121.093" x2="91.2821" y2="121.093" gradientUnits="userSpaceOnUse">
<stop stop-color="#FAF7F3"/>
<stop offset="0.39" stop-color="#FAD0B6"/>
<stop offset="1" stop-color="#F5EFB2"/>
</linearGradient>
<linearGradient id="paint17_linear_43_2431" x1="97.9405" y1="120.495" x2="95.3288" y2="120.495" gradientUnits="userSpaceOnUse">
<stop stop-color="#FAF7F3"/>
<stop offset="0.39" stop-color="#FAD0B6"/>
<stop offset="1" stop-color="#F5EFB2"/>
</linearGradient>
<linearGradient id="paint18_linear_43_2431" x1="102.723" y1="119.3" x2="96.619" y2="119.3" gradientUnits="userSpaceOnUse">
<stop stop-color="#FAF7F3"/>
<stop offset="0.39" stop-color="#FAD0B6"/>
<stop offset="1" stop-color="#F5EFB2"/>
</linearGradient>
<linearGradient id="paint19_linear_43_2431" x1="109.879" y1="117.5" x2="98.9979" y2="117.5" gradientUnits="userSpaceOnUse">
<stop stop-color="#FAF7F3"/>
<stop offset="0.39" stop-color="#FAD0B6"/>
<stop offset="1" stop-color="#F5EFB2"/>
</linearGradient>
<radialGradient id="paint20_radial_43_2431" cx="0" cy="0" r="1" gradientUnits="userSpaceOnUse" gradientTransform="translate(162.774 124.468) rotate(180) scale(19.3644 18.8475)">
<stop stop-color="#4C6F62"/>
<stop offset="1" stop-color="#62B497"/>
</radialGradient>
<radialGradient id="paint21_radial_43_2431" cx="0" cy="0" r="1" gradientUnits="userSpaceOnUse" gradientTransform="translate(93.3631 61.5148) rotate(123.72) scale(26.9599 26.9599)">
<stop stop-color="#FBF8F3"/>
<stop offset="0.06" stop-color="#FBEBDF"/>
<stop offset="0.56" stop-color="#FAD0B6"/>
<stop offset="1" stop-color="#F3A096"/>
</radialGradient>
<radialGradient id="paint22_radial_43_2431" cx="0" cy="0" r="1" gradientUnits="userSpaceOnUse" gradientTransform="translate(92.8809 52.6786) rotate(-175.02) scale(25.7985 31.2843)">
<stop stop-color="#FBF8F3"/>
<stop offset="0.06" stop-color="#FBEBDF"/>
<stop offset="0.56" stop-color="#FAD0B6"/>
<stop offset="1" stop-color="#F5B0A1"/>
</radialGradient>
<radialGradient id="paint23_radial_43_2431" cx="0" cy="0" r="1" gradientUnits="userSpaceOnUse" gradientTransform="translate(108.889 44.6765) rotate(-175.02) scale(37.4055 45.3597)">
<stop stop-color="#FBF8F3"/>
<stop offset="0.06" stop-color="#FBEBDF"/>
<stop offset="0.2" stop-color="#FAD0B6"/>
<stop offset="0.52" stop-color="#EE7F80"/>
</radialGradient>
<radialGradient id="paint24_radial_43_2431" cx="0" cy="0" r="1" gradientUnits="userSpaceOnUse" gradientTransform="translate(40.7686 71.4743) rotate(-21.77) scale(30.1266 29.4419)">
<stop stop-color="#FBF8F3"/>
<stop offset="0.06" stop-color="#FBEBDF"/>
<stop offset="0.56" stop-color="#FAD0B6"/>
<stop offset="1" stop-color="#F3A096"/>
</radialGradient>
<radialGradient id="paint25_radial_43_2431" cx="0" cy="0" r="1" gradientUnits="userSpaceOnUse" gradientTransform="translate(45.9798 77.6018) rotate(-21.7699) scale(26.8343 26.2244)">
<stop stop-color="#FBF8F3"/>
<stop offset="0.06" stop-color="#FBEBDF"/>
<stop offset="0.2" stop-color="#FAD0B6"/>
<stop offset="0.52" stop-color="#EE7F80"/>
</radialGradient>
<radialGradient id="paint26_radial_43_2431" cx="0" cy="0" r="1" gradientUnits="userSpaceOnUse" gradientTransform="translate(51.8914 49.2704) rotate(-154.38) scale(35.5918 26.8618)">
<stop stop-color="#FBF8F3"/>
<stop offset="0.06" stop-color="#FBEBDF"/>
<stop offset="0.56" stop-color="#FAD0B6"/>
<stop offset="1" stop-color="#F3A096"/>
</radialGradient>
<radialGradient id="paint27_radial_43_2431" cx="0" cy="0" r="1" gradientUnits="userSpaceOnUse" gradientTransform="translate(51.9012 49.2502) rotate(-154.38) scale(35.6085 26.8743)">
<stop stop-color="#FBF8F3"/>
<stop offset="0.06" stop-color="#FBEBDF"/>
<stop offset="0.2" stop-color="#FAD0B6"/>
<stop offset="0.52" stop-color="#EE7F80"/>
</radialGradient>
<radialGradient id="paint28_radial_43_2431" cx="0" cy="0" r="1" gradientUnits="userSpaceOnUse" gradientTransform="translate(63.1206 14.6631) rotate(180) scale(8.62172 8.62168)">
<stop stop-color="#FBF8F3"/>
<stop offset="0.06" stop-color="#FBEBDF"/>
<stop offset="0.56" stop-color="#FAD0B6"/>
<stop offset="1" stop-color="#F3A096"/>
</radialGradient>
<radialGradient id="paint29_radial_43_2431" cx="0" cy="0" r="1" gradientUnits="userSpaceOnUse" gradientTransform="translate(69.6339 13.0271) rotate(180) scale(10.1193 10.1194)">
<stop stop-color="#FBF8F3"/>
<stop offset="0.06" stop-color="#FBEBDF"/>
<stop offset="0.56" stop-color="#FAD0B6"/>
<stop offset="1" stop-color="#F3A096"/>
</radialGradient>
<radialGradient id="paint30_radial_43_2431" cx="0" cy="0" r="1" gradientUnits="userSpaceOnUse" gradientTransform="translate(74.6119 21.3338) rotate(180) scale(14.5373 14.5372)">
<stop stop-color="#FBF8F3"/>
<stop offset="0.06" stop-color="#FBEBDF"/>
<stop offset="0.56" stop-color="#FAD0B6"/>
<stop offset="1" stop-color="#F3A096"/>
</radialGradient>
<radialGradient id="paint31_radial_43_2431" cx="0" cy="0" r="1" gradientUnits="userSpaceOnUse" gradientTransform="translate(70.1059 38.9296) rotate(180) scale(24.2286 24.2287)">
<stop stop-color="#FBF8F3"/>
<stop offset="0.06" stop-color="#FBEBDF"/>
<stop offset="0.64" stop-color="#FAD0B6"/>
<stop offset="1" stop-color="#EE7F80"/>
</radialGradient>
<radialGradient id="paint32_radial_43_2431" cx="0" cy="0" r="1" gradientUnits="userSpaceOnUse" gradientTransform="translate(76.1787 57.8531) rotate(180) scale(64.8509 64.8511)">
<stop stop-color="#FBF8F3"/>
<stop offset="0.06" stop-color="#FBEBDF"/>
<stop offset="0.2" stop-color="#FAD0B6"/>
<stop offset="0.97" stop-color="#EE7F80"/>
</radialGradient>
<radialGradient id="paint33_radial_43_2431" cx="0" cy="0" r="1" gradientUnits="userSpaceOnUse" gradientTransform="translate(81.8176 71.503) rotate(180) scale(33.1774 33.1776)">
<stop stop-color="#FBF8F3"/>
<stop offset="0.06" stop-color="#FBEBDF"/>
<stop offset="0.2" stop-color="#FAD0B6"/>
<stop offset="1" stop-color="#EE7F80"/>
</radialGradient>
<radialGradient id="paint34_radial_43_2431" cx="0" cy="0" r="1" gradientUnits="userSpaceOnUse" gradientTransform="translate(64.2092 82.6798) rotate(180) scale(56.5941 56.5944)">
<stop stop-color="#FBF8F3"/>
<stop offset="0.06" stop-color="#FBEBDF"/>
<stop offset="0.55" stop-color="#FAD0B6"/>
<stop offset="0.97" stop-color="#EE7F80"/>
</radialGradient>
<radialGradient id="paint35_radial_43_2431" cx="0" cy="0" r="1" gradientUnits="userSpaceOnUse" gradientTransform="translate(51.472 86.8396) rotate(180) scale(73.5855 73.5861)">
<stop stop-color="#FBF8F3"/>
<stop offset="0.06" stop-color="#FBEBDF"/>
<stop offset="0.2" stop-color="#FAD0B6"/>
<stop offset="0.56" stop-color="#EE7F80"/>
</radialGradient>
<linearGradient id="paint36_linear_43_2431" x1="99.6988" y1="91.8919" x2="99.8931" y2="30.6683" gradientUnits="userSpaceOnUse">
<stop stop-color="#FBEBDF"/>
<stop offset="0.2" stop-color="#FAD0B6"/>
<stop offset="0.52" stop-color="#EE7F80"/>
</linearGradient>
</defs>
</svg>
