<svg width="140" height="147" viewBox="0 0 140 147" fill="none" xmlns="http://www.w3.org/2000/svg">
<path d="M55.3923 84.3285L56.5578 83.4453C56.5578 83.4453 63.191 87.3196 61.8252 99.8712C60.4594 112.423 63.5279 117.695 63.5279 117.695L60.951 118.938C60.951 118.938 60.7326 115.186 59.7811 112.109C58.8296 109.031 59.9313 101.428 59.8585 100.176C59.7856 98.9243 60.5505 95.0181 59.3486 91.4215C58.8752 90.0057 58.6793 89.0086 58.3971 88.3439C57.96 87.3287 57.1405 86.6003 55.4014 84.3239L55.3923 84.3285Z" fill="url(#paint0_linear_43_2430)"/>
<path d="M21.8166 79.6527C21.8166 79.6527 14.5689 86.3452 12.3381 81.8836C12.3381 81.8836 6.76108 83.5543 3.97487 80.2127C1.18866 76.8665 2.30409 73.5203 2.30409 73.5203C2.30409 73.5203 -0.48219 71.8495 0.0732311 69.0587C0.628652 66.2725 1.74412 66.828 1.74412 66.828C1.74412 66.828 0.0732845 64.5972 2.8595 63.4818C2.8595 63.4818 3.97488 59.0202 8.99188 57.9048C8.99188 57.9048 10.6627 55.1187 14.0089 54.0033C14.0089 54.0033 15.6797 51.217 19.0259 51.217C19.0259 51.217 21.2566 48.4308 27.389 48.4308C27.389 48.4308 32.406 41.1831 43 42.8539C43 42.8539 44.1154 40.623 46.9017 41.7384C46.9017 41.7384 49.1325 36.1615 56.3803 38.9522C56.3803 38.9522 56.3802 37.2814 59.7264 38.3968C59.7264 38.3968 60.8418 35.6105 65.3034 36.166C65.3034 36.166 68.0896 33.3797 72.5512 36.7214C72.5512 36.7214 79.799 35.606 84.2606 40.623C84.2606 40.623 90.9529 48.9862 86.4913 55.6786C82.0297 62.371 80.3589 63.4863 77.5727 63.4863C74.7865 63.4863 73.1111 62.3709 71.9957 62.9309C70.8803 63.4909 61.9618 79.6573 55.8249 83.5589C49.6879 87.4605 32.406 79.0973 21.8166 79.6573V79.6527Z" fill="url(#paint1_radial_43_2430)"/>
<g opacity="0.57">
<path d="M19.0259 52.3325C19.0259 52.3325 20.6967 54.0034 22.3721 60.1403C22.3721 60.1403 16.2397 59.0249 13.4535 56.7941" stroke="url(#paint2_linear_43_2430)" stroke-width="0.4" stroke-miterlimit="10"/>
<path d="M22.3718 60.1401C22.3718 60.1401 39.0982 72.9649 54.1538 79.0972" stroke="url(#paint3_linear_43_2430)" stroke-width="0.4" stroke-miterlimit="10"/>
<path d="M13.2486 57.0215C13.2486 57.0215 15.1288 58.3782 17.7192 64.0689C17.7192 64.0689 10.3623 62.9763 7.32111 61.2555" stroke="url(#paint4_linear_43_2430)" stroke-width="0.4" stroke-miterlimit="10"/>
<path d="M17.7192 64.0688C17.7192 64.0688 27.389 74.0755 54.1539 79.0971" stroke="url(#paint5_linear_43_2430)" stroke-width="0.4" stroke-miterlimit="10"/>
<path d="M6.20564 63.4814C6.20564 63.4814 12.4245 65.2206 16.2397 70.1739C16.2397 70.1739 6.97962 70.6929 3.62433 69.7095" stroke="url(#paint6_linear_43_2430)" stroke-width="0.4" stroke-miterlimit="10"/>
<path d="M54.1539 79.0929C38.2698 79.1384 16.2396 70.1743 16.2396 70.1743" stroke="url(#paint7_linear_43_2430)" stroke-width="0.4" stroke-miterlimit="10"/>
<path d="M3.41479 71.2896C3.41479 71.2896 8.43181 71.2896 13.4488 75.7512C18.4658 80.2127 48.5723 78.5373 54.1493 79.6527" stroke="url(#paint8_linear_43_2430)" stroke-width="0.4" stroke-miterlimit="10"/>
<path d="M4.53018 76.8665C4.53018 76.8665 7.4484 78.3188 14.0725 76.1973" stroke="url(#paint9_linear_43_2430)" stroke-width="0.4" stroke-miterlimit="10"/>
<path d="M22.3721 51.2169C22.3721 51.2169 21.8167 54.5631 32.4061 59.0246C32.4061 59.0246 30.7353 49.5461 29.06 48.9907" stroke="url(#paint10_linear_43_2430)" stroke-width="0.4" stroke-miterlimit="10"/>
<path d="M54.154 78.5373C54.154 78.5373 34.0815 62.3663 32.4106 59.0247" stroke="url(#paint11_linear_43_2430)" stroke-width="0.4" stroke-miterlimit="10"/>
<path d="M30.1798 47.8707C30.1798 47.8707 33.526 54.0032 39.6584 56.234C39.6584 56.234 39.6583 48.4262 38.5429 46.2" stroke="url(#paint12_linear_43_2430)" stroke-width="0.4" stroke-miterlimit="10"/>
<path d="M54.7094 77.9775C54.7094 77.9775 42.4447 60.6957 39.654 56.2341" stroke="url(#paint13_linear_43_2430)" stroke-width="0.4" stroke-miterlimit="10"/>
<path d="M41.3292 43.4141C41.3292 43.4141 41.8846 50.1064 47.4616 55.6788C47.4616 55.6788 49.6923 47.3157 48.5769 43.4141" stroke="url(#paint14_linear_43_2430)" stroke-width="0.4" stroke-miterlimit="10"/>
<path d="M57.4955 40.0676C57.4955 40.0676 53.5939 50.6616 54.7093 55.6786C55.8247 60.6956 55.8248 78.5374 55.8248 78.5374C54.7094 66.828 47.498 55.5466 47.498 55.5466" stroke="url(#paint15_linear_43_2430)" stroke-width="0.4" stroke-miterlimit="10"/>
<path d="M68.6496 36.7214C68.6496 36.7214 66.2639 39.0615 68.2489 45.0847C68.2489 45.0847 70.8804 39.5077 73.3434 37.2132" stroke="url(#paint16_linear_43_2430)" stroke-width="0.4" stroke-miterlimit="10"/>
<path d="M68.2488 45.0847C68.2488 45.0847 60.8417 61.2511 56.9401 76.8621" stroke="url(#paint17_linear_43_2430)" stroke-width="0.4" stroke-miterlimit="10"/>
<path d="M73.6211 37.2859C73.6211 37.2859 72.8972 39.4849 73.9352 45.6674C73.9352 45.6674 78.3695 41.5563 79.7945 38.3923" stroke="url(#paint18_linear_43_2430)" stroke-width="0.4" stroke-miterlimit="10"/>
<path d="M73.9396 45.6672C73.9396 45.6672 66.9787 54.5585 56.9401 76.8619" stroke="url(#paint19_linear_43_2430)" stroke-width="0.4" stroke-miterlimit="10"/>
<path d="M82.0296 38.9524C82.0296 38.9524 78.6835 41.7386 76.4527 46.7601C76.4527 46.7601 81.2512 43.4504 85.3713 42.8586" stroke="url(#paint20_linear_43_2430)" stroke-width="0.4" stroke-miterlimit="10"/>
<path d="M57.4956 76.8666C63.0726 62.371 76.4527 46.76 76.4527 46.76" stroke="url(#paint21_linear_43_2430)" stroke-width="0.4" stroke-miterlimit="10"/>
<path d="M86.4913 46.7556C86.4913 46.7556 82.0297 47.3111 80.3589 51.2172C80.3589 51.2172 83.705 49.5464 87.6066 51.2172" stroke="url(#paint22_linear_43_2430)" stroke-width="0.4" stroke-miterlimit="10"/>
<path d="M80.3588 51.217C80.3588 51.217 64.7478 55.6787 58.0555 76.8621" stroke="url(#paint23_linear_43_2430)" stroke-width="0.4" stroke-miterlimit="10"/>
<path d="M83.1451 60.1402L79.799 56.2385C79.799 56.2385 83.1451 54.0077 85.9313 56.2385" stroke="url(#paint24_linear_43_2430)" stroke-width="0.4" stroke-miterlimit="10"/>
<path d="M79.7989 56.2338C79.7989 56.2338 70.3203 52.8877 58.611 76.8618" stroke="url(#paint25_linear_43_2430)" stroke-width="0.4" stroke-miterlimit="10"/>
<path d="M63.0725 38.3924C63.0725 38.3924 63.0726 36.7216 61.9572 45.6402C61.9572 45.6402 61.4017 40.6232 59.1709 39.5078" stroke="url(#paint26_linear_43_2430)" stroke-width="0.4" stroke-miterlimit="10"/>
<path d="M56.3847 77.9775C56.3847 77.9775 63.0771 53.4433 61.9617 46.1956" stroke="url(#paint27_linear_43_2430)" stroke-width="0.4" stroke-miterlimit="10"/>
<path d="M49.6924 41.7385C49.6924 41.7385 51.9232 50.1017 54.7094 52.8879" stroke="url(#paint28_linear_43_2430)" stroke-width="0.4" stroke-miterlimit="10"/>
</g>
<path d="M57.4956 83.9094C57.4956 83.9094 64.7435 77.7769 73.1066 63.8368C73.1066 63.8368 73.6621 64.9522 72.5512 62.7214C71.4404 60.4906 70.3204 57.7044 68.0896 59.3752C68.0896 59.3752 64.7435 56.589 61.9572 64.3922C61.9572 64.3922 58.611 62.1614 58.0556 63.8368C58.0556 63.8368 54.154 64.3922 54.154 67.183C54.154 67.183 51.9232 68.2984 52.4832 71.0846C52.4832 71.0846 47.4662 67.7384 45.2354 69.9692C45.2354 69.9692 42.4492 70.5246 42.4492 72.2C42.4492 72.2 36.8722 72.7554 37.4322 75.5461C37.4322 75.5461 36.3168 78.8924 34.086 78.8924C31.8553 78.8924 23.4921 79.4478 23.4921 79.4478C23.4921 79.4478 32.9706 81.1186 36.3168 82.234C39.663 83.3494 52.4878 87.251 57.5048 83.9048L57.4956 83.9094Z" fill="url(#paint29_radial_43_2430)"/>
<path d="M37.4277 74.6355C37.4277 74.6355 38.5431 77.9817 35.7569 79.0971C32.9707 80.2125 31.2953 76.8663 30.1799 79.0971C29.0645 81.3279 25.7184 84.1141 24.0475 83.5587C22.3767 83.0033 21.2613 81.3279 21.8167 79.6571V79.1017C21.8167 79.1017 28.5091 78.5462 37.4277 74.6401V74.6355Z" fill="url(#paint30_radial_43_2430)"/>
<path d="M93.716 51.4448C93.716 51.4448 88.4167 73.4021 86.9006 84.761C85.3846 96.1198 83.8732 113.534 83.8732 122.621L80.0854 123.376C80.0854 123.376 83.0537 94.2077 84.6289 84.761C86.1449 75.6739 91.4443 51.4448 91.4443 51.4448H93.716Z" fill="url(#paint31_linear_43_2430)"/>
<path d="M91.1527 52.2687C91.1527 52.2687 92.2636 53.3796 90.0419 61.1646C87.8157 68.9496 88.2163 72.4459 93.379 74.5083C98.9378 76.7345 101.164 77.8454 101.164 77.8454C101.164 77.8454 103.39 73.3975 104.501 72.2866C105.612 71.1758 107.838 64.5016 104.501 58.9429C101.164 53.3841 94.4898 54.495 94.4898 52.2687C94.4898 50.0425 91.1527 52.2687 91.1527 52.2687Z" fill="url(#paint32_radial_43_2430)"/>
<path d="M133.415 47.8207C133.415 47.8207 134.799 40.0356 125.63 40.0356C121.182 40.0356 120.071 41.1465 108.949 50.0469C108.949 50.0469 124.519 48.9361 133.415 47.8207Z" fill="url(#paint33_radial_43_2430)"/>
<path d="M95.6007 52.2686C95.6007 52.2686 100.049 56.7166 111.171 55.6057C122.293 54.4949 128.967 46.7099 133.415 47.8207C133.415 47.8207 130.601 45.335 125.63 47.8207C122.848 49.2092 118.956 47.8206 113.397 45.5944C107.838 43.3682 98.9378 48.9315 95.6007 52.2686Z" fill="url(#paint34_radial_43_2430)"/>
<path d="M90.042 52.2688C90.042 52.2688 84.4832 51.1579 81.1461 50.0425C77.8091 48.9271 67.8023 44.4838 58.9019 48.9317C58.9019 48.9317 55.5649 51.1579 55.5649 57.8276C55.5649 57.8276 55.565 58.9384 54.4541 58.9384C53.3433 58.9384 56.0793 60.0537 56.0793 60.0537H78.9245L91.1574 53.3751L90.0466 52.2643L90.042 52.2688Z" fill="url(#paint35_radial_43_2430)"/>
<path d="M91.1528 53.3797C91.1528 53.3797 83.3678 62.2756 73.3566 61.1648C63.3453 60.0539 55.5604 60.0538 55.5604 60.0538C55.5604 60.0538 63.3454 58.943 65.5716 57.8277C67.7979 56.7123 71.1304 51.1535 80.0308 52.2689C88.9266 53.3798 91.1528 53.3797 91.1528 53.3797Z" fill="url(#paint36_linear_43_2430)"/>
<path d="M86.7048 50.047C86.7048 50.047 77.809 27.8029 72.2457 24.4658C66.6824 21.1287 54.4495 23.355 52.2278 22.2396C50.0061 21.1242 51.117 21.1287 51.117 21.1287C51.117 21.1287 49.8376 26.1366 59.9308 35.3102C70.024 44.4837 82.2569 52.2687 86.7048 50.0424" fill="url(#paint37_radial_43_2430)"/>
<path d="M87.2284 51.6633C87.2284 51.6633 72.2457 46.71 70.0195 44.4838C67.7932 42.2575 54.4494 31.1401 53.3386 27.803C53.3386 27.803 57.7866 28.9138 58.8974 28.9138C60.0083 28.9138 61.1236 30.0246 61.1236 31.14C61.1236 32.2554 62.2344 33.3663 62.2344 33.3663C62.2344 33.3663 66.6824 34.4771 68.9087 37.8142C71.1349 41.1513 68.8495 45.499 87.2284 51.6633Z" fill="url(#paint38_radial_43_2430)"/>
<path d="M96.9529 49.1682C96.9529 49.1682 104.579 28.4264 110.06 25.5764C115.541 22.7265 124.351 24.4656 126.741 24.4656C128.967 24.4656 132.026 24.4656 132.026 24.4656C132.026 24.4656 133.287 28.7451 123.34 36.5802C113.392 44.4153 101.337 51.0666 96.9529 49.1682Z" fill="url(#paint39_radial_43_2430)"/>
<path d="M96.434 50.5478C96.434 50.5478 113.424 45.2713 115.619 43.3683C117.813 41.4699 128.739 33.0111 129.837 30.1611C129.837 30.1611 125.452 31.1127 124.355 31.1127C123.258 31.1127 122.161 32.0641 122.161 33.0111C122.161 33.958 121.064 34.9095 121.064 34.9095C121.064 34.9095 116.68 35.861 114.485 38.711C112.291 41.5609 114.544 45.2759 96.4294 50.5433L96.434 50.5478Z" fill="url(#paint40_radial_43_2430)"/>
<path d="M110.06 2.22171C110.06 2.22171 110.06 8.89581 113.397 14.4546C116.734 20.0133 105.612 42.2575 95.6007 51.1534C95.6007 51.1534 87.8157 32.2462 95.6007 21.1241C103.386 10.0021 107.834 1.10631 110.06 2.21715V2.22171Z" fill="url(#paint41_radial_43_2430)"/>
<path d="M110.06 2.22168C110.06 2.22168 106.723 5.55874 107.834 7.78043C108.945 10.0021 112.282 11.1175 113.393 14.4545C113.393 14.4545 110.055 6.6696 110.055 2.22168H110.06Z" fill="url(#paint42_radial_43_2430)"/>
<path d="M78.2871 0C78.2871 0 78.287 6.67421 74.9499 12.233C71.6129 17.7917 82.735 40.0358 92.7462 48.9317C92.7462 48.9317 96.7162 23.3505 88.9312 12.233C83.7412 4.81826 80.1946 0.740562 78.2916 0H78.2871Z" fill="url(#paint43_radial_43_2430)"/>
<path d="M78.287 0C78.287 0 80.0307 3.33706 78.9199 5.55874C77.809 7.78043 76.6935 10.0067 74.9499 12.233C74.9499 12.233 78.287 4.44792 78.287 0Z" fill="url(#paint44_radial_43_2430)"/>
<path d="M125.63 18.907C125.63 18.907 115.619 21.1332 114.508 21.1332C113.397 21.1332 102.275 27.8074 101.164 33.3661C100.053 38.9249 94.49 52.2732 94.49 52.2732C94.49 52.2732 113.397 44.4882 116.734 37.8141C120.071 31.1399 125.63 18.907 125.63 18.907Z" fill="url(#paint45_radial_43_2430)"/>
<path d="M94.49 52.2687C94.49 52.2687 118.956 42.2574 122.293 30.0245C125.63 17.7916 125.63 18.9025 125.63 18.9025C125.63 18.9025 121.182 21.1287 122.293 23.3504C123.404 25.5721 120.067 26.6875 117.845 28.9091C115.623 31.1308 114.508 36.6941 112.286 40.0312C110.064 43.3683 97.8271 51.1533 94.49 52.2642V52.2687Z" fill="url(#paint46_radial_43_2430)"/>
<path d="M92.2635 44.4838C92.2635 44.4838 86.7048 24.4658 91.1527 15.57C95.6007 6.67415 100.049 6.67424 103.386 2.22632C103.386 2.22632 104.497 6.67421 108.944 13.3484C113.392 20.0225 97.8223 41.1512 95.6007 45.5991C93.379 50.0471 92.2635 44.4883 92.2635 44.4883V44.4838Z" fill="url(#paint47_radial_43_2430)"/>
<path d="M83.3678 15.5698C83.3678 15.5698 87.8157 20.0178 90.0419 26.692C92.2682 33.3661 90.0419 48.9361 90.0419 48.9361C90.0419 48.9361 78.9199 37.814 78.9199 33.3661C78.9199 28.9182 81.1461 17.7961 83.3678 15.5698Z" fill="url(#paint48_radial_43_2430)"/>
<path d="M82.257 16.6808C79.6939 20.077 76.6983 26.6919 78.92 33.3615C78.92 33.3615 82.257 31.1353 82.257 27.8028V21.1286C82.257 17.7915 83.3679 15.5698 83.3679 15.5698C83.3679 15.5698 82.4937 16.3666 82.257 16.6808Z" fill="url(#paint49_radial_43_2430)"/>
<path d="M68.9087 18.907C68.9087 18.907 68.9086 22.244 73.3565 24.4657C77.8044 26.6874 83.3679 28.9137 83.3679 37.8095C83.3679 46.7054 92.2636 53.3795 92.2636 53.3795C92.2636 53.3795 76.6936 50.0424 73.3565 40.0357C70.0194 30.029 68.9087 23.3549 68.9087 18.907Z" fill="url(#paint50_radial_43_2430)"/>
<path d="M83.7913 38.7791C82.9263 38.3056 80.8366 35.8245 82.8079 34.8411C82.8079 34.8411 81.8246 32.8699 83.7913 31.8865C83.7913 31.8865 82.8079 30.9032 84.7747 30.9032C84.7747 30.9032 84.7747 28.9318 86.746 28.9318C86.746 28.9318 88.7173 26.9605 89.7006 28.9318C89.7006 28.9318 92.6553 25.9772 93.6386 28.9318C93.6386 28.9318 94.622 25.9772 96.5933 28.9318C96.5933 28.9318 97.5767 26.9605 98.5646 28.9318C99.5525 30.9031 98.5646 28.9318 98.5646 28.9318C98.5646 28.9318 101.519 29.9152 100.536 31.8865C100.536 31.8865 102.507 31.8865 101.519 33.8578C101.519 33.8578 103.491 36.8125 101.519 36.8125C99.548 36.8125 94.622 44.693 83.7868 38.7837L83.7913 38.7791Z" fill="url(#paint51_radial_43_2430)"/>
<path d="M92.1635 41.7341C96.2443 41.7341 99.5524 39.0885 99.5524 35.8248C99.5524 32.5612 96.2443 29.9155 92.1635 29.9155C88.0827 29.9155 84.7746 32.5612 84.7746 35.8248C84.7746 39.0885 88.0827 41.7341 92.1635 41.7341Z" fill="url(#paint52_radial_43_2430)"/>
<path d="M112.282 22.2397C112.282 22.2397 110.055 21.1288 111.171 24.4659C112.286 27.803 110.06 23.3551 107.834 24.4659C105.607 25.5767 98.9378 34.4772 96.7115 37.8097C94.4853 41.1422 93.3745 52.2689 93.3745 52.2689C93.3745 52.2689 101.16 53.3797 107.834 44.4838C114.508 35.588 114.508 25.5768 112.282 22.2397Z" fill="url(#paint53_radial_43_2430)"/>
<path d="M92.2635 52.2686C92.2635 52.2686 80.0306 50.0423 80.0306 40.0356C80.0306 30.0289 87.8156 33.3615 87.8156 33.3615C87.8156 33.3615 88.9265 32.2507 90.0419 33.3615C90.0419 33.3615 92.2681 31.1352 93.379 35.5877C93.379 35.5877 95.6052 33.3615 98.9377 35.5877C102.275 37.8139 102.275 42.2619 102.275 42.2619C102.275 42.2619 99.0607 54.4311 91.7719 52.7967" fill="url(#paint54_radial_43_2430)"/>
<path d="M56.2293 118.897C62.6166 117.617 59.8123 116.229 70.2788 115.063C81.7742 113.784 76.6661 115.063 98.3821 116.343C120.394 117.636 117.544 112.509 135.427 122.73C153.31 132.951 103.49 147 94.5488 147C85.6074 147 65.1661 136.779 60.058 138.059C54.95 139.338 30.6753 132.951 37.0627 124.009C43.45 115.068 53.9666 119.352 56.2247 118.901L56.2293 118.897Z" fill="url(#paint55_radial_43_2430)"/>
<path d="M77.9453 117.622C78.865 118.519 79.7437 119.452 80.6132 120.394C81.4828 121.337 82.3341 122.293 83.19 123.253C84.0322 124.219 84.8745 125.184 85.7076 126.163C86.5362 127.141 87.3556 128.125 88.166 129.122C87.3055 128.17 86.4497 127.214 85.6029 126.254L83.0579 123.372L80.5131 120.49C79.6617 119.534 78.8149 118.569 77.9453 117.626V117.622Z" fill="url(#paint56_linear_43_2430)"/>
<path d="M63.8914 117.622C65.9264 118.323 67.9432 119.088 69.9373 119.898C71.9359 120.704 73.9162 121.551 75.8784 122.443C77.8315 123.349 79.7527 124.328 81.633 125.384C83.5041 126.445 85.3525 127.601 86.8867 129.122C86.4724 128.776 86.0763 128.412 85.6529 128.079C85.2113 127.77 84.7788 127.451 84.3372 127.15L82.9714 126.29C82.5116 126.012 82.0381 125.757 81.5737 125.489C79.689 124.451 77.7632 123.49 75.801 122.607C73.8525 121.701 71.8812 120.836 69.8917 120.012C67.9022 119.197 65.9037 118.396 63.8914 117.626V117.622Z" fill="url(#paint57_linear_43_2430)"/>
<path d="M52.3961 118.896C55.1823 119.265 57.9503 119.784 60.691 120.39C63.4362 120.995 66.1587 121.701 68.8584 122.498C71.549 123.322 74.1986 124.273 76.8027 125.334C79.3977 126.417 81.9199 127.674 84.3328 129.117C83.0945 128.453 81.8835 127.742 80.5997 127.169C79.3477 126.531 78.0457 126.003 76.7573 125.448C74.1486 124.41 71.4989 123.481 68.8083 122.675C66.1222 121.86 63.4043 121.141 60.6682 120.513C59.2979 120.199 57.923 119.907 56.5481 119.643C55.1732 119.365 53.7892 119.115 52.4007 118.901L52.3961 118.896Z" fill="url(#paint58_linear_43_2430)"/>
<path d="M40.9006 122.73C44.5883 122.885 48.2668 123.176 51.9408 123.549C55.6102 123.927 59.2796 124.36 62.9262 124.929C63.8413 125.061 64.7473 125.229 65.6578 125.389C66.5683 125.553 67.4788 125.698 68.3803 125.889L71.0936 126.436L73.7888 127.06C77.3718 127.934 80.9273 128.967 84.3373 130.392L81.7423 129.436C80.8773 129.117 79.9849 128.881 79.1063 128.603C78.2322 128.316 77.3398 128.084 76.4475 127.852C75.5552 127.62 74.6675 127.365 73.7661 127.178L71.0664 126.568L68.3529 126.04C67.4515 125.853 66.541 125.712 65.6305 125.553C64.7199 125.398 63.814 125.238 62.8989 125.106C59.2568 124.515 55.5965 124.064 51.9317 123.668C50.0969 123.468 48.2622 123.299 46.4229 123.144C44.5837 122.98 42.749 122.835 40.9052 122.73H40.9006Z" fill="url(#paint59_linear_43_2430)"/>
<path d="M39.6213 130.396C43.2497 130.11 46.8827 129.896 50.5157 129.75C54.1487 129.6 57.7908 129.5 61.4283 129.472C65.0659 129.472 68.708 129.545 72.341 129.787C74.1575 129.914 75.9695 130.082 77.7724 130.346C79.5661 130.629 81.3689 130.979 83.0533 131.671C81.3552 131.007 79.5524 130.688 77.7587 130.433C75.9604 130.183 74.1484 130.023 72.3319 129.905C68.7034 129.686 65.0659 129.632 61.4283 129.65C57.7908 129.65 54.1533 129.732 50.5203 129.864C48.7038 129.928 46.8873 130.01 45.0708 130.101C43.2543 130.183 41.4378 130.278 39.6213 130.392V130.396Z" fill="url(#paint60_linear_43_2430)"/>
<path d="M60.0625 136.779C61.9337 136.301 63.8321 135.923 65.7396 135.605C67.6472 135.286 69.5594 135.008 71.4806 134.79C73.4018 134.589 75.3321 134.43 77.2624 134.334C78.2275 134.275 79.1928 134.248 80.1579 134.225C81.1231 134.202 82.0927 134.225 83.0579 134.225C81.1276 134.275 79.1973 134.334 77.2715 134.462C75.3457 134.576 73.42 134.758 71.5034 134.976C69.5821 135.172 67.67 135.432 65.7624 135.728C63.8549 136.037 61.9564 136.369 60.0671 136.779H60.0625Z" fill="url(#paint61_linear_43_2430)"/>
<path d="M89.4407 129.117C89.2995 128.161 89.1721 127.21 89.0538 126.249L88.7123 123.376L88.4118 120.499C88.3162 119.539 88.2342 118.578 88.1613 117.617C88.3025 118.573 88.43 119.525 88.5484 120.486L88.8898 123.358L89.1902 126.236C89.2859 127.196 89.3678 128.157 89.4407 129.117Z" fill="url(#paint62_linear_43_2430)"/>
<path d="M90.7201 129.117C91.2482 127.073 91.922 125.065 92.7005 123.099C93.0966 122.12 93.529 121.15 94.0253 120.217C94.5215 119.284 95.0769 118.364 95.8327 117.622C95.127 118.409 94.6217 119.343 94.1482 120.28C93.6838 121.223 93.2513 122.184 92.8689 123.167C92.4728 124.141 92.1041 125.129 91.749 126.122C91.3984 127.114 91.0479 128.111 90.7201 129.117Z" fill="url(#paint63_linear_43_2430)"/>
<path d="M91.9948 129.117C92.7687 127.993 93.5972 126.905 94.4531 125.839C95.309 124.774 96.206 123.745 97.1393 122.744C98.0817 121.756 99.0513 120.786 100.103 119.907C101.15 119.033 102.256 118.209 103.49 117.617C102.288 118.268 101.218 119.124 100.194 120.017C99.1652 120.909 98.1999 121.874 97.2712 122.871C96.3288 123.855 95.4365 124.888 94.5578 125.931C93.6837 126.978 92.8188 128.034 91.9902 129.117H91.9948Z" fill="url(#paint64_linear_43_2430)"/>
<path d="M93.274 130.396C94.7946 128.53 96.602 126.9 98.5414 125.475C100.481 124.046 102.566 122.803 104.769 121.819C106.977 120.85 109.272 120.062 111.644 119.611L112.527 119.425L112.969 119.334L113.419 119.279L115.213 119.056C115.81 118.965 116.415 118.978 117.016 118.951L118.819 118.896C116.415 119.006 114.011 119.179 111.667 119.725C109.308 120.199 107.032 121 104.842 121.983C102.639 122.939 100.554 124.159 98.6098 125.571C98.1136 125.912 97.6582 126.299 97.1757 126.663C96.7067 127.041 96.256 127.437 95.8008 127.829C94.9084 128.635 94.0435 129.472 93.265 130.392L93.274 130.396Z" fill="url(#paint65_linear_43_2430)"/>
<path d="M94.5488 131.671C97.2576 130.406 100.03 129.286 102.839 128.257C105.648 127.228 108.489 126.299 111.362 125.471C114.248 124.688 117.166 124.018 120.112 123.499C123.067 123.021 126.048 122.725 129.04 122.725C127.546 122.798 126.053 122.821 124.569 123.021C123.08 123.135 121.61 123.404 120.13 123.622C117.194 124.159 114.284 124.847 111.407 125.648C108.534 126.454 105.685 127.364 102.876 128.375C101.469 128.88 100.071 129.409 98.6872 129.959C97.2941 130.501 95.9146 131.07 94.5488 131.676V131.671Z" fill="url(#paint66_linear_43_2430)"/>
<path d="M94.5488 132.951C97.7721 132.095 101.032 131.385 104.31 130.765C107.588 130.151 110.879 129.6 114.193 129.204C115.022 129.09 115.851 129.031 116.684 128.94C117.512 128.858 118.345 128.771 119.179 128.726C120.012 128.671 120.845 128.608 121.678 128.562L124.177 128.48C127.51 128.43 130.861 128.562 134.152 129.113L131.671 128.821C131.257 128.762 130.842 128.744 130.424 128.726L129.176 128.662C128.762 128.644 128.343 128.607 127.929 128.598H126.681C125.848 128.598 125.015 128.557 124.182 128.607L121.687 128.703C120.854 128.753 120.025 128.822 119.192 128.881C118.359 128.931 117.531 129.022 116.702 129.108C115.873 129.199 115.045 129.268 114.216 129.386C110.906 129.759 107.61 130.292 104.332 130.884C103.513 131.029 102.694 131.184 101.879 131.353C101.059 131.512 100.244 131.681 99.4292 131.854C97.7948 132.19 96.1695 132.55 94.5488 132.951Z" fill="url(#paint67_linear_43_2430)"/>
<path d="M94.5488 134.226C97.1074 133.843 99.6933 133.643 102.279 133.561C104.865 133.479 107.456 133.524 110.041 133.688C112.627 133.857 115.195 134.226 117.735 134.704C120.285 135.172 122.771 135.91 125.206 136.779L123.358 136.197C123.048 136.101 122.743 135.996 122.434 135.91L121.491 135.673C120.863 135.518 120.244 135.336 119.611 135.2L117.713 134.817C115.172 134.362 112.605 134.016 110.028 133.866C107.451 133.679 104.865 133.615 102.284 133.675C100.991 133.711 99.7024 133.766 98.414 133.861C97.1256 133.943 95.8372 134.057 94.5534 134.221L94.5488 134.226Z" fill="url(#paint68_linear_43_2430)"/>
<path d="M94.5488 135.505C97.5262 135.865 100.454 136.607 103.285 137.599C104.697 138.113 106.076 138.719 107.405 139.411C108.735 140.117 109.987 140.95 111.152 141.892C109.946 141.004 108.671 140.217 107.342 139.534C106.003 138.869 104.633 138.268 103.222 137.772C101.815 137.262 100.385 136.83 98.9376 136.452C97.4899 136.078 96.0284 135.751 94.5488 135.505Z" fill="url(#paint69_linear_43_2430)"/>
<path d="M93.274 136.779C94.8492 137.981 96.3198 139.329 97.6765 140.776C98.3457 141.509 98.9967 142.265 99.5612 143.084C100.126 143.899 100.645 144.764 100.936 145.72C100.581 144.792 100.026 143.963 99.4474 143.166C98.8646 142.37 98.2182 141.619 97.5444 140.899C96.8797 140.166 96.1786 139.47 95.4638 138.787C94.7491 138.104 94.0206 137.43 93.274 136.779Z" fill="url(#paint70_linear_43_2430)"/>
<path d="M90.7199 136.779C90.6289 137.148 90.6881 137.526 90.7473 137.895C90.8019 138.263 90.8747 138.632 90.9384 139.001C91.075 139.743 91.1706 140.489 91.2252 141.245C91.2662 142.001 91.248 142.757 91.1661 143.508C91.0978 144.259 90.9202 144.997 90.7245 145.72C90.8565 144.978 90.9839 144.241 91.0295 143.494C91.0795 142.748 91.1023 142.001 91.0477 141.254C91.0113 140.508 90.9111 139.766 90.8064 139.024C90.7563 138.65 90.6971 138.281 90.6652 137.904C90.6379 137.53 90.6107 137.139 90.729 136.779H90.7199Z" fill="url(#paint71_linear_43_2430)"/>
<path d="M86.8869 138.058C86.5773 138.432 86.2813 138.819 86.0036 139.215C85.7304 139.611 85.4618 140.016 85.2342 140.439C84.9975 140.858 84.8017 141.3 84.6378 141.751C84.483 142.206 84.3783 142.675 84.3328 143.162C84.3055 142.675 84.3784 142.183 84.5059 141.705C84.647 141.232 84.8517 140.781 85.0794 140.348C85.5665 139.497 86.163 138.705 86.8869 138.049V138.058Z" fill="url(#paint72_linear_43_2430)"/>
<path d="M85.6075 136.779C84.8973 136.852 84.219 137.093 83.5862 137.398C82.9534 137.708 82.366 138.104 81.8334 138.564C81.2961 139.024 80.8227 139.552 80.3902 140.107C80.1671 140.38 79.985 140.685 79.7756 140.977L79.2202 141.887L79.6982 140.931C79.8894 140.631 80.0624 140.317 80.2764 140.025C80.6907 139.442 81.1778 138.905 81.715 138.427C82.2704 137.967 82.8714 137.562 83.5315 137.271C84.1871 136.984 84.8973 136.784 85.6121 136.779H85.6075Z" fill="url(#paint73_linear_43_2430)"/>
<path d="M83.0534 135.505C82.061 135.714 81.073 135.951 80.0897 136.197C79.1063 136.447 78.1275 136.702 77.1578 137.012C76.1881 137.308 75.2275 137.626 74.2896 138.009C73.3518 138.391 72.4276 138.81 71.558 139.338C72.3912 138.755 73.3018 138.291 74.235 137.881C75.1683 137.472 76.1381 137.153 77.1032 136.839C79.0518 136.256 81.0366 135.792 83.0534 135.505Z" fill="url(#paint74_linear_43_2430)"/>
<path d="M93.2738 132.951C93.2693 133.419 93.0416 133.875 92.7139 134.202C92.3861 134.539 91.9764 134.79 91.553 134.986C90.6971 135.382 89.7502 135.555 88.8078 135.582C87.8654 135.591 86.9002 135.468 86.017 135.09C85.5753 134.899 85.1565 134.644 84.8014 134.298C84.4509 133.957 84.1913 133.474 84.1777 132.951C84.1913 132.427 84.4509 131.944 84.8014 131.603C85.152 131.257 85.5753 131.002 86.017 130.811C86.9047 130.433 87.8654 130.31 88.8123 130.319C89.7547 130.346 90.7017 130.519 91.5576 130.915C91.9855 131.111 92.3906 131.362 92.7184 131.699C93.0508 132.031 93.2738 132.482 93.2784 132.951H93.2738ZM93.2738 132.951C93.2602 132.482 93.0281 132.035 92.6957 131.712C92.3634 131.384 91.9582 131.139 91.5302 130.952C90.6698 130.583 89.7274 130.465 88.8032 130.474C87.879 130.501 86.9502 130.67 86.1217 131.057C85.7074 131.243 85.3159 131.489 85.0063 131.808C84.6922 132.122 84.4964 132.532 84.4919 132.951C84.4964 133.369 84.6967 133.779 85.0063 134.093C85.3159 134.412 85.7074 134.653 86.1217 134.844C86.9502 135.231 87.879 135.4 88.8032 135.427C89.7274 135.436 90.6698 135.313 91.5302 134.949C91.9582 134.762 92.3634 134.521 92.6957 134.189C93.0281 133.866 93.2602 133.424 93.2738 132.951Z" fill="#FBF8F3"/>
<path d="M91.9947 132.951C91.9856 133.269 91.7215 133.501 91.4711 133.661C91.2116 133.82 90.9203 133.939 90.6243 134.025C90.037 134.203 89.4179 134.289 88.8033 134.312C88.1841 134.325 87.5604 134.285 86.9503 134.139C86.6453 134.061 86.3448 133.957 86.058 133.793C85.794 133.629 85.4707 133.383 85.4479 132.96C85.4707 132.536 85.7894 132.29 86.058 132.127C86.3403 131.958 86.6453 131.858 86.9503 131.781C87.5604 131.63 88.1887 131.589 88.8033 131.608C89.4224 131.63 90.037 131.717 90.6243 131.894C90.9203 131.981 91.207 132.095 91.4711 132.259C91.7215 132.418 91.9856 132.646 91.9947 132.969V132.951ZM91.9947 132.951C91.981 132.632 91.7169 132.404 91.4619 132.254C91.1979 132.099 90.9066 131.999 90.6107 131.922C90.0188 131.776 89.4042 131.735 88.7987 131.753C88.1932 131.776 87.5877 131.862 87.0186 132.035C86.7318 132.117 86.4541 132.231 86.2129 132.381C85.9761 132.527 85.762 132.737 85.762 132.955C85.762 133.169 85.9716 133.383 86.2129 133.529C86.4541 133.679 86.7318 133.788 87.0186 133.875C87.5877 134.048 88.1932 134.134 88.7987 134.157C89.4042 134.171 90.0188 134.134 90.6107 133.989C90.9066 133.911 91.1979 133.816 91.4619 133.656C91.7123 133.501 91.981 133.278 91.9947 132.96V132.951Z" fill="#FBF8F3"/>
<path d="M54.4054 111.446C53.66 112.185 45.4651 107.017 35.0295 110.708C35.0295 110.708 20.8715 109.232 21.6169 115.876C21.6169 115.876 26.8347 119.567 36.5203 120.305C46.2059 121.043 58.1323 119.567 58.8777 115.137H43.2289L54.4054 111.446Z" fill="url(#paint75_radial_43_2430)"/>
<defs>
<linearGradient id="paint0_linear_43_2430" x1="54.7506" y1="98.7484" x2="66.3088" y2="93.1784" gradientUnits="userSpaceOnUse">
<stop stop-color="#4C6F62"/>
<stop offset="0.63" stop-color="#62B497"/>
<stop offset="1" stop-color="#88C5AE"/>
</linearGradient>
<radialGradient id="paint1_radial_43_2430" cx="0" cy="0" r="1" gradientUnits="userSpaceOnUse" gradientTransform="translate(48.8613 70.6065) rotate(-15) scale(46.0727 27.6436)">
<stop stop-color="#3E4441"/>
<stop offset="0.3" stop-color="#4C6F62"/>
<stop offset="0.72" stop-color="#62B497"/>
<stop offset="1" stop-color="#88C5AE"/>
</radialGradient>
<linearGradient id="paint2_linear_43_2430" x1="13.3943" y1="56.2615" x2="22.4995" y2="56.2615" gradientUnits="userSpaceOnUse">
<stop stop-color="#FAF7F3"/>
<stop offset="0.39" stop-color="#FAD0B6"/>
<stop offset="1" stop-color="#F5EFB2"/>
</linearGradient>
<linearGradient id="paint3_linear_43_2430" x1="22.3172" y1="69.6232" x2="54.1856" y2="69.6232" gradientUnits="userSpaceOnUse">
<stop stop-color="#FAF7F3"/>
<stop offset="0.39" stop-color="#FAD0B6"/>
<stop offset="1" stop-color="#F5EFB2"/>
</linearGradient>
<linearGradient id="paint4_linear_43_2430" x1="7.27558" y1="60.5634" x2="17.8695" y2="60.5634" gradientUnits="userSpaceOnUse">
<stop stop-color="#FAF7F3"/>
<stop offset="0.39" stop-color="#FAD0B6"/>
<stop offset="1" stop-color="#F5EFB2"/>
</linearGradient>
<linearGradient id="paint5_linear_43_2430" x1="17.6555" y1="71.5944" x2="54.1676" y2="71.5944" gradientUnits="userSpaceOnUse">
<stop stop-color="#FAF7F3"/>
<stop offset="0.39" stop-color="#FAD0B6"/>
<stop offset="1" stop-color="#F5EFB2"/>
</linearGradient>
<linearGradient id="paint6_linear_43_2430" x1="3.59701" y1="66.9005" x2="16.4172" y2="66.9005" gradientUnits="userSpaceOnUse">
<stop stop-color="#FAF7F3"/>
<stop offset="0.39" stop-color="#FAD0B6"/>
<stop offset="1" stop-color="#F5EFB2"/>
</linearGradient>
<linearGradient id="paint7_linear_43_2430" x1="16.2031" y1="74.6359" x2="54.1539" y2="74.6359" gradientUnits="userSpaceOnUse">
<stop stop-color="#FAF7F3"/>
<stop offset="0.39" stop-color="#FAD0B6"/>
<stop offset="1" stop-color="#F5EFB2"/>
</linearGradient>
<linearGradient id="paint8_linear_43_2430" x1="3.41479" y1="75.4688" x2="54.1721" y2="75.4688" gradientUnits="userSpaceOnUse">
<stop stop-color="#FAF7F3"/>
<stop offset="0.39" stop-color="#FAD0B6"/>
<stop offset="1" stop-color="#F5EFB2"/>
</linearGradient>
<linearGradient id="paint9_linear_43_2430" x1="4.48921" y1="76.7754" x2="14.0998" y2="76.7754" gradientUnits="userSpaceOnUse">
<stop stop-color="#FAF7F3"/>
<stop offset="0.39" stop-color="#FAD0B6"/>
<stop offset="1" stop-color="#F5EFB2"/>
</linearGradient>
<linearGradient id="paint10_linear_43_2430" x1="22.2765" y1="54.035" x2="32.5245" y2="54.035" gradientUnits="userSpaceOnUse">
<stop stop-color="#FAF7F3"/>
<stop offset="0.39" stop-color="#FAD0B6"/>
<stop offset="1" stop-color="#F5EFB2"/>
</linearGradient>
<linearGradient id="paint11_linear_43_2430" x1="32.3287" y1="68.7946" x2="54.2087" y2="68.7946" gradientUnits="userSpaceOnUse">
<stop stop-color="#FAF7F3"/>
<stop offset="0.39" stop-color="#FAD0B6"/>
<stop offset="1" stop-color="#F5EFB2"/>
</linearGradient>
<linearGradient id="paint12_linear_43_2430" x1="30.0979" y1="51.2625" x2="39.7449" y2="51.2625" gradientUnits="userSpaceOnUse">
<stop stop-color="#FAF7F3"/>
<stop offset="0.39" stop-color="#FAD0B6"/>
<stop offset="1" stop-color="#F5EFB2"/>
</linearGradient>
<linearGradient id="paint13_linear_43_2430" x1="39.5811" y1="67.1104" x2="54.7823" y2="67.1104" gradientUnits="userSpaceOnUse">
<stop stop-color="#FAF7F3"/>
<stop offset="0.39" stop-color="#FAD0B6"/>
<stop offset="1" stop-color="#F5EFB2"/>
</linearGradient>
<linearGradient id="paint14_linear_43_2430" x1="41.2381" y1="49.6193" x2="48.9821" y2="49.6193" gradientUnits="userSpaceOnUse">
<stop stop-color="#FAF7F3"/>
<stop offset="0.39" stop-color="#FAD0B6"/>
<stop offset="1" stop-color="#F5EFB2"/>
</linearGradient>
<linearGradient id="paint15_linear_43_2430" x1="47.4251" y1="59.2888" x2="57.582" y2="59.2888" gradientUnits="userSpaceOnUse">
<stop stop-color="#FAF7F3"/>
<stop offset="0.39" stop-color="#FAD0B6"/>
<stop offset="1" stop-color="#F5EFB2"/>
</linearGradient>
<linearGradient id="paint16_linear_43_2430" x1="67.3657" y1="40.9918" x2="73.4026" y2="40.9918" gradientUnits="userSpaceOnUse">
<stop stop-color="#FAF7F3"/>
<stop offset="0.39" stop-color="#FAD0B6"/>
<stop offset="1" stop-color="#F5EFB2"/>
</linearGradient>
<linearGradient id="paint17_linear_43_2430" x1="56.8536" y1="60.9689" x2="68.3307" y2="60.9689" gradientUnits="userSpaceOnUse">
<stop stop-color="#FAF7F3"/>
<stop offset="0.39" stop-color="#FAD0B6"/>
<stop offset="1" stop-color="#F5EFB2"/>
</linearGradient>
<linearGradient id="paint18_linear_43_2430" x1="73.2887" y1="41.5563" x2="79.881" y2="41.5563" gradientUnits="userSpaceOnUse">
<stop stop-color="#FAF7F3"/>
<stop offset="0.39" stop-color="#FAD0B6"/>
<stop offset="1" stop-color="#F5EFB2"/>
</linearGradient>
<linearGradient id="paint19_linear_43_2430" x1="56.8582" y1="61.2555" x2="74.0079" y2="61.2555" gradientUnits="userSpaceOnUse">
<stop stop-color="#FAF7F3"/>
<stop offset="0.39" stop-color="#FAD0B6"/>
<stop offset="1" stop-color="#F5EFB2"/>
</linearGradient>
<linearGradient id="paint20_linear_43_2430" x1="76.2387" y1="42.9496" x2="85.3895" y2="42.9496" gradientUnits="userSpaceOnUse">
<stop stop-color="#FAF7F3"/>
<stop offset="0.39" stop-color="#FAD0B6"/>
<stop offset="1" stop-color="#F5EFB2"/>
</linearGradient>
<linearGradient id="paint21_linear_43_2430" x1="57.4137" y1="61.7974" x2="76.521" y2="61.7974" gradientUnits="userSpaceOnUse">
<stop stop-color="#FAF7F3"/>
<stop offset="0.39" stop-color="#FAD0B6"/>
<stop offset="1" stop-color="#F5EFB2"/>
</linearGradient>
<linearGradient id="paint22_linear_43_2430" x1="80.1768" y1="49.0365" x2="87.6431" y2="49.0365" gradientUnits="userSpaceOnUse">
<stop stop-color="#FAF7F3"/>
<stop offset="0.39" stop-color="#FAD0B6"/>
<stop offset="1" stop-color="#F5EFB2"/>
</linearGradient>
<linearGradient id="paint23_linear_43_2430" x1="57.969" y1="64.01" x2="80.3816" y2="64.01" gradientUnits="userSpaceOnUse">
<stop stop-color="#FAF7F3"/>
<stop offset="0.39" stop-color="#FAD0B6"/>
<stop offset="1" stop-color="#F5EFB2"/>
</linearGradient>
<linearGradient id="paint24_linear_43_2430" x1="79.6624" y1="57.6772" x2="85.9905" y2="57.6772" gradientUnits="userSpaceOnUse">
<stop stop-color="#FAF7F3"/>
<stop offset="0.39" stop-color="#FAD0B6"/>
<stop offset="1" stop-color="#F5EFB2"/>
</linearGradient>
<linearGradient id="paint25_linear_43_2430" x1="58.5336" y1="66.4454" x2="79.8308" y2="66.4454" gradientUnits="userSpaceOnUse">
<stop stop-color="#FAF7F3"/>
<stop offset="0.39" stop-color="#FAD0B6"/>
<stop offset="1" stop-color="#F5EFB2"/>
</linearGradient>
<linearGradient id="paint26_linear_43_2430" x1="59.1299" y1="42.2986" x2="63.1636" y2="42.2986" gradientUnits="userSpaceOnUse">
<stop stop-color="#FAF7F3"/>
<stop offset="0.39" stop-color="#FAD0B6"/>
<stop offset="1" stop-color="#F5EFB2"/>
</linearGradient>
<linearGradient id="paint27_linear_43_2430" x1="56.2937" y1="62.0934" x2="62.1757" y2="62.0934" gradientUnits="userSpaceOnUse">
<stop stop-color="#FAF7F3"/>
<stop offset="0.39" stop-color="#FAD0B6"/>
<stop offset="1" stop-color="#F5EFB2"/>
</linearGradient>
<linearGradient id="paint28_linear_43_2430" x1="49.6059" y1="47.3337" x2="54.7731" y2="47.3337" gradientUnits="userSpaceOnUse">
<stop stop-color="#FAF7F3"/>
<stop offset="0.39" stop-color="#FAD0B6"/>
<stop offset="1" stop-color="#F5EFB2"/>
</linearGradient>
<radialGradient id="paint29_radial_43_2430" cx="0" cy="0" r="1" gradientUnits="userSpaceOnUse" gradientTransform="translate(48.3676 72.0497) scale(19.9087 19.9087)">
<stop stop-color="#4C6F62"/>
<stop offset="0.63" stop-color="#62B497"/>
<stop offset="1" stop-color="#88C5AE"/>
</radialGradient>
<radialGradient id="paint30_radial_43_2430" cx="0" cy="0" r="1" gradientUnits="userSpaceOnUse" gradientTransform="translate(29.6563 79.129) scale(6.48296 6.48298)">
<stop stop-color="#4C6F62"/>
<stop offset="0.63" stop-color="#62B497"/>
<stop offset="1" stop-color="#88C5AE"/>
</radialGradient>
<linearGradient id="paint31_linear_43_2430" x1="80.0899" y1="87.4106" x2="93.716" y2="87.4106" gradientUnits="userSpaceOnUse">
<stop stop-color="#4C6F62"/>
<stop offset="0.63" stop-color="#62B497"/>
<stop offset="1" stop-color="#88C5AE"/>
</linearGradient>
<radialGradient id="paint32_radial_43_2430" cx="0" cy="0" r="1" gradientUnits="userSpaceOnUse" gradientTransform="translate(94.9679 58.3875) scale(19.4579 19.4579)">
<stop stop-color="#FBF8F3"/>
<stop offset="0.2" stop-color="#FAD0B6"/>
<stop offset="1" stop-color="#EE7F80"/>
</radialGradient>
<radialGradient id="paint33_radial_43_2430" cx="0" cy="0" r="1" gradientUnits="userSpaceOnUse" gradientTransform="translate(121.218 45.039) scale(0.227631)">
<stop stop-color="#FBF8F3"/>
<stop offset="0.06" stop-color="#FBEBDF"/>
<stop offset="0.56" stop-color="#FAD0B6"/>
<stop offset="1" stop-color="#F3A096"/>
</radialGradient>
<radialGradient id="paint34_radial_43_2430" cx="0" cy="0" r="1" gradientUnits="userSpaceOnUse" gradientTransform="translate(108.589 56.9989) scale(18.9435 18.9437)">
<stop stop-color="#FBF8F3"/>
<stop offset="0.06" stop-color="#FBEBDF"/>
<stop offset="0.2" stop-color="#FAD0B6"/>
<stop offset="0.52" stop-color="#EE7F80"/>
</radialGradient>
<radialGradient id="paint35_radial_43_2430" cx="0" cy="0" r="1" gradientUnits="userSpaceOnUse" gradientTransform="translate(72.6692 53.5253) scale(13.8627 13.8627)">
<stop stop-color="#FBF8F3"/>
<stop offset="0.06" stop-color="#FBEBDF"/>
<stop offset="0.56" stop-color="#FAD0B6"/>
<stop offset="1" stop-color="#F3A096"/>
</radialGradient>
<linearGradient id="paint36_linear_43_2430" x1="86.1768" y1="65.2121" x2="60.1312" y2="47.9531" gradientUnits="userSpaceOnUse">
<stop stop-color="#FBEBDF"/>
<stop offset="0.2" stop-color="#FAD0B6"/>
<stop offset="0.52" stop-color="#EE7F80"/>
</linearGradient>
<radialGradient id="paint37_radial_43_2430" cx="0" cy="0" r="1" gradientUnits="userSpaceOnUse" gradientTransform="translate(68.772 35.779) scale(16.3758 16.3758)">
<stop stop-color="#FBF8F3"/>
<stop offset="0.06" stop-color="#FBEBDF"/>
<stop offset="0.56" stop-color="#FAD0B6"/>
<stop offset="1" stop-color="#F3A096"/>
</radialGradient>
<radialGradient id="paint38_radial_43_2430" cx="0" cy="0" r="1" gradientUnits="userSpaceOnUse" gradientTransform="translate(70.2835 39.7309) scale(14.655 14.6549)">
<stop stop-color="#FBF8F3"/>
<stop offset="0.06" stop-color="#FBEBDF"/>
<stop offset="0.2" stop-color="#FAD0B6"/>
<stop offset="0.52" stop-color="#EE7F80"/>
</radialGradient>
<radialGradient id="paint39_radial_43_2430" cx="0" cy="0" r="1" gradientUnits="userSpaceOnUse" gradientTransform="translate(110.232 32.4117) rotate(-180) scale(16.2887 13.9852)">
<stop stop-color="#FBF8F3"/>
<stop offset="0.06" stop-color="#FBEBDF"/>
<stop offset="0.56" stop-color="#FAD0B6"/>
<stop offset="1" stop-color="#F3A096"/>
</radialGradient>
<radialGradient id="paint40_radial_43_2430" cx="0" cy="0" r="1" gradientUnits="userSpaceOnUse" gradientTransform="translate(108.844 36.034) rotate(180) scale(14.5083 12.4567)">
<stop stop-color="#FBF8F3"/>
<stop offset="0.06" stop-color="#FBEBDF"/>
<stop offset="0.2" stop-color="#FAD0B6"/>
<stop offset="0.52" stop-color="#EE7F80"/>
</radialGradient>
<radialGradient id="paint41_radial_43_2430" cx="0" cy="0" r="1" gradientUnits="userSpaceOnUse" gradientTransform="translate(103.072 26.642) scale(18.98 18.9799)">
<stop stop-color="#FBF8F3"/>
<stop offset="0.06" stop-color="#FBEBDF"/>
<stop offset="0.56" stop-color="#FAD0B6"/>
<stop offset="1" stop-color="#F3A096"/>
</radialGradient>
<radialGradient id="paint42_radial_43_2430" cx="0" cy="0" r="1" gradientUnits="userSpaceOnUse" gradientTransform="translate(110.502 11.6001) scale(5.33112 5.33111)">
<stop offset="0.05" stop-color="#FAD0B6"/>
<stop offset="0.52" stop-color="#EE7F80"/>
</radialGradient>
<radialGradient id="paint43_radial_43_2430" cx="0" cy="0" r="1" gradientUnits="userSpaceOnUse" gradientTransform="translate(84.0552 24.4658) rotate(180) scale(18.6112 18.6112)">
<stop stop-color="#FBF8F3"/>
<stop offset="0.06" stop-color="#FBEBDF"/>
<stop offset="0.56" stop-color="#FAD0B6"/>
<stop offset="1" stop-color="#F3A096"/>
</radialGradient>
<radialGradient id="paint44_radial_43_2430" cx="0" cy="0" r="1" gradientUnits="userSpaceOnUse" gradientTransform="translate(77.1215 9.37846) rotate(180) scale(4.70296 4.70289)">
<stop offset="0.05" stop-color="#FAD0B6"/>
<stop offset="0.52" stop-color="#EE7F80"/>
</radialGradient>
<radialGradient id="paint45_radial_43_2430" cx="0" cy="0" r="1" gradientUnits="userSpaceOnUse" gradientTransform="translate(110.06 35.5878) scale(16.1345 16.1345)">
<stop stop-color="#FBF8F3"/>
<stop offset="0.06" stop-color="#FBEBDF"/>
<stop offset="0.56" stop-color="#FAD0B6"/>
<stop offset="1" stop-color="#F3A096"/>
</radialGradient>
<radialGradient id="paint46_radial_43_2430" cx="0" cy="0" r="1" gradientUnits="userSpaceOnUse" gradientTransform="translate(110.06 35.5742) scale(16.1436 16.1436)">
<stop stop-color="#FBF8F3"/>
<stop offset="0.06" stop-color="#FBEBDF"/>
<stop offset="0.2" stop-color="#FAD0B6"/>
<stop offset="0.52" stop-color="#EE7F80"/>
</radialGradient>
<radialGradient id="paint47_radial_43_2430" cx="0" cy="0" r="1" gradientUnits="userSpaceOnUse" gradientTransform="translate(99.5842 24.7709) scale(17.4867 17.4866)">
<stop stop-color="#FBF8F3"/>
<stop offset="0.06" stop-color="#FBEBDF"/>
<stop offset="0.45" stop-color="#FAD0B6"/>
<stop offset="0.84" stop-color="#F3A096"/>
</radialGradient>
<radialGradient id="paint48_radial_43_2430" cx="0" cy="0" r="1" gradientUnits="userSpaceOnUse" gradientTransform="translate(84.9749 32.2507) scale(12.547 12.5471)">
<stop stop-color="#FBF8F3"/>
<stop offset="0.06" stop-color="#FBEBDF"/>
<stop offset="0.56" stop-color="#FAD0B6"/>
<stop offset="1" stop-color="#F5B0A1"/>
</radialGradient>
<radialGradient id="paint49_radial_43_2430" cx="0" cy="0" r="1" gradientUnits="userSpaceOnUse" gradientTransform="translate(77.5587 28.4948) scale(18.1969 18.1969)">
<stop stop-color="#FBF8F3"/>
<stop offset="0.06" stop-color="#FBEBDF"/>
<stop offset="0.2" stop-color="#FAD0B6"/>
<stop offset="0.52" stop-color="#EE7F80"/>
</radialGradient>
<radialGradient id="paint50_radial_43_2430" cx="0" cy="0" r="1" gradientUnits="userSpaceOnUse" gradientTransform="translate(79.1065 34.6136) scale(22.458 22.4581)">
<stop stop-color="#FBF8F3"/>
<stop offset="0.06" stop-color="#FBEBDF"/>
<stop offset="0.2" stop-color="#FAD0B6"/>
<stop offset="0.56" stop-color="#EE7F80"/>
</radialGradient>
<radialGradient id="paint51_radial_43_2430" cx="0" cy="0" r="1" gradientUnits="userSpaceOnUse" gradientTransform="translate(92.6462 41.6291) scale(0.227632)">
<stop stop-color="#FAF7F3"/>
<stop offset="0.34" stop-color="#F5EFB2"/>
<stop offset="0.63" stop-color="#FCCC81"/>
<stop offset="0.81" stop-color="#F5EFB2"/>
</radialGradient>
<radialGradient id="paint52_radial_43_2430" cx="0" cy="0" r="1" gradientUnits="userSpaceOnUse" gradientTransform="translate(92.4913 42.3123) scale(13.4985 13.4985)">
<stop stop-color="#FAF7F3"/>
<stop offset="0.45" stop-color="#F5EFB2"/>
<stop offset="0.59" stop-color="#CDDD91"/>
<stop offset="0.81" stop-color="#62B497"/>
</radialGradient>
<radialGradient id="paint53_radial_43_2430" cx="0" cy="0" r="1" gradientUnits="userSpaceOnUse" gradientTransform="translate(102.384 49.5145) scale(26.5099 26.51)">
<stop stop-color="#FBF8F3"/>
<stop offset="0.06" stop-color="#FBEBDF"/>
<stop offset="0.2" stop-color="#FAD0B6"/>
<stop offset="0.52" stop-color="#EE7F80"/>
</radialGradient>
<radialGradient id="paint54_radial_43_2430" cx="0" cy="0" r="1" gradientUnits="userSpaceOnUse" gradientTransform="translate(94.0163 39.4074) scale(20.9785 20.9785)">
<stop stop-color="#FBF8F3"/>
<stop offset="0.06" stop-color="#FBEBDF"/>
<stop offset="0.2" stop-color="#FAD0B6"/>
<stop offset="0.52" stop-color="#EE7F80"/>
</radialGradient>
<radialGradient id="paint55_radial_43_2430" cx="0" cy="0" r="1" gradientUnits="userSpaceOnUse" gradientTransform="translate(87.6485 130.727) rotate(-4.36001) scale(38.274 19.137)">
<stop stop-color="#4C6F62"/>
<stop offset="0.63" stop-color="#62B497"/>
<stop offset="0.87" stop-color="#88C5AE"/>
</radialGradient>
<linearGradient id="paint56_linear_43_2430" x1="77.8816" y1="123.367" x2="88.2343" y2="123.367" gradientUnits="userSpaceOnUse">
<stop stop-color="#FAF7F3"/>
<stop offset="0.39" stop-color="#FAD0B6"/>
<stop offset="1" stop-color="#F5EFB2"/>
</linearGradient>
<linearGradient id="paint57_linear_43_2430" x1="63.8641" y1="123.367" x2="86.9505" y2="123.367" gradientUnits="userSpaceOnUse">
<stop stop-color="#FAF7F3"/>
<stop offset="0.39" stop-color="#FAD0B6"/>
<stop offset="1" stop-color="#F5EFB2"/>
</linearGradient>
<linearGradient id="paint58_linear_43_2430" x1="52.3961" y1="124.009" x2="84.392" y2="124.009" gradientUnits="userSpaceOnUse">
<stop stop-color="#FAF7F3"/>
<stop offset="0.39" stop-color="#FAD0B6"/>
<stop offset="1" stop-color="#F5EFB2"/>
</linearGradient>
<linearGradient id="paint59_linear_43_2430" x1="40.9006" y1="126.563" x2="84.3327" y2="126.563" gradientUnits="userSpaceOnUse">
<stop stop-color="#FAF7F3"/>
<stop offset="0.39" stop-color="#FAD0B6"/>
<stop offset="1" stop-color="#F5EFB2"/>
</linearGradient>
<linearGradient id="paint60_linear_43_2430" x1="39.6213" y1="130.57" x2="83.0533" y2="130.57" gradientUnits="userSpaceOnUse">
<stop stop-color="#FAF7F3"/>
<stop offset="0.39" stop-color="#FAD0B6"/>
<stop offset="1" stop-color="#F5EFB2"/>
</linearGradient>
<linearGradient id="paint61_linear_43_2430" x1="60.0625" y1="135.5" x2="83.0533" y2="135.5" gradientUnits="userSpaceOnUse">
<stop stop-color="#FAF7F3"/>
<stop offset="0.39" stop-color="#FAD0B6"/>
<stop offset="1" stop-color="#F5EFB2"/>
</linearGradient>
<linearGradient id="paint62_linear_43_2430" x1="88.0748" y1="123.367" x2="89.5317" y2="123.367" gradientUnits="userSpaceOnUse">
<stop stop-color="#FAF7F3"/>
<stop offset="0.39" stop-color="#FAD0B6"/>
<stop offset="1" stop-color="#F5EFB2"/>
</linearGradient>
<linearGradient id="paint63_linear_43_2430" x1="90.6336" y1="123.367" x2="95.8918" y2="123.367" gradientUnits="userSpaceOnUse">
<stop stop-color="#FAF7F3"/>
<stop offset="0.39" stop-color="#FAD0B6"/>
<stop offset="1" stop-color="#F5EFB2"/>
</linearGradient>
<linearGradient id="paint64_linear_43_2430" x1="91.9219" y1="123.367" x2="103.531" y2="123.367" gradientUnits="userSpaceOnUse">
<stop stop-color="#FAF7F3"/>
<stop offset="0.39" stop-color="#FAD0B6"/>
<stop offset="1" stop-color="#F5EFB2"/>
</linearGradient>
<linearGradient id="paint65_linear_43_2430" x1="93.2013" y1="124.646" x2="118.823" y2="124.646" gradientUnits="userSpaceOnUse">
<stop stop-color="#FAF7F3"/>
<stop offset="0.39" stop-color="#FAD0B6"/>
<stop offset="1" stop-color="#F5EFB2"/>
</linearGradient>
<linearGradient id="paint66_linear_43_2430" x1="94.5124" y1="127.201" x2="129.04" y2="127.201" gradientUnits="userSpaceOnUse">
<stop stop-color="#FAF7F3"/>
<stop offset="0.39" stop-color="#FAD0B6"/>
<stop offset="1" stop-color="#F5EFB2"/>
</linearGradient>
<linearGradient id="paint67_linear_43_2430" x1="94.5488" y1="130.711" x2="134.152" y2="130.711" gradientUnits="userSpaceOnUse">
<stop stop-color="#FAF7F3"/>
<stop offset="0.39" stop-color="#FAD0B6"/>
<stop offset="1" stop-color="#F5EFB2"/>
</linearGradient>
<linearGradient id="paint68_linear_43_2430" x1="94.5488" y1="135.154" x2="125.252" y2="135.154" gradientUnits="userSpaceOnUse">
<stop stop-color="#FAF7F3"/>
<stop offset="0.39" stop-color="#FAD0B6"/>
<stop offset="1" stop-color="#F5EFB2"/>
</linearGradient>
<linearGradient id="paint69_linear_43_2430" x1="94.5488" y1="138.696" x2="111.225" y2="138.696" gradientUnits="userSpaceOnUse">
<stop stop-color="#FAF7F3"/>
<stop offset="0.39" stop-color="#FAD0B6"/>
<stop offset="1" stop-color="#F5EFB2"/>
</linearGradient>
<linearGradient id="paint70_linear_43_2430" x1="93.2148" y1="141.254" x2="101.023" y2="141.254" gradientUnits="userSpaceOnUse">
<stop stop-color="#FAF7F3"/>
<stop offset="0.39" stop-color="#FAD0B6"/>
<stop offset="1" stop-color="#F5EFB2"/>
</linearGradient>
<linearGradient id="paint71_linear_43_2430" x1="90.5651" y1="141.254" x2="91.248" y2="141.254" gradientUnits="userSpaceOnUse">
<stop stop-color="#FAF7F3"/>
<stop offset="0.39" stop-color="#FAD0B6"/>
<stop offset="1" stop-color="#F5EFB2"/>
</linearGradient>
<linearGradient id="paint72_linear_43_2430" x1="84.2417" y1="140.612" x2="86.9506" y2="140.612" gradientUnits="userSpaceOnUse">
<stop stop-color="#FAF7F3"/>
<stop offset="0.39" stop-color="#FAD0B6"/>
<stop offset="1" stop-color="#F5EFB2"/>
</linearGradient>
<linearGradient id="paint73_linear_43_2430" x1="79.1428" y1="139.338" x2="85.6075" y2="139.338" gradientUnits="userSpaceOnUse">
<stop stop-color="#FAF7F3"/>
<stop offset="0.39" stop-color="#FAD0B6"/>
<stop offset="1" stop-color="#F5EFB2"/>
</linearGradient>
<linearGradient id="paint74_linear_43_2430" x1="71.508" y1="137.422" x2="83.0671" y2="137.422" gradientUnits="userSpaceOnUse">
<stop stop-color="#FAF7F3"/>
<stop offset="0.39" stop-color="#FAD0B6"/>
<stop offset="1" stop-color="#F5EFB2"/>
</linearGradient>
<radialGradient id="paint75_radial_43_2430" cx="0" cy="0" r="1" gradientUnits="userSpaceOnUse" gradientTransform="translate(40.2336 114.926) scale(0.227256 0.22507)">
<stop stop-color="#4C6F62"/>
<stop offset="1" stop-color="#62B497"/>
</radialGradient>
</defs>
</svg>
