<svg width="152" height="112" viewBox="0 0 152 112" fill="none" xmlns="http://www.w3.org/2000/svg">
<path d="M19.8772 84.2887C26.1542 83.0305 23.3972 81.6624 33.6891 80.5212C44.9917 79.263 39.9662 80.521 61.3133 81.7792C82.6603 83.0373 80.144 78.0117 97.7236 88.0562C115.303 98.1007 66.3321 111.913 57.5457 111.913C48.7594 111.913 28.6636 101.868 23.6448 103.126C18.626 104.384 -5.23748 98.1007 1.04633 89.3144C7.33014 80.5281 17.6635 84.7356 19.8772 84.2887Z" fill="url(#paint0_radial_54_1656)"/>
<path d="M41.2242 83.0308C43.053 84.7702 44.7307 86.6539 46.4151 88.5308C47.2401 89.4864 48.072 90.4352 48.8764 91.3977C49.6877 92.3602 50.485 93.3433 51.2619 94.3264C50.4025 93.4052 49.55 92.4703 48.7113 91.5353L46.2019 88.7096L43.7131 85.8703C42.8812 84.9284 42.0631 83.9658 41.2175 83.0308H41.2242Z" fill="url(#paint1_linear_54_1656)"/>
<path d="M27.4123 83.0308C29.4198 83.7045 31.4067 84.4401 33.3729 85.2239C35.3392 86.0007 37.2848 86.8465 39.2167 87.7196C41.1417 88.6134 43.0324 89.5621 44.8749 90.614C46.7037 91.6659 48.5187 92.8208 50.0174 94.3264C48.4499 92.8964 46.6144 91.8171 44.7718 90.7996C42.9156 89.789 41.0318 88.8401 39.0999 87.967C37.1818 87.0733 35.243 86.2345 33.2974 85.4164C31.3449 84.6051 29.3856 83.8008 27.4193 83.0308H27.4123Z" fill="url(#paint2_linear_54_1656)"/>
<path d="M16.1097 84.2886C18.8529 84.6323 21.5755 85.1272 24.2705 85.7254C26.9724 86.3166 29.6468 87.0041 32.3074 87.781C34.9543 88.5923 37.5532 89.5342 40.1107 90.5861C42.6614 91.6517 45.1364 92.8961 47.5014 94.333C46.2776 93.6867 45.0882 92.9923 43.8232 92.4354C42.5925 91.8098 41.3136 91.2942 40.0486 90.7511C37.4842 89.7336 34.8788 88.8261 32.2319 88.0423C29.5919 87.238 26.9241 86.5229 24.2359 85.9041C22.8884 85.5947 21.5412 85.306 20.1868 85.0447C18.8324 84.7629 17.4777 84.5086 16.1165 84.2886H16.1097Z" fill="url(#paint3_linear_54_1656)"/>
<path d="M4.80716 88.0562C8.43032 88.1937 12.0535 88.4686 15.6629 88.833C19.2723 89.1973 22.8748 89.6168 26.4636 90.1737C30.0455 90.765 33.6204 91.4042 37.1404 92.2843C40.6674 93.1436 44.1601 94.1749 47.5014 95.5912L44.9437 94.663C44.0912 94.3536 43.2112 94.1268 42.3518 93.8518C41.4924 93.5699 40.6125 93.343 39.7394 93.1161C38.8594 92.8892 37.9931 92.6418 37.1062 92.4561C33.5793 91.6105 30.0041 91.0055 26.429 90.4418C22.854 89.8574 19.2586 89.4036 15.6492 89.0117C13.8479 88.8123 12.0397 88.6405 10.2384 88.4892C8.43025 88.3242 6.62889 88.173 4.81387 88.0562H4.80716Z" fill="url(#paint4_linear_54_1656)"/>
<path d="M3.55569 95.5845C7.11698 95.282 10.6922 95.062 14.2604 94.9176C17.8354 94.7595 21.4105 94.6564 24.9856 94.6289C28.5606 94.6289 32.1422 94.7114 35.7104 94.952C37.4979 95.0826 39.2786 95.2477 41.0523 95.5089C42.8192 95.7977 44.5863 96.1483 46.2432 96.8358C44.5726 96.1895 42.7987 95.8801 41.0319 95.6395C39.265 95.392 37.4843 95.2408 35.7037 95.1308C32.1355 94.9176 28.5606 94.8763 24.9856 94.897C21.4105 94.897 17.8353 94.9657 14.2671 95.0895L8.9114 95.3164C7.12388 95.392 5.33634 95.4745 3.55569 95.5776V95.5845Z" fill="url(#paint5_linear_54_1656)"/>
<path d="M23.6448 101.868C25.4804 101.38 27.3436 100.995 29.2136 100.672C31.0837 100.342 32.9674 100.081 34.858 99.8677C36.7487 99.6752 38.6462 99.5034 40.5437 99.4209C42.4413 99.3178 44.3457 99.3177 46.2432 99.3521C44.3457 99.4208 42.4481 99.4897 40.5575 99.6272C38.6669 99.7509 36.7761 99.9159 34.8923 100.136C33.0085 100.328 31.1248 100.59 29.2479 100.871C27.371 101.16 25.501 101.477 23.6448 101.862V101.868Z" fill="url(#paint6_linear_54_1656)"/>
<path d="M52.5201 94.3333C52.3688 93.3983 52.2245 92.4565 52.1008 91.5215L51.757 88.7026L51.475 85.8771C51.3857 84.9352 51.317 83.9864 51.2689 83.0376C51.427 83.9726 51.5645 84.9146 51.6882 85.8496L52.032 88.6682L52.3139 91.494C52.4033 92.4358 52.4721 93.3845 52.5271 94.3333H52.5201Z" fill="url(#paint7_linear_54_1656)"/>
<path d="M53.7783 94.3333C54.2595 92.3121 54.9194 90.339 55.6756 88.4002C56.0675 87.4377 56.4939 86.4889 56.9889 85.5676C57.4839 84.6532 58.0407 83.7526 58.7969 83.0308C58.1163 83.8145 57.6283 84.7358 57.1745 85.664C56.7276 86.5921 56.3013 87.5339 55.9301 88.5033C55.5382 89.4589 55.1739 90.4283 54.8233 91.4045C54.4727 92.3808 54.1151 93.3571 53.7783 94.3333Z" fill="url(#paint8_linear_54_1656)"/>
<path d="M55.0364 94.3333C56.5352 92.1058 58.2265 90.009 60.0622 88.0427C60.9903 87.0733 61.9459 86.1177 62.9841 85.2583C64.0222 84.3989 65.1152 83.6014 66.339 83.0308C65.1634 83.6908 64.1251 84.5364 63.1214 85.4164C62.1176 86.2964 61.1691 87.2452 60.2616 88.2284C59.3334 89.1909 58.4602 90.2083 57.5871 91.2258C56.7208 92.2502 55.8683 93.2814 55.0364 94.3333Z" fill="url(#paint9_linear_54_1656)"/>
<path d="M56.2876 95.5848C57.7726 93.7354 59.5396 92.1266 61.4372 90.7103C63.3415 89.294 65.3971 88.0772 67.5697 87.1078C69.7422 86.1522 71.9971 85.3685 74.3346 84.9353C75.4896 84.6603 76.672 84.5503 77.8477 84.4128C78.4321 84.3234 79.0302 84.3441 79.6215 84.3235L81.3953 84.2822C79.0303 84.406 76.6722 84.5916 74.3759 85.1416C72.0659 85.616 69.8245 86.3929 67.6794 87.3554C65.5138 88.2904 63.4788 89.5003 61.5607 90.8753C59.6494 92.2503 57.8413 93.7973 56.2876 95.5779V95.5848Z" fill="url(#paint10_linear_54_1656)"/>
<path d="M57.5458 96.8426C60.1996 95.5845 62.922 94.4706 65.6857 93.4599C68.4426 92.4424 71.2409 91.528 74.0597 90.703C76.8991 89.933 79.7729 89.2869 82.6673 88.785C85.5686 88.3175 88.5042 88.0356 91.4468 88.0562C89.9824 88.1319 88.511 88.1662 87.0535 88.3656C85.5891 88.4825 84.1455 88.7507 82.6948 88.9638C79.8073 89.4932 76.9542 90.1737 74.1285 90.9713C71.3029 91.7619 68.5046 92.6487 65.7408 93.6318C64.3589 94.1268 62.9841 94.6425 61.6228 95.1787C60.2547 95.7012 58.8933 96.2582 57.5458 96.8426Z" fill="url(#paint11_linear_54_1656)"/>
<path d="M57.5458 98.1012C60.7083 97.2418 63.9122 96.5337 67.1366 95.9218C70.361 95.31 73.5922 94.7668 76.851 94.3681C80.1098 94.0106 83.3822 93.7218 86.6685 93.6737C89.9479 93.6255 93.2412 93.7699 96.4725 94.3268L94.0316 94.0518C93.2204 93.9487 92.3953 93.9556 91.5841 93.9075C91.1784 93.8869 90.7661 93.8524 90.3605 93.8456H89.1298C88.3117 93.8456 87.4936 93.8112 86.6755 93.8593C83.403 93.9349 80.1373 94.2582 76.8923 94.6432C73.6404 95.0075 70.402 95.5231 67.1776 96.1006C65.5619 96.3893 63.9602 96.7057 62.3583 97.0494C60.7496 97.3726 59.1477 97.7162 57.5595 98.1012H57.5458Z" fill="url(#paint12_linear_54_1656)"/>
<path d="M57.5458 99.352C60.0552 98.9601 62.5988 98.7469 65.1426 98.6507C67.6864 98.5613 70.2371 98.6164 72.774 98.7746C75.3178 98.9396 77.8411 99.2902 80.3436 99.7714C82.8461 100.246 85.2936 100.988 87.6792 101.855C86.4555 101.497 85.2659 101.057 84.0215 100.796C83.4027 100.645 82.7909 100.473 82.1721 100.342L80.3023 99.9777C77.8067 99.5377 75.2904 99.187 72.7535 99.0426C70.2235 98.857 67.6864 98.8088 65.1426 98.857C62.6057 98.912 60.0688 99.0494 57.5387 99.3451L57.5458 99.352Z" fill="url(#paint13_linear_54_1656)"/>
<path d="M57.5458 100.61C60.4814 100.927 63.3619 101.648 66.1463 102.625C67.5351 103.133 68.8896 103.732 70.1958 104.419C71.5021 105.12 72.7259 105.952 73.8603 106.887C72.664 106.028 71.4059 105.265 70.0928 104.605C68.7728 103.959 67.432 103.367 66.0433 102.886C64.6614 102.384 63.2588 101.958 61.8356 101.58C60.4125 101.208 58.9827 100.872 57.532 100.617L57.5458 100.61Z" fill="url(#paint14_linear_54_1656)"/>
<path d="M56.2876 101.869C57.862 103.024 59.3127 104.344 60.6533 105.767C61.3133 106.489 61.9526 107.238 62.5027 108.049C63.0527 108.854 63.5545 109.72 63.8226 110.662C63.4582 109.754 62.9014 108.95 62.3308 108.173C61.7533 107.396 61.1208 106.661 60.4539 105.952C59.8076 105.231 59.1133 104.55 58.4189 103.869C57.7176 103.195 57.0165 102.522 56.2946 101.869H56.2876Z" fill="url(#paint15_linear_54_1656)"/>
<path d="M53.7783 101.868C53.7095 102.233 53.7644 102.597 53.8263 102.961C53.8813 103.326 53.957 103.683 54.0257 104.048C54.1632 104.776 54.2594 105.512 54.3144 106.254C54.3557 106.997 54.3353 107.746 54.2459 108.482C54.1703 109.224 53.9912 109.946 53.7712 110.654C53.8744 109.919 53.9984 109.197 54.0328 108.461C54.074 107.733 54.0946 106.997 54.0328 106.268C53.9984 105.539 53.9021 104.811 53.8058 104.075C53.7371 103.353 53.5377 102.59 53.7645 101.861L53.7783 101.868Z" fill="url(#paint16_linear_54_1656)"/>
<path d="M50.0106 103.12C49.4331 103.89 48.8761 104.653 48.4292 105.485C47.9617 106.31 47.6251 107.19 47.5013 108.139C47.4532 107.657 47.5149 107.169 47.6386 106.695C47.7692 106.227 47.9755 105.78 48.1955 105.347C48.6837 104.508 49.2749 103.732 50.0174 103.113L50.0106 103.12Z" fill="url(#paint17_linear_54_1656)"/>
<path d="M48.7525 101.868C48.0582 101.964 47.3981 102.198 46.7793 102.508C46.1606 102.817 45.5901 103.202 45.0676 103.656C44.5382 104.103 44.0774 104.618 43.6442 105.161C43.4242 105.429 43.2389 105.725 43.0326 106.007L42.4686 106.894C42.613 106.571 42.7642 106.254 42.9154 105.938C43.1011 105.643 43.2661 105.326 43.4724 105.038C43.878 104.46 44.3526 103.924 44.882 103.449C45.432 102.996 46.0233 102.597 46.6833 102.315C47.3364 102.04 48.0375 101.848 48.7388 101.868H48.7525Z" fill="url(#paint18_linear_54_1656)"/>
<path d="M46.2432 100.61C45.267 100.83 44.3045 101.078 43.3351 101.325C42.3726 101.58 41.4099 101.834 40.4612 102.137C39.5124 102.425 38.5636 102.735 37.6423 103.106C36.7211 103.477 35.8069 103.876 34.9406 104.378C35.7519 103.787 36.6457 103.319 37.5601 102.913C38.4745 102.501 39.4298 102.185 40.3786 101.875C42.2967 101.305 44.2561 100.851 46.2362 100.61H46.2432Z" fill="url(#paint19_linear_54_1656)"/>
<path d="M56.2876 98.1008C56.2876 98.5614 56.0609 99.0083 55.7377 99.3314C55.4146 99.6614 55.0224 99.9159 54.6031 100.115C53.7643 100.514 52.8295 100.693 51.9014 100.734C50.9664 100.755 50.0176 100.645 49.1238 100.273C48.6838 100.088 48.2574 99.8402 47.8999 99.4895C47.5424 99.1458 47.2743 98.6439 47.2674 98.1008C47.2812 97.5576 47.5492 97.0628 47.8999 96.7121C48.2574 96.3615 48.6838 96.1139 49.1238 95.9283C50.0107 95.557 50.9664 95.4471 51.9014 95.4677C52.8364 95.509 53.7643 95.6876 54.6031 96.0864C55.0224 96.2789 55.4146 96.5403 55.7377 96.8703C56.0609 97.1934 56.2876 97.6401 56.2876 98.1008ZM56.2876 98.1008C56.2738 97.6401 56.0471 97.2003 55.724 96.884C55.394 96.5609 54.9953 96.3271 54.5759 96.1483C53.7302 95.7977 52.802 95.6876 51.9014 95.7082C51.0007 95.7426 50.0932 95.9214 49.2957 96.3065C48.5188 96.664 47.7557 97.3032 47.7488 98.1008C47.7488 98.8983 48.5188 99.5308 49.2957 99.8952C50.0932 100.28 51.0007 100.452 51.9014 100.493C52.802 100.514 53.7302 100.404 54.5759 100.053C54.9953 99.8746 55.4008 99.6408 55.724 99.3177C56.054 99.0014 56.2807 98.5614 56.2876 98.1008Z" fill="#FBF8F3"/>
<path d="M55.0364 98.1008C55.0296 98.4171 54.7683 98.644 54.5208 98.8021C54.2664 98.9602 53.9846 99.0771 53.689 99.1665C53.1114 99.3521 52.5062 99.4483 51.8943 99.4758C51.2824 99.5033 50.6639 99.4759 50.052 99.3315C49.7495 99.2558 49.4401 99.1596 49.1513 98.9877C48.8832 98.8158 48.5393 98.5683 48.5118 98.1008C48.5393 97.6264 48.8832 97.3791 49.1513 97.2141C49.4401 97.0422 49.7426 96.9459 50.052 96.8703C50.6639 96.7259 51.2824 96.6983 51.8943 96.7258C52.5062 96.7602 53.1114 96.8566 53.689 97.0353C53.9777 97.1247 54.2596 97.2416 54.5208 97.3997C54.7683 97.5578 55.0296 97.7846 55.0364 98.1008ZM55.0364 98.1008C55.0227 97.7846 54.7613 97.5646 54.5138 97.4202C54.2525 97.2689 53.9639 97.1796 53.6752 97.104C53.0908 96.9733 52.4926 96.9459 51.9014 96.9665C51.3101 97.0009 50.7188 97.0971 50.1688 97.269C49.8938 97.3515 49.6256 97.4683 49.3988 97.6058C49.1719 97.7433 48.9931 97.9427 48.9999 98.1008C48.9999 98.2589 49.1719 98.4585 49.3988 98.596C49.6256 98.7403 49.8938 98.8503 50.1688 98.9328C50.7188 99.1116 51.3101 99.2009 51.9014 99.2353C52.4926 99.2628 53.0975 99.2353 53.6819 99.0978C53.9707 99.0291 54.2596 98.9327 54.5208 98.7814C54.7683 98.6302 55.0294 98.4102 55.0432 98.1008H55.0364Z" fill="#FBF8F3"/>
<path d="M99.1757 88.1328C99.1757 88.1328 103.598 77.409 105.491 70.4651C107.384 63.5278 111.184 41.4451 128.858 31.3569C128.858 31.3569 136.431 28.206 147.783 35.7854C147.783 35.7854 149.676 37.0497 150.941 35.1565C152.205 33.2634 150.994 39.1878 150.994 39.1878L125.045 78.0511L99.7983 91.2902L99.1693 88.1328H99.1757Z" fill="url(#paint20_radial_54_1656)"/>
<path d="M119.855 4.77295C119.855 4.77295 109.251 15.5298 102.936 32.509C96.6208 49.4815 97.8853 90.4828 97.8853 90.4828C97.8853 90.4828 124.397 63.5811 125.409 51.9902C126.422 40.3928 124.145 10.9887 119.855 4.77295Z" fill="url(#paint21_radial_54_1656)"/>
<path d="M122.007 7.88431C126.759 17.2179 131.731 35.0179 125.416 51.9971C125.416 51.9971 118.723 45.5694 119.485 36.878L121 19.4818C121.755 10.7837 119.862 4.77979 119.862 4.77979C119.862 4.77979 121.57 7.02377 122.007 7.88431Z" fill="url(#paint22_radial_54_1656)"/>
<path d="M103.015 86.7356C103.015 86.7356 72.2409 50.0236 59.9352 48.2033C47.6295 46.3829 32.987 56.3386 28.6313 58.0796C24.5802 59.7014 19 61.9256 19 61.9256C19 61.9256 20.1782 71.5636 44.6837 80.2948C69.1893 89.026 96.5744 93.8053 103.015 86.7422" fill="url(#paint23_radial_54_1656)"/>
<path d="M105.081 89.1715C105.081 89.1715 69.8247 90.78 64.2841 88.5029C58.7436 86.2258 31.9479 76.9518 27.6319 71.9408C27.6319 71.9408 36.3962 70.6898 38.3887 69.8888C40.3878 69.0945 43.1545 70.2264 43.929 72.1659C44.7035 74.1054 47.4705 75.2373 47.4705 75.2373C47.4705 75.2373 56.235 73.9863 62.55 78.1964C68.8651 82.4064 67.7795 91.6141 105.081 89.1715Z" fill="url(#paint24_radial_54_1656)"/>
<path d="M62.722 6.22266C62.722 6.22266 81.9121 19.72 84.2356 20.832C86.5524 21.9441 104.716 43.5306 102.856 53.3606C100.996 63.1906 102.545 89.6886 102.545 89.6886C102.545 89.6886 68.9842 58.5768 67.0513 44.7751C65.1183 30.9733 62.722 6.22266 62.722 6.22266Z" fill="url(#paint25_radial_54_1656)"/>
<path d="M102.545 89.6819C102.545 89.6819 59.0681 49.5211 61.3121 26.9948C63.5561 4.46847 62.722 6.2161 62.722 6.2161C62.722 6.2161 70.3214 14.1528 66.3298 16.5292C62.3382 18.9057 68.4546 23.9829 71.4202 29.6956C74.3857 35.4083 72.5191 45.2449 74.644 52.6985C76.7688 60.1522 96.4154 84.5981 102.539 89.6752L102.545 89.6819Z" fill="url(#paint26_radial_54_1656)"/>
<path d="M82.6137 15.9399C82.6137 15.9399 78.6289 9.96239 84.6063 1.98584L88.5913 9.9558C90.5838 13.9408 88.5913 22.2682 88.5913 22.2682L82.6137 15.9333V15.9399Z" fill="url(#paint27_radial_54_1656)"/>
<path d="M99.4143 12.1333C99.4143 12.1333 98.5602 3.9846 92.5827 1.99211C92.5827 1.99211 88.181 0.0725203 85.4008 13.9868C82.6205 27.9011 99.4207 12.1333 99.4207 12.1333H99.4143Z" fill="url(#paint28_radial_54_1656)"/>
<path d="M102.545 0C102.545 0 102.545 1.99253 94.5754 11.9616C86.6054 21.924 92.5827 33.8854 92.5827 33.8854L104.544 15.9465C104.544 15.9465 104.544 5.98407 102.552 0H102.545Z" fill="url(#paint29_radial_54_1656)"/>
<path d="M104.538 23.9164C104.538 23.9164 100.553 9.96231 92.5761 3.98486C92.5761 3.98486 80.6147 13.9472 80.6147 35.8712C80.6147 57.7951 98.5534 59.7877 98.5534 59.7877C98.5534 59.7877 106.524 39.8563 104.531 23.9098L104.538 23.9164Z" fill="url(#paint30_radial_54_1656)"/>
<path d="M102.545 0C102.545 0 106.53 9.96248 98.5603 15.9465C90.5903 21.924 84.6063 53.8169 94.5753 85.7033C94.5753 85.7033 128.454 65.7718 118.492 39.8629C108.529 13.954 106.53 9.96904 102.545 0Z" fill="url(#paint31_radial_54_1656)"/>
<path d="M102.545 17.9324C102.545 17.9324 110.515 29.8938 112.508 39.8563C114.46 49.6267 116.493 79.7192 96.5613 91.6741C96.5613 91.6741 78.6225 71.7427 80.615 53.8037C82.6074 35.8647 98.5537 27.8948 102.539 17.9258L102.545 17.9324Z" fill="url(#paint32_radial_54_1656)"/>
<path d="M80.6213 9.96191C80.6213 9.96191 78.6289 19.9244 74.644 25.9085C70.659 31.8859 62.6824 71.7487 94.5753 89.6877C94.5753 89.6877 106.537 49.8248 96.5677 35.8774C86.6052 21.9234 88.5978 17.9385 80.6213 9.96854V9.96191Z" fill="url(#paint33_radial_54_1656)"/>
<path d="M78.6291 37.8638C78.6291 37.8638 84.6063 45.8338 96.5678 51.8178C108.529 57.7953 110.522 83.7042 96.5678 91.6807C96.5678 91.6807 74.6441 95.6658 70.6592 71.7494C66.6742 47.8329 78.6291 45.8403 78.6291 37.8704V37.8638Z" fill="url(#paint34_radial_54_1656)"/>
<path d="M96.5677 91.6807C96.5677 91.6807 123.787 88.1459 133.26 69.856C142.733 51.5596 151.576 38.314 151.576 38.314C151.576 38.314 140.846 50.2953 136.424 52.8173C132.009 55.3394 118.757 54.7038 110.542 71.1004C102.334 87.5037 96.5612 91.674 96.5612 91.674L96.5677 91.6807Z" fill="url(#paint35_linear_54_1656)"/>
<defs>
<radialGradient id="paint0_radial_54_1656" cx="0" cy="0" r="1" gradientUnits="userSpaceOnUse" gradientTransform="translate(50.7671 95.8694) rotate(-4.35999) scale(37.6204 18.8102)">
<stop stop-color="#4C6F62"/>
<stop offset="0.63" stop-color="#62B497"/>
<stop offset="0.87" stop-color="#88C5AE"/>
</radialGradient>
<linearGradient id="paint1_linear_54_1656" x1="41.1281" y1="88.682" x2="51.3719" y2="88.682" gradientUnits="userSpaceOnUse">
<stop stop-color="#FAF7F3"/>
<stop offset="0.39" stop-color="#FAD0B6"/>
<stop offset="1" stop-color="#F5EFB2"/>
</linearGradient>
<linearGradient id="paint2_linear_54_1656" x1="27.3642" y1="88.682" x2="50.1068" y2="88.682" gradientUnits="userSpaceOnUse">
<stop stop-color="#FAF7F3"/>
<stop offset="0.39" stop-color="#FAD0B6"/>
<stop offset="1" stop-color="#F5EFB2"/>
</linearGradient>
<linearGradient id="paint3_linear_54_1656" x1="16.1097" y1="89.3073" x2="47.5908" y2="89.3073" gradientUnits="userSpaceOnUse">
<stop stop-color="#FAF7F3"/>
<stop offset="0.39" stop-color="#FAD0B6"/>
<stop offset="1" stop-color="#F5EFB2"/>
</linearGradient>
<linearGradient id="paint4_linear_54_1656" x1="4.80716" y1="91.8237" x2="47.5564" y2="91.8237" gradientUnits="userSpaceOnUse">
<stop stop-color="#FAF7F3"/>
<stop offset="0.39" stop-color="#FAD0B6"/>
<stop offset="1" stop-color="#F5EFB2"/>
</linearGradient>
<linearGradient id="paint5_linear_54_1656" x1="3.55569" y1="95.7358" x2="46.3051" y2="95.7358" gradientUnits="userSpaceOnUse">
<stop stop-color="#FAF7F3"/>
<stop offset="0.39" stop-color="#FAD0B6"/>
<stop offset="1" stop-color="#F5EFB2"/>
</linearGradient>
<linearGradient id="paint6_linear_54_1656" x1="23.6104" y1="100.597" x2="46.2432" y2="100.597" gradientUnits="userSpaceOnUse">
<stop stop-color="#FAF7F3"/>
<stop offset="0.39" stop-color="#FAD0B6"/>
<stop offset="1" stop-color="#F5EFB2"/>
</linearGradient>
<linearGradient id="paint7_linear_54_1656" x1="51.1314" y1="88.682" x2="52.6577" y2="88.682" gradientUnits="userSpaceOnUse">
<stop stop-color="#FAF7F3"/>
<stop offset="0.39" stop-color="#FAD0B6"/>
<stop offset="1" stop-color="#F5EFB2"/>
</linearGradient>
<linearGradient id="paint8_linear_54_1656" x1="53.6476" y1="88.682" x2="58.9" y2="88.682" gradientUnits="userSpaceOnUse">
<stop stop-color="#FAF7F3"/>
<stop offset="0.39" stop-color="#FAD0B6"/>
<stop offset="1" stop-color="#F5EFB2"/>
</linearGradient>
<linearGradient id="paint9_linear_54_1656" x1="54.9196" y1="88.682" x2="66.394" y2="88.682" gradientUnits="userSpaceOnUse">
<stop stop-color="#FAF7F3"/>
<stop offset="0.39" stop-color="#FAD0B6"/>
<stop offset="1" stop-color="#F5EFB2"/>
</linearGradient>
<linearGradient id="paint10_linear_54_1656" x1="56.1776" y1="89.9404" x2="81.4022" y2="89.9404" gradientUnits="userSpaceOnUse">
<stop stop-color="#FAF7F3"/>
<stop offset="0.39" stop-color="#FAD0B6"/>
<stop offset="1" stop-color="#F5EFB2"/>
</linearGradient>
<linearGradient id="paint11_linear_54_1656" x1="57.4839" y1="92.4494" x2="91.4468" y2="92.4494" gradientUnits="userSpaceOnUse">
<stop stop-color="#FAF7F3"/>
<stop offset="0.39" stop-color="#FAD0B6"/>
<stop offset="1" stop-color="#F5EFB2"/>
</linearGradient>
<linearGradient id="paint12_linear_54_1656" x1="57.5458" y1="95.8874" x2="96.5275" y2="95.8874" gradientUnits="userSpaceOnUse">
<stop stop-color="#FAF7F3"/>
<stop offset="0.39" stop-color="#FAD0B6"/>
<stop offset="1" stop-color="#F5EFB2"/>
</linearGradient>
<linearGradient id="paint13_linear_54_1656" x1="57.5456" y1="100.239" x2="87.748" y2="100.239" gradientUnits="userSpaceOnUse">
<stop stop-color="#FAF7F3"/>
<stop offset="0.39" stop-color="#FAD0B6"/>
<stop offset="1" stop-color="#F5EFB2"/>
</linearGradient>
<linearGradient id="paint14_linear_54_1656" x1="57.5251" y1="103.752" x2="73.9497" y2="103.752" gradientUnits="userSpaceOnUse">
<stop stop-color="#FAF7F3"/>
<stop offset="0.39" stop-color="#FAD0B6"/>
<stop offset="1" stop-color="#F5EFB2"/>
</linearGradient>
<linearGradient id="paint15_linear_54_1656" x1="56.2051" y1="106.262" x2="63.9532" y2="106.262" gradientUnits="userSpaceOnUse">
<stop stop-color="#FAF7F3"/>
<stop offset="0.39" stop-color="#FAD0B6"/>
<stop offset="1" stop-color="#F5EFB2"/>
</linearGradient>
<linearGradient id="paint16_linear_54_1656" x1="53.5789" y1="106.261" x2="54.3488" y2="106.261" gradientUnits="userSpaceOnUse">
<stop stop-color="#FAF7F3"/>
<stop offset="0.39" stop-color="#FAD0B6"/>
<stop offset="1" stop-color="#F5EFB2"/>
</linearGradient>
<linearGradient id="paint17_linear_54_1656" x1="47.3638" y1="105.629" x2="50.1067" y2="105.629" gradientUnits="userSpaceOnUse">
<stop stop-color="#FAF7F3"/>
<stop offset="0.39" stop-color="#FAD0B6"/>
<stop offset="1" stop-color="#F5EFB2"/>
</linearGradient>
<linearGradient id="paint18_linear_54_1656" x1="42.3518" y1="104.378" x2="48.7525" y2="104.378" gradientUnits="userSpaceOnUse">
<stop stop-color="#FAF7F3"/>
<stop offset="0.39" stop-color="#FAD0B6"/>
<stop offset="1" stop-color="#F5EFB2"/>
</linearGradient>
<linearGradient id="paint19_linear_54_1656" x1="34.865" y1="102.494" x2="46.2638" y2="102.494" gradientUnits="userSpaceOnUse">
<stop stop-color="#FAF7F3"/>
<stop offset="0.39" stop-color="#FAD0B6"/>
<stop offset="1" stop-color="#F5EFB2"/>
</linearGradient>
<radialGradient id="paint20_radial_54_1656" cx="0" cy="0" r="1" gradientUnits="userSpaceOnUse" gradientTransform="translate(117.207 64.6783) rotate(123.72) scale(28.3581 28.3581)">
<stop stop-color="#FBF8F3"/>
<stop offset="0.06" stop-color="#FBEBDF"/>
<stop offset="0.56" stop-color="#FAD0B6"/>
<stop offset="1" stop-color="#F3A096"/>
</radialGradient>
<radialGradient id="paint21_radial_54_1656" cx="0" cy="0" r="1" gradientUnits="userSpaceOnUse" gradientTransform="translate(117.444 55.6947) rotate(-175.02) scale(27.1365 32.9068)">
<stop stop-color="#FBF8F3"/>
<stop offset="0.06" stop-color="#FBEBDF"/>
<stop offset="0.56" stop-color="#FAD0B6"/>
<stop offset="1" stop-color="#F5B0A1"/>
</radialGradient>
<radialGradient id="paint22_radial_54_1656" cx="0" cy="0" r="1" gradientUnits="userSpaceOnUse" gradientTransform="translate(134.271 47.277) rotate(-175.02) scale(39.3455 47.7122)">
<stop stop-color="#FBF8F3"/>
<stop offset="0.06" stop-color="#FBEBDF"/>
<stop offset="0.2" stop-color="#FAD0B6"/>
<stop offset="0.52" stop-color="#EE7F80"/>
</radialGradient>
<radialGradient id="paint23_radial_54_1656" cx="0" cy="0" r="1" gradientUnits="userSpaceOnUse" gradientTransform="translate(63.8318 73.5294) rotate(-21.77) scale(31.6891 30.9689)">
<stop stop-color="#FBF8F3"/>
<stop offset="0.06" stop-color="#FBEBDF"/>
<stop offset="0.56" stop-color="#FAD0B6"/>
<stop offset="1" stop-color="#F3A096"/>
</radialGradient>
<radialGradient id="paint24_radial_54_1656" cx="0" cy="0" r="1" gradientUnits="userSpaceOnUse" gradientTransform="translate(69.3131 79.9744) rotate(-21.7699) scale(28.226 27.5844)">
<stop stop-color="#FBF8F3"/>
<stop offset="0.06" stop-color="#FBEBDF"/>
<stop offset="0.2" stop-color="#FAD0B6"/>
<stop offset="0.52" stop-color="#EE7F80"/>
</radialGradient>
<radialGradient id="paint25_radial_54_1656" cx="0" cy="0" r="1" gradientUnits="userSpaceOnUse" gradientTransform="translate(70.8749 52.8893) rotate(-154.38) scale(37.4377 28.2549)">
<stop stop-color="#FBF8F3"/>
<stop offset="0.06" stop-color="#FBEBDF"/>
<stop offset="0.56" stop-color="#FAD0B6"/>
<stop offset="1" stop-color="#F3A096"/>
</radialGradient>
<radialGradient id="paint26_radial_54_1656" cx="0" cy="0" r="1" gradientUnits="userSpaceOnUse" gradientTransform="translate(70.8841 52.8702) rotate(-154.38) scale(37.4553 28.2681)">
<stop stop-color="#FBF8F3"/>
<stop offset="0.06" stop-color="#FBEBDF"/>
<stop offset="0.2" stop-color="#FAD0B6"/>
<stop offset="0.52" stop-color="#EE7F80"/>
</radialGradient>
<radialGradient id="paint27_radial_54_1656" cx="0" cy="0" r="1" gradientUnits="userSpaceOnUse" gradientTransform="translate(85.394 15.4236) rotate(180) scale(9.06887 9.06882)">
<stop stop-color="#FBF8F3"/>
<stop offset="0.06" stop-color="#FBEBDF"/>
<stop offset="0.56" stop-color="#FAD0B6"/>
<stop offset="1" stop-color="#F3A096"/>
</radialGradient>
<radialGradient id="paint28_radial_54_1656" cx="0" cy="0" r="1" gradientUnits="userSpaceOnUse" gradientTransform="translate(92.2453 13.7021) rotate(180) scale(10.6441 10.6443)">
<stop stop-color="#FBF8F3"/>
<stop offset="0.06" stop-color="#FBEBDF"/>
<stop offset="0.56" stop-color="#FAD0B6"/>
<stop offset="1" stop-color="#F3A096"/>
</radialGradient>
<radialGradient id="paint29_radial_54_1656" cx="0" cy="0" r="1" gradientUnits="userSpaceOnUse" gradientTransform="translate(97.4813 22.4402) rotate(180) scale(15.2913 15.2911)">
<stop stop-color="#FBF8F3"/>
<stop offset="0.06" stop-color="#FBEBDF"/>
<stop offset="0.56" stop-color="#FAD0B6"/>
<stop offset="1" stop-color="#F3A096"/>
</radialGradient>
<radialGradient id="paint30_radial_54_1656" cx="0" cy="0" r="1" gradientUnits="userSpaceOnUse" gradientTransform="translate(92.7417 40.9484) rotate(180) scale(25.4852 25.4853)">
<stop stop-color="#FBF8F3"/>
<stop offset="0.06" stop-color="#FBEBDF"/>
<stop offset="0.64" stop-color="#FAD0B6"/>
<stop offset="1" stop-color="#EE7F80"/>
</radialGradient>
<radialGradient id="paint31_radial_54_1656" cx="0" cy="0" r="1" gradientUnits="userSpaceOnUse" gradientTransform="translate(99.1295 60.8535) rotate(180) scale(68.2143 68.2144)">
<stop stop-color="#FBF8F3"/>
<stop offset="0.06" stop-color="#FBEBDF"/>
<stop offset="0.2" stop-color="#FAD0B6"/>
<stop offset="0.97" stop-color="#EE7F80"/>
</radialGradient>
<radialGradient id="paint32_radial_54_1656" cx="0" cy="0" r="1" gradientUnits="userSpaceOnUse" gradientTransform="translate(105.061 75.2113) rotate(180) scale(34.8981 34.8982)">
<stop stop-color="#FBF8F3"/>
<stop offset="0.06" stop-color="#FBEBDF"/>
<stop offset="0.2" stop-color="#FAD0B6"/>
<stop offset="1" stop-color="#EE7F80"/>
</radialGradient>
<radialGradient id="paint33_radial_54_1656" cx="0" cy="0" r="1" gradientUnits="userSpaceOnUse" gradientTransform="translate(86.5392 86.9671) rotate(180) scale(0.330975 0.330977)">
<stop stop-color="#FBF8F3"/>
<stop offset="0.06" stop-color="#FBEBDF"/>
<stop offset="0.55" stop-color="#FAD0B6"/>
<stop offset="0.97" stop-color="#EE7F80"/>
</radialGradient>
<radialGradient id="paint34_radial_54_1656" cx="0" cy="0" r="1" gradientUnits="userSpaceOnUse" gradientTransform="translate(73.1415 91.3431) rotate(180) scale(77.4019 77.4024)">
<stop stop-color="#FBF8F3"/>
<stop offset="0.06" stop-color="#FBEBDF"/>
<stop offset="0.2" stop-color="#FAD0B6"/>
<stop offset="0.56" stop-color="#EE7F80"/>
</radialGradient>
<linearGradient id="paint35_linear_54_1656" x1="123.866" y1="96.6269" x2="124.076" y2="32.2318" gradientUnits="userSpaceOnUse">
<stop stop-color="#FBEBDF"/>
<stop offset="0.2" stop-color="#FAD0B6"/>
<stop offset="0.52" stop-color="#EE7F80"/>
</linearGradient>
</defs>
</svg>
