<svg width="146" height="150" viewBox="0 0 146 150" fill="none" xmlns="http://www.w3.org/2000/svg">
<path d="M52.147 68.3198C52.147 68.3198 60.8536 89.0844 66.4496 98.9696C72.0045 108.793 81.3311 123.454 86.8758 130.526L83.9858 133.744C83.9858 133.744 68.812 108.993 64.4408 100.548C60.2336 92.4255 50.1382 69.8981 50.1382 69.8981L52.1522 68.3198H52.147Z" fill="url(#paint0_linear_48_1609)"/>
<path d="M40.5657 68.2282C40.5657 68.2282 37.1425 59.9264 35.6769 54.5508C34.2113 49.1803 31.2697 32.085 17.5872 24.2752C17.5872 24.2752 11.7249 21.8359 2.93634 27.7035C2.93634 27.7035 1.47072 28.6823 0.491935 27.2167C-0.486848 25.7511 0.450899 30.3374 0.450899 30.3374L20.5391 60.4234L40.0838 70.6725L40.5707 68.2282H40.5657Z" fill="url(#paint1_radial_48_1609)"/>
<path d="M24.5566 3.69482C24.5566 3.69482 32.7661 12.0222 37.6549 25.1666C42.5437 38.3059 41.5648 70.047 41.5648 70.047C41.5648 70.047 21.0411 49.2211 20.2571 40.248C19.473 31.2699 21.2359 8.50674 24.5566 3.69482Z" fill="url(#paint2_radial_48_1609)"/>
<path d="M22.8914 6.10307C19.212 13.3286 15.3635 27.1085 20.2523 40.2529C20.2523 40.2529 25.4332 35.277 24.8438 28.5485L23.6703 15.0812C23.0861 8.34762 24.5518 3.69971 24.5518 3.69971C24.5518 3.69971 23.2296 5.43689 22.8914 6.10307Z" fill="url(#paint3_radial_48_1609)"/>
<path d="M37.5934 67.1466C37.5934 67.1466 61.4173 38.7261 70.9438 37.3168C80.4702 35.9076 91.8057 43.6148 95.1776 44.9626C98.3138 46.2181 102.634 47.94 102.634 47.94C102.634 47.94 101.722 55.4013 82.7507 62.1605C63.7797 68.9197 42.5795 72.6196 37.5934 67.1518" fill="url(#paint4_radial_48_1609)"/>
<path d="M35.9945 69.0325C35.9945 69.0325 63.2879 70.2777 67.5771 68.5149C71.8663 66.752 92.6101 59.5726 95.9513 55.6933C95.9513 55.6933 89.1665 54.7249 87.624 54.1048C86.0764 53.4899 83.9345 54.3661 83.335 55.8676C82.7354 57.3691 80.5933 58.2453 80.5933 58.2453C80.5933 58.2453 73.8083 57.2769 68.9195 60.5361C64.0307 63.7953 64.8711 70.9234 35.9945 69.0325Z" fill="url(#paint5_radial_48_1609)"/>
<path d="M68.7862 4.81787C68.7862 4.81787 53.9302 15.2668 52.1315 16.1277C50.338 16.9886 36.2763 33.6997 37.7163 41.3096C39.1563 48.9195 37.957 69.4329 37.957 69.4329C37.957 69.4329 63.9384 45.3478 65.4348 34.6632C66.9311 23.9786 68.7862 4.81787 68.7862 4.81787Z" fill="url(#paint6_radial_48_1609)"/>
<path d="M37.9572 69.4269C37.9572 69.4269 71.615 38.3365 69.8778 20.8978C68.1406 3.45908 68.7863 4.81201 68.7863 4.81201C68.7863 4.81201 62.9033 10.9562 65.9934 12.7959C69.0834 14.6356 64.3484 18.5662 62.0526 22.9886C59.7568 27.4111 61.2019 35.0261 59.5569 40.7963C57.912 46.5665 42.7026 65.4913 37.9624 69.4218L37.9572 69.4269Z" fill="url(#paint7_radial_48_1609)"/>
<path d="M53.3872 12.3401C53.3872 12.3401 56.472 7.71264 51.8446 1.5376L48.7596 7.70753C47.2172 10.7925 48.7596 17.2392 48.7596 17.2392L53.3872 12.335V12.3401Z" fill="url(#paint8_radial_48_1609)"/>
<path d="M40.3811 9.39343C40.3811 9.39343 41.0423 3.08512 45.6698 1.54264C45.6698 1.54264 49.0774 0.0565888 51.2297 10.8283C53.382 21.6001 40.3761 9.39343 40.3761 9.39343H40.3811Z" fill="url(#paint9_radial_48_1609)"/>
<path d="M37.9572 0C37.9572 0 37.9572 1.54251 44.1271 9.26003C50.297 16.9724 45.6697 26.2324 45.6697 26.2324L36.4095 12.345C36.4095 12.345 36.4097 4.63256 37.9522 0H37.9572Z" fill="url(#paint10_radial_48_1609)"/>
<path d="M36.4149 18.5149C36.4149 18.5149 39.4998 7.7124 45.6748 3.08496C45.6748 3.08496 54.9347 10.7973 54.9347 27.7697C54.9347 44.7421 41.0475 46.2846 41.0475 46.2846C41.0475 46.2846 34.8774 30.8548 36.4199 18.5098L36.4149 18.5149Z" fill="url(#paint11_radial_48_1609)"/>
<path d="M37.9573 0C37.9573 0 34.8723 7.71244 41.0423 12.345C47.2122 16.9724 51.8447 41.6623 44.1272 66.3471C44.1272 66.3471 17.9 50.9172 25.6124 30.8598C33.3248 10.8025 34.8723 7.71752 37.9573 0Z" fill="url(#paint12_radial_48_1609)"/>
<path d="M37.9571 13.8826C37.9571 13.8826 31.7873 23.1425 30.2448 30.8549C28.7331 38.4187 27.1598 61.7147 42.5897 70.9696C42.5897 70.9696 56.4771 55.5397 54.9346 41.6523C53.3921 27.7649 41.0473 21.595 37.9624 13.8774L37.9571 13.8826Z" fill="url(#paint13_radial_48_1609)"/>
<path d="M54.9297 7.7124C54.9297 7.7124 56.472 15.4248 59.557 20.0574C62.6419 24.6848 68.817 55.5446 44.1271 69.432C44.1271 69.432 34.8673 38.5722 42.5848 27.7748C50.2972 16.9724 48.7546 13.8874 54.9297 7.71753V7.7124Z" fill="url(#paint14_radial_48_1609)"/>
<path d="M56.4718 29.3125C56.4718 29.3125 51.8446 35.4825 42.5846 40.115C33.3246 44.7425 31.7821 64.7998 42.5846 70.9748C42.5846 70.9748 59.5568 74.0599 62.6417 55.545C65.7267 37.0301 56.4718 35.4875 56.4718 29.3176V29.3125Z" fill="url(#paint15_radial_48_1609)"/>
<path d="M42.5848 70.9744C42.5848 70.9744 21.5127 68.2379 14.1795 54.0789C6.84631 39.9147 0 29.6606 0 29.6606C0 29.6606 8.30691 38.936 11.7301 40.8884C15.1481 42.8409 25.4072 42.3488 31.7667 55.0423C38.1211 67.7408 42.5898 70.9693 42.5898 70.9693L42.5848 70.9744Z" fill="url(#paint16_linear_48_1609)"/>
<path d="M29.3531 120.99C35.7484 119.709 32.9403 118.32 43.4199 117.152C54.9296 115.871 49.8154 117.152 71.5485 118.433C93.5839 119.729 90.7295 114.595 108.629 124.828C126.529 135.057 76.6626 149.124 67.7101 149.124C58.7576 149.124 38.3004 138.895 33.1862 140.171C28.0719 141.452 3.77676 135.057 10.1722 126.104C16.5676 117.152 27.0931 121.441 29.3531 120.99Z" fill="url(#paint17_radial_48_1609)"/>
<path d="M51.0913 119.714C52.0137 120.606 52.8954 121.538 53.7717 122.481C54.6428 123.424 55.4984 124.383 56.3542 125.341C57.1946 126.309 58.0402 127.278 58.8704 128.257C59.7006 129.235 60.5154 130.224 61.3251 131.224C60.459 130.276 59.6032 129.317 58.7526 128.359L56.2006 125.474L53.6588 122.584C52.8082 121.625 51.9626 120.657 51.0966 119.709L51.0913 119.714Z" fill="url(#paint18_linear_48_1609)"/>
<path d="M37.0247 119.714C39.0642 120.411 41.0832 121.175 43.0817 121.984C45.0803 122.789 47.0637 123.634 49.0315 124.526C50.9891 125.433 52.9106 126.417 54.7913 127.473C56.6618 128.533 58.5118 129.697 60.0492 131.219C59.6341 130.87 59.2394 130.506 58.8141 130.178C58.3734 129.871 57.9378 129.553 57.4919 129.251L56.1287 128.39C55.6675 128.113 55.1961 127.857 54.7298 127.585C52.8439 126.55 50.9171 125.587 48.9544 124.705C47.002 123.798 45.029 122.927 43.0407 122.102C41.0473 121.287 39.0489 120.478 37.0349 119.709L37.0247 119.714Z" fill="url(#paint19_linear_48_1609)"/>
<path d="M25.515 120.99C28.3028 121.354 31.0751 121.872 33.8218 122.481C36.5686 123.086 39.2947 123.788 41.9953 124.588C44.6857 125.413 47.3402 126.366 49.9485 127.427C52.5467 128.513 55.0732 129.769 57.4817 131.224C56.2415 130.558 55.0271 129.85 53.7409 129.277C52.4854 128.641 51.1837 128.113 49.8975 127.555C47.284 126.514 44.6345 125.587 41.939 124.782C39.2486 123.968 36.5327 123.245 33.7911 122.615C32.4228 122.302 31.0444 122.01 29.6659 121.744C28.2874 121.462 26.9038 121.211 25.515 120.995V120.99Z" fill="url(#paint20_linear_48_1609)"/>
<path d="M14.0103 124.829C17.6999 124.982 21.3845 125.269 25.0587 125.643C28.733 126.017 32.4021 126.453 36.0559 127.022C36.9681 127.155 37.8803 127.324 38.7873 127.483C39.6944 127.647 40.6064 127.791 41.5135 127.985L44.2296 128.534L46.9303 129.159C50.5174 130.035 54.079 131.07 57.4868 132.505L54.8885 131.552C54.0225 131.234 53.1257 130.999 52.2494 130.722C51.3731 130.435 50.4814 130.204 49.5846 129.969C48.6929 129.738 47.8065 129.482 46.8995 129.292L44.1989 128.682L41.4827 128.154C40.5808 127.97 39.6687 127.826 38.7566 127.668C37.8444 127.514 36.9373 127.35 36.0251 127.222C32.3816 126.627 28.7176 126.176 25.0485 125.777C23.2139 125.577 21.3743 125.408 19.5346 125.249C17.6949 125.085 15.8551 124.936 14.0103 124.829Z" fill="url(#paint21_linear_48_1609)"/>
<path d="M12.7292 132.5C16.3574 132.208 19.996 131.992 23.6344 131.844C27.2728 131.69 30.9162 131.588 34.5597 131.562C38.2033 131.562 41.8467 131.639 45.4851 131.88C47.3043 132.008 49.1186 132.177 50.9224 132.443C52.7211 132.73 54.5248 133.079 56.2108 133.776C54.5146 133.11 52.7056 132.792 50.9069 132.541C49.1031 132.29 47.294 132.131 45.4748 132.013C41.8416 131.793 38.2033 131.741 34.5597 131.762C30.9213 131.762 27.2778 131.844 23.6394 131.972C21.8202 132.039 20.001 132.115 18.1818 132.208C16.3626 132.29 14.5433 132.382 12.7292 132.495V132.5Z" fill="url(#paint22_linear_48_1609)"/>
<path d="M33.1863 138.889C35.0567 138.403 36.9581 138.023 38.8695 137.711C40.7759 137.388 42.6924 137.111 44.6141 136.891C46.5409 136.691 48.4678 136.532 50.3997 136.44C51.3631 136.384 52.3315 136.358 53.3 136.332C54.2685 136.312 55.2371 136.332 56.2006 136.332C54.2686 136.389 52.3366 136.45 50.4047 136.573C48.4779 136.686 46.5512 136.87 44.6346 137.091C42.7129 137.286 40.7962 137.542 38.8848 137.839C36.9785 138.146 35.0722 138.48 33.1813 138.884L33.1863 138.889Z" fill="url(#paint23_linear_48_1609)"/>
<path d="M62.6011 131.219C62.4576 130.265 62.3242 129.307 62.2012 128.349L61.8579 125.474L61.5607 122.594C61.4684 121.636 61.3866 120.672 61.3199 119.709C61.4634 120.662 61.5966 121.62 61.7195 122.579L62.0629 125.454L62.3601 128.333C62.4524 129.292 62.5345 130.255 62.6011 131.219Z" fill="url(#paint24_linear_48_1609)"/>
<path d="M63.877 131.218C64.3945 129.168 65.0709 127.159 65.8447 125.191C66.2444 124.213 66.675 123.244 67.1721 122.306C67.6692 121.374 68.2277 120.451 68.9912 119.713C68.284 120.503 67.7818 121.44 67.3155 122.378C66.8543 123.321 66.4188 124.284 66.0396 125.268C65.6399 126.242 65.2761 127.236 64.9174 128.225C64.5638 129.219 64.2153 130.213 63.8822 131.218H63.877Z" fill="url(#paint25_linear_48_1609)"/>
<path d="M65.1582 131.219C66.7109 128.969 68.4328 126.837 70.3032 124.833C71.2461 123.844 72.2147 122.871 73.2703 121.994C74.3209 121.118 75.4328 120.298 76.6678 119.709C75.4687 120.365 74.3978 121.226 73.3729 122.117C72.348 123.014 71.3794 123.978 70.4519 124.977C69.509 125.961 68.6174 126.991 67.736 128.036C66.8597 129.082 65.9936 130.137 65.1635 131.224L65.1582 131.219Z" fill="url(#paint26_linear_48_1609)"/>
<path d="M66.4343 132.5C67.9512 130.624 69.76 128.995 71.7022 127.57C73.6444 126.135 75.73 124.89 77.9387 123.906C80.1474 122.938 82.4484 122.148 84.821 121.697C85.9945 121.41 87.1988 121.292 88.3979 121.144C88.9975 121.052 89.6022 121.067 90.2018 121.041L92.0106 120.99C89.6072 121.103 87.1988 121.277 84.8518 121.831C82.4945 122.302 80.214 123.112 78.0258 124.09C75.8222 125.049 73.7315 126.268 71.7893 127.678C71.2922 128.021 70.8362 128.41 70.3545 128.769C69.8882 129.143 69.4372 129.543 68.9811 129.938C68.0843 130.742 67.2183 131.577 66.4393 132.5H66.4343Z" fill="url(#paint27_linear_48_1609)"/>
<path d="M67.7155 133.775C70.4263 132.504 73.1987 131.382 76.012 130.352C78.8203 129.322 81.6694 128.389 84.5443 127.559C87.4345 126.775 90.3554 126.109 93.302 125.591C96.2589 125.115 99.2464 124.818 102.239 124.823C100.743 124.895 99.2515 124.925 97.7654 125.12C96.2742 125.238 94.8035 125.504 93.3225 125.72C90.3811 126.258 87.4704 126.944 84.5956 127.749C81.7207 128.559 78.8715 129.466 76.0531 130.475C74.6438 130.977 73.2446 131.505 71.8559 132.059C70.462 132.597 69.0785 133.166 67.7102 133.77L67.7155 133.775Z" fill="url(#paint28_linear_48_1609)"/>
<path d="M67.7153 135.057C70.9387 134.196 74.2029 133.483 77.4877 132.863C80.7674 132.248 84.0625 131.695 87.3832 131.295C90.7038 130.926 94.0348 130.629 97.376 130.578C100.712 130.527 104.063 130.665 107.359 131.218L104.873 130.926C104.458 130.865 104.043 130.849 103.628 130.829L102.377 130.767C101.962 130.747 101.547 130.716 101.127 130.701H99.8767C99.0414 130.701 98.2113 130.66 97.376 130.711C94.0399 130.783 90.7192 131.106 87.4037 131.495C84.0881 131.869 80.793 132.402 77.5082 132.991C76.6883 133.14 75.8682 133.294 75.0483 133.458C74.2284 133.617 73.4137 133.786 72.5989 133.96C70.9642 134.293 69.3347 134.652 67.7153 135.051V135.057Z" fill="url(#paint29_linear_48_1609)"/>
<path d="M67.7155 136.332C70.2777 135.943 72.8654 135.743 75.4533 135.661C78.0412 135.579 80.6342 135.62 83.2221 135.784C85.81 135.953 88.3826 136.322 90.9244 136.804C93.4764 137.275 95.9668 138.018 98.401 138.89L96.5459 138.31C96.2384 138.218 95.9309 138.111 95.6183 138.029L94.6755 137.793C94.0451 137.639 93.4251 137.46 92.7948 137.321L90.8936 136.937C88.3519 136.481 85.7844 136.138 83.2016 135.989C80.624 135.805 78.0362 135.738 75.4483 135.794C74.1569 135.83 72.8655 135.887 71.5741 135.979C70.2827 136.056 68.9913 136.168 67.7102 136.332H67.7155Z" fill="url(#paint30_linear_48_1609)"/>
<path d="M67.7155 137.614C70.6979 137.967 73.6291 138.705 76.4629 139.699C77.8773 140.212 79.2557 140.821 80.588 141.513C81.9153 142.22 83.1708 143.061 84.3341 144.004C83.1247 143.117 81.8487 142.333 80.5112 141.652C79.1686 140.991 77.8005 140.386 76.3861 139.889C74.982 139.376 73.5471 138.946 72.0968 138.562C70.6466 138.188 69.1862 137.854 67.7052 137.608L67.7155 137.614Z" fill="url(#paint31_linear_48_1609)"/>
<path d="M66.4343 138.89C68.0178 140.089 69.4883 141.431 70.8515 142.887C71.5228 143.62 72.1737 144.378 72.7374 145.198C73.3011 146.018 73.8186 146.884 74.1056 147.842C73.7469 146.915 73.1883 146.084 72.6093 145.29C72.0251 144.496 71.3793 143.743 70.7028 143.025C70.0366 142.292 69.3348 141.595 68.6225 140.909C67.9051 140.222 67.1824 139.546 66.4393 138.89H66.4343Z" fill="url(#paint32_linear_48_1609)"/>
<path d="M63.8769 138.89C63.7898 139.259 63.8462 139.638 63.9077 140.002C63.9641 140.371 64.0358 140.74 64.1024 141.109C64.2407 141.847 64.3381 142.6 64.3894 143.353C64.4304 144.106 64.4098 144.87 64.3278 145.618C64.2561 146.371 64.0768 147.109 63.8769 147.832C64.005 147.089 64.1281 146.351 64.1742 145.603C64.2254 144.855 64.2458 144.106 64.1895 143.363C64.1536 142.615 64.0564 141.872 63.9487 141.129C63.8975 140.755 63.8411 140.386 63.8104 140.007C63.7848 139.633 63.7591 139.243 63.8769 138.879V138.89Z" fill="url(#paint33_linear_48_1609)"/>
<path d="M60.0389 140.171C59.7315 140.55 59.4391 140.939 59.1624 141.334C58.8908 141.734 58.6243 142.138 58.3937 142.564C57.9223 143.404 57.5792 144.311 57.4767 145.285C57.4459 144.798 57.5125 144.301 57.6406 143.824C57.7789 143.353 57.9838 142.902 58.2093 142.461C58.7013 141.611 59.2959 140.816 60.0287 140.166L60.0389 140.171Z" fill="url(#paint34_linear_48_1609)"/>
<path d="M58.7628 138.89C58.0505 138.967 57.3741 139.207 56.7438 139.515C56.1135 139.827 55.5242 140.222 54.9912 140.683C54.4532 141.139 53.9816 141.667 53.546 142.226C53.3205 142.502 53.1362 142.805 52.9312 143.092L52.3724 144.004L52.8491 143.041C53.0438 142.738 53.213 142.42 53.4231 142.134C53.8382 141.549 54.3251 141.011 54.8631 140.529C55.4166 140.068 56.0212 139.663 56.6822 139.371C57.3433 139.084 58.0506 138.89 58.7681 138.89H58.7628Z" fill="url(#paint35_linear_48_1609)"/>
<path d="M56.2058 137.614C55.2117 137.824 54.2226 138.065 53.2387 138.316C52.2548 138.572 51.2759 138.823 50.3074 139.136C49.3388 139.433 48.3754 139.751 47.4376 140.13C46.4998 140.509 45.5723 140.924 44.7012 141.452C45.5313 140.863 46.4435 140.396 47.3813 139.986C48.3139 139.571 49.2824 139.254 50.2561 138.941C52.2085 138.357 54.1968 137.896 56.2158 137.614H56.2058Z" fill="url(#paint36_linear_48_1609)"/>
<path d="M66.4343 135.056C66.4343 135.528 66.2035 135.979 65.8755 136.312C65.5476 136.65 65.1376 136.901 64.7123 137.101C63.8565 137.501 62.9086 137.675 61.9606 137.706C61.0177 137.716 60.049 137.598 59.1574 137.219C58.7167 137.024 58.2914 136.773 57.9378 136.425C57.5842 136.081 57.3229 135.589 57.3075 135.061C57.3177 134.528 57.5842 134.042 57.9378 133.698C58.2914 133.35 58.7167 133.094 59.1574 132.904C60.049 132.525 61.0126 132.407 61.9606 132.417C62.9086 132.448 63.8565 132.622 64.7123 133.022C65.1376 133.217 65.5476 133.473 65.8755 133.811C66.2086 134.144 66.4292 134.595 66.4343 135.067V135.056ZM66.4343 135.056C66.4189 134.585 66.1881 134.144 65.855 133.816C65.5219 133.488 65.1172 133.242 64.6867 133.058C63.8258 132.694 62.8829 132.576 61.9553 132.586C61.0329 132.617 60.1054 132.791 59.2752 133.176C58.8653 133.365 58.4757 133.606 58.1683 133.924C57.8557 134.236 57.6662 134.641 57.6611 135.056C57.6662 135.471 57.8608 135.876 58.1683 136.189C58.4757 136.507 58.8653 136.747 59.2752 136.937C60.1003 137.326 61.0278 137.496 61.9553 137.526C62.8778 137.537 63.8258 137.419 64.6867 137.055C65.1121 136.87 65.5219 136.624 65.855 136.296C66.1881 135.974 66.4189 135.528 66.4343 135.056Z" fill="#FBF8F3"/>
<path d="M65.1582 135.057C65.1479 135.379 64.8867 135.61 64.6305 135.769C64.3691 135.933 64.0819 136.046 63.7847 136.133C63.1954 136.312 62.5807 136.399 61.9606 136.425C61.3405 136.44 60.7152 136.404 60.1002 136.256C59.7927 136.179 59.4904 136.076 59.2034 135.907C58.9369 135.738 58.609 135.492 58.5834 135.057C58.609 134.616 58.9369 134.37 59.2034 134.206C59.4904 134.037 59.7927 133.934 60.1002 133.857C60.7152 133.709 61.3405 133.673 61.9606 133.688C62.5807 133.714 63.1954 133.801 63.7847 133.98C64.0819 134.067 64.3691 134.185 64.6305 134.344C64.8816 134.503 65.1479 134.734 65.1582 135.057ZM65.1582 135.057C65.1428 134.739 64.8763 134.513 64.6252 134.36C64.3638 134.206 64.0665 134.109 63.7744 134.032C63.18 133.888 62.5704 133.852 61.9606 133.868C61.3559 133.893 60.7511 133.98 60.1823 134.155C59.9004 134.237 59.6237 134.349 59.3828 134.498C59.1471 134.641 58.9422 134.852 58.9422 135.051C58.9422 135.251 59.142 135.461 59.3828 135.61C59.6237 135.759 59.9004 135.871 60.1823 135.958C60.7511 136.133 61.3559 136.22 61.9606 136.245C62.5653 136.261 63.18 136.225 63.7744 136.081C64.0665 136.005 64.3638 135.907 64.6252 135.753C64.8763 135.6 65.1428 135.374 65.1582 135.057Z" fill="#FBF8F3"/>
<path d="M100.871 114.692C100.871 114.692 99.6203 115.942 102.121 124.705C104.627 133.468 104.176 137.404 98.3647 139.725C92.1077 142.231 89.602 143.481 89.602 143.481C89.602 143.481 87.0961 138.475 85.8457 137.224C84.5953 135.974 82.0894 128.461 85.8457 122.204C89.602 115.947 97.1144 117.198 97.1144 114.692C97.1144 112.186 100.871 114.692 100.871 114.692Z" fill="url(#paint37_radial_48_1609)"/>
<path d="M53.3052 109.685C53.3052 109.685 51.7474 100.922 62.0682 100.922C67.0748 100.922 68.325 102.172 80.8442 112.191C80.8442 112.191 63.3185 110.94 53.3052 109.685Z" fill="url(#paint38_radial_48_1609)"/>
<path d="M95.8642 114.691C95.8642 114.691 90.8577 119.698 78.3385 118.448C65.8193 117.197 58.3066 108.434 53.2999 109.685C53.2999 109.685 56.4669 106.887 62.0629 109.685C65.194 111.248 69.5755 109.685 75.8325 107.179C82.0896 104.673 92.1079 110.935 95.8642 114.691Z" fill="url(#paint39_radial_48_1609)"/>
<path d="M102.126 114.691C102.126 114.691 108.384 113.441 112.14 112.185C115.896 110.935 127.16 105.928 137.178 110.935C137.178 110.935 140.934 113.441 140.934 120.948C140.934 120.948 140.934 122.199 142.185 122.199C143.435 122.199 140.355 123.454 140.355 123.454H114.64L100.871 115.936L102.121 114.686L102.126 114.691Z" fill="url(#paint40_radial_48_1609)"/>
<path d="M100.871 115.942C100.871 115.942 109.634 125.955 120.903 124.705C132.172 123.454 140.934 123.454 140.934 123.454C140.934 123.454 132.171 122.204 129.665 120.948C127.16 119.698 123.409 113.436 113.39 114.691C103.377 115.942 100.871 115.942 100.871 115.942Z" fill="url(#paint41_linear_48_1609)"/>
<path d="M105.883 112.191C105.883 112.191 115.896 87.1527 122.158 83.3964C128.415 79.6402 142.359 82.4382 144.691 80.8906C146.126 79.9375 145.941 79.6401 145.941 79.6401C145.941 79.6401 147.381 85.2772 136.02 95.6031C124.659 105.929 110.889 114.692 105.883 112.186" fill="url(#paint42_radial_48_1609)"/>
<path d="M105.288 114.01C105.288 114.01 122.153 108.434 124.659 105.929C127.165 103.423 142.185 90.9086 143.435 87.1523C143.435 87.1523 138.428 88.4027 137.178 88.4027C135.928 88.4027 134.672 89.653 134.672 90.9085C134.672 92.164 133.422 93.4145 133.422 93.4145C133.422 93.4145 128.415 94.6649 125.909 98.4211C123.403 102.177 125.976 107.071 105.288 114.01Z" fill="url(#paint43_radial_48_1609)"/>
<path d="M94.3423 111.202C94.3423 111.202 85.7587 87.8549 79.5888 84.6469C73.4189 81.439 63.5029 83.3966 60.8125 83.3966C58.3066 83.3966 54.863 83.3966 54.863 83.3966C54.863 83.3966 53.4435 88.2137 64.6406 97.033C75.8377 105.852 89.4074 113.339 94.3423 111.202Z" fill="url(#paint44_radial_48_1609)"/>
<path d="M94.9263 112.754C94.9263 112.754 75.8017 106.815 73.3317 104.673C70.8617 102.536 58.5629 93.0146 57.3279 89.8066C57.3279 89.8066 62.2628 90.8777 63.4978 90.8777C64.7328 90.8777 65.9677 91.9487 65.9677 93.0146C65.9677 94.0856 67.2028 95.1515 67.2028 95.1515C67.2028 95.1515 72.1376 96.2225 74.6076 99.4305C77.0776 102.638 74.5411 106.82 94.9315 112.749L94.9263 112.754Z" fill="url(#paint45_radial_48_1609)"/>
<path d="M79.5938 58.3579C79.5938 58.3579 79.5937 65.8703 75.8375 72.1274C72.0812 78.3844 84.6006 103.423 95.8694 113.436C95.8694 113.436 104.632 92.1539 95.8694 79.6347C87.1064 67.1155 82.0997 57.1023 79.5938 58.3527V58.3579Z" fill="url(#paint46_radial_48_1609)"/>
<path d="M79.594 58.3579C79.594 58.3579 83.3503 62.1142 82.0999 64.6149C80.8495 67.1208 77.0933 68.3711 75.8429 72.1274C75.8429 72.1274 79.5992 63.3646 79.5992 58.3579H79.594Z" fill="url(#paint47_radial_48_1609)"/>
<path d="M115.353 55.8569C115.353 55.8569 115.353 63.3695 119.109 69.6266C122.865 75.8836 110.346 100.922 99.0773 110.935C99.0773 110.935 94.6086 82.1406 103.372 69.6266C109.213 61.2804 113.206 56.6905 115.348 55.8569H115.353Z" fill="url(#paint48_radial_48_1609)"/>
<path d="M115.353 55.8569C115.353 55.8569 113.39 59.6132 114.64 62.1139C115.891 64.6198 117.146 67.1207 119.109 69.6266C119.109 69.6266 115.353 60.8636 115.353 55.8569Z" fill="url(#paint49_radial_48_1609)"/>
<path d="M62.0681 77.1392C62.0681 77.1392 73.3368 79.645 74.5871 79.645C75.8375 79.645 88.3567 87.1576 89.6071 93.4146C90.8575 99.6717 97.1197 114.697 97.1197 114.697C97.1197 114.697 75.8377 105.934 72.0814 98.4213C68.3252 90.9087 62.0681 77.1392 62.0681 77.1392Z" fill="url(#paint50_radial_48_1609)"/>
<path d="M97.1197 114.692C97.1197 114.692 69.5804 103.423 65.8242 89.6537C62.0679 75.8841 62.0681 77.1345 62.0681 77.1345C62.0681 77.1345 67.0746 79.6404 65.8242 82.1412C64.5738 84.6419 68.3301 85.8974 70.8308 88.3982C73.3367 90.9041 74.5873 97.1611 77.0881 100.917C79.594 104.674 93.3635 113.437 97.1197 114.687V114.692Z" fill="url(#paint51_radial_48_1609)"/>
<path d="M99.6203 105.928C99.6203 105.928 105.877 83.396 100.871 73.3827C95.864 63.3693 90.8573 63.3694 87.1011 58.3628C87.1011 58.3628 85.8507 63.3694 80.844 70.8819C75.8374 78.3945 93.3633 102.177 95.864 107.184C98.3699 112.191 99.6203 105.934 99.6203 105.934V105.928Z" fill="url(#paint52_radial_48_1609)"/>
<path d="M125.909 77.1392C125.909 77.1392 125.909 80.8954 120.903 83.3962C115.896 85.9021 109.634 88.4029 109.634 98.4162C109.634 108.429 99.6205 115.942 99.6205 115.942C99.6205 115.942 117.146 112.186 120.903 100.922C124.659 89.6532 125.909 82.1458 125.909 77.1392Z" fill="url(#paint53_radial_48_1609)"/>
<path d="M109.162 99.5072C110.136 98.9743 112.488 96.1815 110.269 95.0746C110.269 95.0746 111.376 92.8557 109.162 91.7488C109.162 91.7488 110.269 90.6419 108.055 90.6419C108.055 90.6419 108.055 88.423 105.837 88.423C105.837 88.423 103.618 86.204 102.511 88.423C102.511 88.423 99.1851 85.0972 98.0782 88.423C98.0782 88.423 96.9712 85.0972 94.7523 88.423C94.7523 88.423 93.6453 86.204 92.5333 88.423C91.4213 90.6419 92.5333 88.423 92.5333 88.423C92.5333 88.423 89.2074 89.5299 90.3143 91.7488C90.3143 91.7488 88.0956 91.7488 89.2076 93.9677C89.2076 93.9677 86.9887 97.2935 89.2076 97.2935C91.4265 97.2935 96.9711 106.164 109.167 99.5124L109.162 99.5072Z" fill="url(#paint54_radial_48_1609)"/>
<path d="M99.7383 102.833C104.332 102.833 108.055 99.8555 108.055 96.1819C108.055 92.5083 104.332 89.5303 99.7383 89.5303C95.1449 89.5303 91.4213 92.5083 91.4213 96.1819C91.4213 99.8555 95.1449 102.833 99.7383 102.833Z" fill="url(#paint55_radial_48_1609)"/>
<path d="M77.088 80.8902C77.088 80.8902 79.5939 79.6397 78.3384 83.396C77.088 87.1523 79.5885 82.1456 82.0944 83.396C84.6003 84.6464 92.1078 94.6649 94.6137 98.416C97.1196 102.167 98.37 114.691 98.37 114.691C98.37 114.691 89.607 115.942 82.0944 105.928C74.5819 95.9152 74.5821 84.6465 77.088 80.8902Z" fill="url(#paint56_radial_48_1609)"/>
<path d="M99.6205 114.692C99.6205 114.692 113.39 112.186 113.39 100.922C113.39 89.6534 104.627 93.4097 104.627 93.4097C104.627 93.4097 103.377 92.1593 102.121 93.4097C102.121 93.4097 99.6153 90.9038 98.3649 95.9155C98.3649 95.9155 95.859 93.4096 92.1079 95.9155C88.3516 98.4214 88.3518 103.428 88.3518 103.428C88.3518 103.428 91.9696 117.126 100.174 115.286" fill="url(#paint57_radial_48_1609)"/>
<defs>
<linearGradient id="paint0_linear_48_1609" x1="63.1947" y1="107.23" x2="75.2612" y2="97.762" gradientUnits="userSpaceOnUse">
<stop stop-color="#4C6F62"/>
<stop offset="0.63" stop-color="#62B497"/>
<stop offset="1" stop-color="#88C5AE"/>
</linearGradient>
<radialGradient id="paint1_radial_48_1609" cx="0" cy="0" r="1" gradientUnits="userSpaceOnUse" gradientTransform="translate(26.6036 50.0615) rotate(56.28) scale(21.9534 21.9534)">
<stop stop-color="#FBF8F3"/>
<stop offset="0.06" stop-color="#FBEBDF"/>
<stop offset="0.56" stop-color="#FAD0B6"/>
<stop offset="1" stop-color="#F3A096"/>
</radialGradient>
<radialGradient id="paint2_radial_48_1609" cx="0" cy="0" r="1" gradientUnits="userSpaceOnUse" gradientTransform="translate(26.073 42.9989) rotate(-4.97999) scale(21.0077 25.4748)">
<stop stop-color="#FBF8F3"/>
<stop offset="0.06" stop-color="#FBEBDF"/>
<stop offset="0.56" stop-color="#FAD0B6"/>
<stop offset="1" stop-color="#F5B0A1"/>
</radialGradient>
<radialGradient id="paint3_radial_48_1609" cx="0" cy="0" r="1" gradientUnits="userSpaceOnUse" gradientTransform="translate(13.0376 36.4827) rotate(-4.98001) scale(30.4593 36.9363)">
<stop stop-color="#FBF8F3"/>
<stop offset="0.06" stop-color="#FBEBDF"/>
<stop offset="0.2" stop-color="#FAD0B6"/>
<stop offset="0.52" stop-color="#EE7F80"/>
</radialGradient>
<radialGradient id="paint4_radial_48_1609" cx="0" cy="0" r="1" gradientUnits="userSpaceOnUse" gradientTransform="translate(67.3894 55.8889) rotate(-158.23) scale(24.5321 23.9745)">
<stop stop-color="#FBF8F3"/>
<stop offset="0.06" stop-color="#FBEBDF"/>
<stop offset="0.56" stop-color="#FAD0B6"/>
<stop offset="1" stop-color="#F3A096"/>
</radialGradient>
<radialGradient id="paint5_radial_48_1609" cx="0" cy="0" r="1" gradientUnits="userSpaceOnUse" gradientTransform="translate(63.1474 60.8813) rotate(-158.23) scale(21.8511 21.3544)">
<stop stop-color="#FBF8F3"/>
<stop offset="0.06" stop-color="#FBEBDF"/>
<stop offset="0.2" stop-color="#FAD0B6"/>
<stop offset="0.52" stop-color="#EE7F80"/>
</radialGradient>
<radialGradient id="paint6_radial_48_1609" cx="0" cy="0" r="1" gradientUnits="userSpaceOnUse" gradientTransform="translate(63.5119 40.7641) rotate(-25.6201) scale(28.9823 21.8735)">
<stop stop-color="#FBF8F3"/>
<stop offset="0.06" stop-color="#FBEBDF"/>
<stop offset="0.56" stop-color="#FAD0B6"/>
<stop offset="1" stop-color="#F3A096"/>
</radialGradient>
<radialGradient id="paint7_radial_48_1609" cx="0" cy="0" r="1" gradientUnits="userSpaceOnUse" gradientTransform="translate(63.504 40.7467) rotate(-25.62) scale(28.9959 21.8837)">
<stop stop-color="#FBF8F3"/>
<stop offset="0.06" stop-color="#FBEBDF"/>
<stop offset="0.2" stop-color="#FAD0B6"/>
<stop offset="0.52" stop-color="#EE7F80"/>
</radialGradient>
<radialGradient id="paint8_radial_48_1609" cx="0" cy="0" r="1" gradientUnits="userSpaceOnUse" gradientTransform="translate(51.2348 11.9404) scale(7.02065 7.02062)">
<stop stop-color="#FBF8F3"/>
<stop offset="0.06" stop-color="#FBEBDF"/>
<stop offset="0.56" stop-color="#FAD0B6"/>
<stop offset="1" stop-color="#F3A096"/>
</radialGradient>
<radialGradient id="paint9_radial_48_1609" cx="0" cy="0" r="1" gradientUnits="userSpaceOnUse" gradientTransform="translate(45.931 10.6079) scale(8.2401 8.24025)">
<stop stop-color="#FBF8F3"/>
<stop offset="0.06" stop-color="#FBEBDF"/>
<stop offset="0.56" stop-color="#FAD0B6"/>
<stop offset="1" stop-color="#F3A096"/>
</radialGradient>
<radialGradient id="paint10_radial_48_1609" cx="0" cy="0" r="1" gradientUnits="userSpaceOnUse" gradientTransform="translate(41.8774 17.3721) scale(11.8377 11.8376)">
<stop stop-color="#FBF8F3"/>
<stop offset="0.06" stop-color="#FBEBDF"/>
<stop offset="0.56" stop-color="#FAD0B6"/>
<stop offset="1" stop-color="#F3A096"/>
</radialGradient>
<radialGradient id="paint11_radial_48_1609" cx="0" cy="0" r="1" gradientUnits="userSpaceOnUse" gradientTransform="translate(45.5467 31.7003) scale(19.7293 19.7294)">
<stop stop-color="#FBF8F3"/>
<stop offset="0.06" stop-color="#FBEBDF"/>
<stop offset="0.64" stop-color="#FAD0B6"/>
<stop offset="1" stop-color="#EE7F80"/>
</radialGradient>
<radialGradient id="paint12_radial_48_1609" cx="0" cy="0" r="1" gradientUnits="userSpaceOnUse" gradientTransform="translate(40.6016 47.1097) scale(52.808 52.8081)">
<stop stop-color="#FBF8F3"/>
<stop offset="0.06" stop-color="#FBEBDF"/>
<stop offset="0.2" stop-color="#FAD0B6"/>
<stop offset="0.97" stop-color="#EE7F80"/>
</radialGradient>
<radialGradient id="paint13_radial_48_1609" cx="0" cy="0" r="1" gradientUnits="userSpaceOnUse" gradientTransform="translate(36.0099 58.225) scale(27.0163 27.0164)">
<stop stop-color="#FBF8F3"/>
<stop offset="0.06" stop-color="#FBEBDF"/>
<stop offset="0.2" stop-color="#FAD0B6"/>
<stop offset="1" stop-color="#EE7F80"/>
</radialGradient>
<radialGradient id="paint14_radial_48_1609" cx="0" cy="0" r="1" gradientUnits="userSpaceOnUse" gradientTransform="translate(50.3483 67.3259) scale(0.256224 0.256226)">
<stop stop-color="#FBF8F3"/>
<stop offset="0.06" stop-color="#FBEBDF"/>
<stop offset="0.55" stop-color="#FAD0B6"/>
<stop offset="0.97" stop-color="#EE7F80"/>
</radialGradient>
<radialGradient id="paint15_radial_48_1609" cx="0" cy="0" r="1" gradientUnits="userSpaceOnUse" gradientTransform="translate(60.7201 70.7135) scale(59.9206 59.921)">
<stop stop-color="#FBF8F3"/>
<stop offset="0.06" stop-color="#FBEBDF"/>
<stop offset="0.2" stop-color="#FAD0B6"/>
<stop offset="0.56" stop-color="#EE7F80"/>
</radialGradient>
<linearGradient id="paint16_linear_48_1609" x1="21.4487" y1="74.7941" x2="21.2834" y2="24.9384" gradientUnits="userSpaceOnUse">
<stop stop-color="#FBEBDF"/>
<stop offset="0.2" stop-color="#FAD0B6"/>
<stop offset="0.52" stop-color="#EE7F80"/>
</linearGradient>
<radialGradient id="paint17_radial_48_1609" cx="0" cy="0" r="1" gradientUnits="userSpaceOnUse" gradientTransform="translate(60.8029 132.796) rotate(-4.36) scale(38.3108 19.1554)">
<stop stop-color="#4C6F62"/>
<stop offset="0.63" stop-color="#62B497"/>
<stop offset="0.87" stop-color="#88C5AE"/>
</radialGradient>
<linearGradient id="paint18_linear_48_1609" x1="51.0196" y1="125.464" x2="61.3968" y2="125.464" gradientUnits="userSpaceOnUse">
<stop stop-color="#FAF7F3"/>
<stop offset="0.39" stop-color="#FAD0B6"/>
<stop offset="1" stop-color="#F5EFB2"/>
</linearGradient>
<linearGradient id="paint19_linear_48_1609" x1="36.9888" y1="125.464" x2="60.1158" y2="125.464" gradientUnits="userSpaceOnUse">
<stop stop-color="#FAF7F3"/>
<stop offset="0.39" stop-color="#FAD0B6"/>
<stop offset="1" stop-color="#F5EFB2"/>
</linearGradient>
<linearGradient id="paint20_linear_48_1609" x1="25.515" y1="126.104" x2="57.5483" y2="126.104" gradientUnits="userSpaceOnUse">
<stop stop-color="#FAF7F3"/>
<stop offset="0.39" stop-color="#FAD0B6"/>
<stop offset="1" stop-color="#F5EFB2"/>
</linearGradient>
<linearGradient id="paint21_linear_48_1609" x1="14.0103" y1="128.662" x2="57.5278" y2="128.662" gradientUnits="userSpaceOnUse">
<stop stop-color="#FAF7F3"/>
<stop offset="0.39" stop-color="#FAD0B6"/>
<stop offset="1" stop-color="#F5EFB2"/>
</linearGradient>
<linearGradient id="paint22_linear_48_1609" x1="12.7292" y1="132.669" x2="56.2518" y2="132.669" gradientUnits="userSpaceOnUse">
<stop stop-color="#FAF7F3"/>
<stop offset="0.39" stop-color="#FAD0B6"/>
<stop offset="1" stop-color="#F5EFB2"/>
</linearGradient>
<linearGradient id="paint23_linear_48_1609" x1="33.1659" y1="137.608" x2="56.2057" y2="137.608" gradientUnits="userSpaceOnUse">
<stop stop-color="#FAF7F3"/>
<stop offset="0.39" stop-color="#FAD0B6"/>
<stop offset="1" stop-color="#F5EFB2"/>
</linearGradient>
<linearGradient id="paint24_linear_48_1609" x1="61.2175" y1="125.464" x2="62.6984" y2="125.464" gradientUnits="userSpaceOnUse">
<stop stop-color="#FAF7F3"/>
<stop offset="0.39" stop-color="#FAD0B6"/>
<stop offset="1" stop-color="#F5EFB2"/>
</linearGradient>
<linearGradient id="paint25_linear_48_1609" x1="63.7796" y1="125.463" x2="69.063" y2="125.463" gradientUnits="userSpaceOnUse">
<stop stop-color="#FAF7F3"/>
<stop offset="0.39" stop-color="#FAD0B6"/>
<stop offset="1" stop-color="#F5EFB2"/>
</linearGradient>
<linearGradient id="paint26_linear_48_1609" x1="65.0711" y1="125.464" x2="76.7088" y2="125.464" gradientUnits="userSpaceOnUse">
<stop stop-color="#FAF7F3"/>
<stop offset="0.39" stop-color="#FAD0B6"/>
<stop offset="1" stop-color="#F5EFB2"/>
</linearGradient>
<linearGradient id="paint27_linear_48_1609" x1="66.3523" y1="126.745" x2="92.0106" y2="126.745" gradientUnits="userSpaceOnUse">
<stop stop-color="#FAF7F3"/>
<stop offset="0.39" stop-color="#FAD0B6"/>
<stop offset="1" stop-color="#F5EFB2"/>
</linearGradient>
<linearGradient id="paint28_linear_48_1609" x1="67.6692" y1="129.302" x2="102.239" y2="129.302" gradientUnits="userSpaceOnUse">
<stop stop-color="#FAF7F3"/>
<stop offset="0.39" stop-color="#FAD0B6"/>
<stop offset="1" stop-color="#F5EFB2"/>
</linearGradient>
<linearGradient id="paint29_linear_48_1609" x1="67.7153" y1="132.812" x2="107.394" y2="132.812" gradientUnits="userSpaceOnUse">
<stop stop-color="#FAF7F3"/>
<stop offset="0.39" stop-color="#FAD0B6"/>
<stop offset="1" stop-color="#F5EFB2"/>
</linearGradient>
<linearGradient id="paint30_linear_48_1609" x1="67.7153" y1="137.255" x2="98.4522" y2="137.255" gradientUnits="userSpaceOnUse">
<stop stop-color="#FAF7F3"/>
<stop offset="0.39" stop-color="#FAD0B6"/>
<stop offset="1" stop-color="#F5EFB2"/>
</linearGradient>
<linearGradient id="paint31_linear_48_1609" x1="67.7154" y1="140.811" x2="84.411" y2="140.811" gradientUnits="userSpaceOnUse">
<stop stop-color="#FAF7F3"/>
<stop offset="0.39" stop-color="#FAD0B6"/>
<stop offset="1" stop-color="#F5EFB2"/>
</linearGradient>
<linearGradient id="paint32_linear_48_1609" x1="66.3728" y1="143.368" x2="74.2029" y2="143.368" gradientUnits="userSpaceOnUse">
<stop stop-color="#FAF7F3"/>
<stop offset="0.39" stop-color="#FAD0B6"/>
<stop offset="1" stop-color="#F5EFB2"/>
</linearGradient>
<linearGradient id="paint33_linear_48_1609" x1="63.7079" y1="143.368" x2="64.4201" y2="143.368" gradientUnits="userSpaceOnUse">
<stop stop-color="#FAF7F3"/>
<stop offset="0.39" stop-color="#FAD0B6"/>
<stop offset="1" stop-color="#F5EFB2"/>
</linearGradient>
<linearGradient id="paint34_linear_48_1609" x1="57.3844" y1="142.728" x2="60.1158" y2="142.728" gradientUnits="userSpaceOnUse">
<stop stop-color="#FAF7F3"/>
<stop offset="0.39" stop-color="#FAD0B6"/>
<stop offset="1" stop-color="#F5EFB2"/>
</linearGradient>
<linearGradient id="paint35_linear_48_1609" x1="52.2802" y1="141.452" x2="58.7629" y2="141.452" gradientUnits="userSpaceOnUse">
<stop stop-color="#FAF7F3"/>
<stop offset="0.39" stop-color="#FAD0B6"/>
<stop offset="1" stop-color="#F5EFB2"/>
</linearGradient>
<linearGradient id="paint36_linear_48_1609" x1="44.6397" y1="139.53" x2="56.2209" y2="139.53" gradientUnits="userSpaceOnUse">
<stop stop-color="#FAF7F3"/>
<stop offset="0.39" stop-color="#FAD0B6"/>
<stop offset="1" stop-color="#F5EFB2"/>
</linearGradient>
<radialGradient id="paint37_radial_48_1609" cx="0" cy="0" r="1" gradientUnits="userSpaceOnUse" gradientTransform="translate(96.5764 121.579) rotate(180) scale(21.902 21.9022)">
<stop stop-color="#FBF8F3"/>
<stop offset="0.2" stop-color="#FAD0B6"/>
<stop offset="1" stop-color="#EE7F80"/>
</radialGradient>
<radialGradient id="paint38_radial_48_1609" cx="0" cy="0" r="1" gradientUnits="userSpaceOnUse" gradientTransform="translate(67.0286 106.554) rotate(180) scale(0.256224 0.256226)">
<stop stop-color="#FBF8F3"/>
<stop offset="0.06" stop-color="#FBEBDF"/>
<stop offset="0.56" stop-color="#FAD0B6"/>
<stop offset="1" stop-color="#F3A096"/>
</radialGradient>
<radialGradient id="paint39_radial_48_1609" cx="0" cy="0" r="1" gradientUnits="userSpaceOnUse" gradientTransform="translate(81.2439 120.016) rotate(180) scale(21.3231 21.3233)">
<stop stop-color="#FBF8F3"/>
<stop offset="0.06" stop-color="#FBEBDF"/>
<stop offset="0.2" stop-color="#FAD0B6"/>
<stop offset="0.52" stop-color="#EE7F80"/>
</radialGradient>
<radialGradient id="paint40_radial_48_1609" cx="0" cy="0" r="1" gradientUnits="userSpaceOnUse" gradientTransform="translate(121.676 116.106) rotate(180) scale(15.6042 15.6041)">
<stop stop-color="#FBF8F3"/>
<stop offset="0.06" stop-color="#FBEBDF"/>
<stop offset="0.56" stop-color="#FAD0B6"/>
<stop offset="1" stop-color="#F3A096"/>
</radialGradient>
<linearGradient id="paint41_linear_48_1609" x1="106.472" y1="129.26" x2="135.789" y2="109.833" gradientUnits="userSpaceOnUse">
<stop stop-color="#FBEBDF"/>
<stop offset="0.2" stop-color="#FAD0B6"/>
<stop offset="0.52" stop-color="#EE7F80"/>
</linearGradient>
<radialGradient id="paint42_radial_48_1609" cx="0" cy="0" r="1" gradientUnits="userSpaceOnUse" gradientTransform="translate(125.935 96.1308) rotate(180) scale(18.3611 18.3611)">
<stop stop-color="#FBF8F3"/>
<stop offset="0.06" stop-color="#FBEBDF"/>
<stop offset="0.56" stop-color="#FAD0B6"/>
<stop offset="1" stop-color="#F3A096"/>
</radialGradient>
<radialGradient id="paint43_radial_48_1609" cx="0" cy="0" r="1" gradientUnits="userSpaceOnUse" gradientTransform="translate(124.362 100.579) rotate(180) scale(16.4958 16.4958)">
<stop stop-color="#FBF8F3"/>
<stop offset="0.06" stop-color="#FBEBDF"/>
<stop offset="0.2" stop-color="#FAD0B6"/>
<stop offset="0.52" stop-color="#EE7F80"/>
</radialGradient>
<radialGradient id="paint44_radial_48_1609" cx="0" cy="0" r="1" gradientUnits="userSpaceOnUse" gradientTransform="translate(74.2483 91.9586) scale(18.3348 15.742)">
<stop stop-color="#FBF8F3"/>
<stop offset="0.06" stop-color="#FBEBDF"/>
<stop offset="0.56" stop-color="#FAD0B6"/>
<stop offset="1" stop-color="#F3A096"/>
</radialGradient>
<radialGradient id="paint45_radial_48_1609" cx="0" cy="0" r="1" gradientUnits="userSpaceOnUse" gradientTransform="translate(75.8108 96.035) scale(16.3308 14.0215)">
<stop stop-color="#FBF8F3"/>
<stop offset="0.06" stop-color="#FBEBDF"/>
<stop offset="0.2" stop-color="#FAD0B6"/>
<stop offset="0.52" stop-color="#EE7F80"/>
</radialGradient>
<radialGradient id="paint46_radial_48_1609" cx="0" cy="0" r="1" gradientUnits="userSpaceOnUse" gradientTransform="translate(87.4548 85.8457) rotate(180) scale(21.3642 21.3641)">
<stop stop-color="#FBF8F3"/>
<stop offset="0.06" stop-color="#FBEBDF"/>
<stop offset="0.56" stop-color="#FAD0B6"/>
<stop offset="1" stop-color="#F3A096"/>
</radialGradient>
<radialGradient id="paint47_radial_48_1609" cx="0" cy="0" r="1" gradientUnits="userSpaceOnUse" gradientTransform="translate(79.0918 68.9144) rotate(180) scale(6.00079 6.00078)">
<stop offset="0.05" stop-color="#FAD0B6"/>
<stop offset="0.52" stop-color="#EE7F80"/>
</radialGradient>
<radialGradient id="paint48_radial_48_1609" cx="0" cy="0" r="1" gradientUnits="userSpaceOnUse" gradientTransform="translate(108.865 83.3961) scale(20.9492 20.949)">
<stop stop-color="#FBF8F3"/>
<stop offset="0.06" stop-color="#FBEBDF"/>
<stop offset="0.56" stop-color="#FAD0B6"/>
<stop offset="1" stop-color="#F3A096"/>
</radialGradient>
<radialGradient id="paint49_radial_48_1609" cx="0" cy="0" r="1" gradientUnits="userSpaceOnUse" gradientTransform="translate(116.67 66.4135) scale(5.29373 5.29365)">
<stop offset="0.05" stop-color="#FAD0B6"/>
<stop offset="0.52" stop-color="#EE7F80"/>
</radialGradient>
<radialGradient id="paint50_radial_48_1609" cx="0" cy="0" r="1" gradientUnits="userSpaceOnUse" gradientTransform="translate(79.5888 95.9154) rotate(180) scale(18.1613 18.1613)">
<stop stop-color="#FBF8F3"/>
<stop offset="0.06" stop-color="#FBEBDF"/>
<stop offset="0.56" stop-color="#FAD0B6"/>
<stop offset="1" stop-color="#F3A096"/>
</radialGradient>
<radialGradient id="paint51_radial_48_1609" cx="0" cy="0" r="1" gradientUnits="userSpaceOnUse" gradientTransform="translate(79.5888 95.9005) rotate(180) scale(18.1715 18.1715)">
<stop stop-color="#FBF8F3"/>
<stop offset="0.06" stop-color="#FBEBDF"/>
<stop offset="0.2" stop-color="#FAD0B6"/>
<stop offset="0.52" stop-color="#EE7F80"/>
</radialGradient>
<radialGradient id="paint52_radial_48_1609" cx="0" cy="0" r="1" gradientUnits="userSpaceOnUse" gradientTransform="translate(91.3801 83.7393) rotate(180) scale(19.6833 19.6832)">
<stop stop-color="#FBF8F3"/>
<stop offset="0.06" stop-color="#FBEBDF"/>
<stop offset="0.45" stop-color="#FAD0B6"/>
<stop offset="0.84" stop-color="#F3A096"/>
</radialGradient>
<radialGradient id="paint53_radial_48_1609" cx="0" cy="0" r="1" gradientUnits="userSpaceOnUse" gradientTransform="translate(114.43 94.8187) rotate(180) scale(25.2791 25.2792)">
<stop stop-color="#FBF8F3"/>
<stop offset="0.06" stop-color="#FBEBDF"/>
<stop offset="0.2" stop-color="#FAD0B6"/>
<stop offset="0.56" stop-color="#EE7F80"/>
</radialGradient>
<radialGradient id="paint54_radial_48_1609" cx="0" cy="0" r="1" gradientUnits="userSpaceOnUse" gradientTransform="translate(99.1902 102.715) rotate(180) scale(20.9644 20.9643)">
<stop stop-color="#FAF7F3"/>
<stop offset="0.34" stop-color="#F5EFB2"/>
<stop offset="0.63" stop-color="#FCCC81"/>
<stop offset="0.81" stop-color="#F5EFB2"/>
</radialGradient>
<radialGradient id="paint55_radial_48_1609" cx="0" cy="0" r="1" gradientUnits="userSpaceOnUse" gradientTransform="translate(99.3643 103.484) rotate(180) scale(0.256225)">
<stop stop-color="#FAF7F3"/>
<stop offset="0.45" stop-color="#F5EFB2"/>
<stop offset="0.59" stop-color="#CDDD91"/>
<stop offset="0.81" stop-color="#62B497"/>
</radialGradient>
<radialGradient id="paint56_radial_48_1609" cx="0" cy="0" r="1" gradientUnits="userSpaceOnUse" gradientTransform="translate(88.2286 111.591) rotate(-180) scale(29.84 29.84)">
<stop stop-color="#FBF8F3"/>
<stop offset="0.06" stop-color="#FBEBDF"/>
<stop offset="0.2" stop-color="#FAD0B6"/>
<stop offset="0.52" stop-color="#EE7F80"/>
</radialGradient>
<radialGradient id="paint57_radial_48_1609" cx="0" cy="0" r="1" gradientUnits="userSpaceOnUse" gradientTransform="translate(97.6477 100.215) rotate(180) scale(23.6137 23.6138)">
<stop stop-color="#FBF8F3"/>
<stop offset="0.06" stop-color="#FBEBDF"/>
<stop offset="0.2" stop-color="#FAD0B6"/>
<stop offset="0.52" stop-color="#EE7F80"/>
</radialGradient>
</defs>
</svg>
