<svg width="656" height="363" viewBox="0 0 656 363" fill="none" xmlns="http://www.w3.org/2000/svg">
<path d="M681.063 5.34432C681.063 5.34432 568.189 -10.0078 582.359 11.3279C596.529 32.6637 621.343 22.3138 550.144 44.5158C540.929 47.3899 541.994 55.5517 556.204 68.7107C562.609 74.6393 553.414 64.2893 520.214 69.1613C476.489 75.5806 435.184 79.356 427.989 94.1073C420.794 108.859 432.144 101.673 492.779 110.856C507.324 113.06 541.359 124.556 523.369 141.15C505.374 157.744 337.589 132.983 306.554 141.15C306.554 141.15 208.72 149.712 247.404 174.208C247.404 174.208 323.199 187.512 301.159 211.481C279.119 235.451 70.1748 247.569 68.8248 265.349C68.8248 265.349 58.7048 273.646 79.9598 287.671C101.215 301.697 67.5899 312.893 58.0299 313.158C48.7099 313.413 17.88 321.12 3.10313e-06 363C3.10313e-06 363 18.9548 328.831 92.8396 323.103C166.724 317.374 156.425 322.286 170.935 308.852C185.44 295.418 147.944 286.97 155.704 276.701C163.464 266.426 127.87 262.19 231.104 259.621C334.339 257.052 346.149 250.533 365.379 233.739C384.609 216.944 416.324 230.183 434.539 218.131C452.759 206.079 425.769 195.213 425.769 195.213C425.769 195.213 351.549 170.322 391.694 169.331C431.839 168.344 430.829 185.729 554.304 176.246C554.304 176.246 661.083 152.502 597.489 120.931C575.859 110.196 459.889 86.6966 540.534 91.0829C561.724 92.2346 637.358 98.4235 637.928 81.8246C638.228 73.0469 614.664 62.7371 643.003 55.0309C671.343 47.3248 687.678 52.4673 683.293 40.4149C678.908 28.3625 657.778 20.5863 675.998 12.1592C675.998 12.1592 665.618 10.4517 681.073 5.33931L681.063 5.34432Z" fill="url(#paint0_radial_279_1382)"/>
<path d="M460.365 212.005C460.365 212.005 461.563 182.46 464.858 173.478C468.154 164.496 460.068 165.095 472.044 150.719C484.02 136.348 478.932 130.657 484.619 121.973C484.619 121.973 487.613 116.282 489.112 146.528C489.112 146.528 498.693 150.422 500.791 124.368C502.889 98.3178 502.587 111.491 508.575 106.701C514.563 101.911 519.655 74.9602 535.823 69.2693C535.823 69.2693 542.711 65.0778 543.31 118.38C543.31 118.38 560.378 125.565 556.785 172.879C556.785 172.879 562.174 172.879 563.372 178.867C564.569 184.855 564.871 209.411 564.871 209.411L460.365 212.005V212.005Z" fill="url(#paint1_linear_279_1382)"/>
<path d="M460.365 214.118C460.365 214.118 461.526 193.406 464.724 187.111C467.917 180.812 460.077 181.235 471.696 171.157C483.314 161.08 476.681 153.737 482.2 147.651C482.2 147.651 486.801 147.02 488.249 168.219C488.249 168.219 501.52 171.455 503.553 153.194C505.586 134.933 505.242 133.582 511.049 130.226C516.856 126.865 516.958 105.039 532.643 101.052C532.643 101.052 537.633 94.4234 538.213 131.785C538.213 131.785 553.768 143.715 550.282 176.876C550.282 176.876 559.12 186.694 560.281 190.89C561.441 195.086 561.733 212.298 561.733 212.298L460.37 214.118H460.365Z" fill="url(#paint2_linear_279_1382)"/>
<path d="M478.175 212.005C478.175 212.005 479.02 196.924 481.346 192.343C483.671 187.756 477.962 188.063 486.419 180.729C494.877 173.395 490.049 168.047 494.069 163.614C494.069 163.614 497.416 163.155 498.474 178.589C498.474 178.589 508.134 180.947 509.614 167.648C511.095 154.349 510.844 153.37 515.073 150.924C519.302 148.477 519.376 132.584 530.795 129.678C530.795 129.678 534.43 124.85 534.852 152.056C534.852 152.056 546.178 160.741 543.639 184.888C543.639 184.888 550.072 192.036 550.917 195.091C551.762 198.15 551.976 210.678 551.976 210.678L478.171 212.001L478.175 212.005Z" fill="url(#paint3_linear_279_1382)"/>
<path d="M564.834 321.534C564.834 321.534 537.823 275.775 534.523 257.082C531.227 238.394 512.72 205.664 497.3 185.375C480.005 162.621 481.286 136.845 466.994 137.945C452.701 139.045 449.406 120.357 432.913 151.137C416.425 181.917 395.537 148.937 391.137 163.229C386.741 177.521 383.441 196.209 372.449 206.101C361.457 215.993 362.557 246.777 349.365 250.073C336.173 253.369 347.165 277.557 316.385 296.245C285.605 314.933 269.113 310.537 257.021 321.529C244.929 332.521 239.433 331.421 239.433 331.421L564.834 331.453V321.529V321.534Z" fill="url(#paint4_linear_279_1382)"/>
<path d="M587.955 324.398C587.955 324.398 552.278 291.696 543.533 281.386C513.807 246.336 504.249 215.38 490.379 207.345C468.34 194.575 479.926 172.805 466.785 173.58C453.644 174.355 453.491 162.054 438.326 183.75C423.161 205.446 432.259 202.754 428.216 212.827C424.173 222.899 421.137 236.073 411.027 243.045C400.917 250.017 401.929 271.713 389.796 274.038C377.662 276.364 387.772 293.409 359.466 306.582C331.16 319.756 315.995 316.655 304.873 324.402C293.752 332.149 288.697 331.374 288.697 331.374L587.946 331.397V324.402L587.955 324.398Z" fill="url(#paint5_linear_279_1382)"/>
<path d="M567.42 325.818C567.42 325.818 526.767 301.295 524.149 289.932C521.531 278.569 510.316 280.574 497.704 264.708C484.03 247.506 488.295 235.562 476.955 236.231C465.615 236.899 464.817 205.716 451.732 224.431C438.646 243.147 433.095 220.866 429.604 229.556C426.114 238.245 425.872 269.564 417.15 275.58C408.428 281.595 406.924 280.356 396.457 282.361C385.99 284.367 394.712 299.072 370.291 310.435C345.87 321.798 332.785 319.125 323.19 325.809C313.596 332.493 309.237 331.825 309.237 331.825L567.415 331.843V325.809L567.42 325.818Z" fill="url(#paint6_linear_279_1382)"/>
<path d="M543.532 328.394C543.532 328.394 512.766 320.847 510.724 314.339C508.677 307.831 507.939 303.356 495.267 291.557C482.966 280.105 489.005 274.758 480.139 275.139C471.273 275.519 468.107 260.545 457.877 271.267C447.651 281.99 438.539 268.283 435.81 273.259C433.08 278.235 432.895 296.175 426.076 299.62C419.257 303.064 418.083 302.354 409.904 303.505C401.72 304.651 408.539 313.076 389.452 319.584C370.36 326.092 360.134 324.56 352.633 328.39C345.132 332.219 341.725 331.834 341.725 331.834L543.537 331.843V328.385L543.532 328.394Z" fill="url(#paint7_linear_279_1382)"/>
<path d="M279.926 301.705C280.157 301.417 280.183 301.238 280.183 301.238C280.109 301.399 280.017 301.551 279.926 301.705Z" fill="#62B497"/>
<path d="M298.833 277.424H298.792H289.208V296.789H298.792H298.833H308.417V277.424H298.833Z" fill="#62B497"/>
<path opacity="0.43" d="M289.208 290.618C289.208 290.618 293.639 291.243 295.004 295.786L289.208 296.199V290.618Z" fill="#CDDD91"/>
<path opacity="0.43" d="M289.208 280.892C289.208 280.892 293.639 281.61 295.004 286.152L289.208 286.508V280.892Z" fill="#CDDD91"/>
<path d="M308.085 277.332V295.188L308.748 295.059V277.332H308.085Z" fill="#E63B2B"/>
<path d="M298.451 275.463V295.868L299.112 295.72V275.463H298.451Z" fill="#E63B2B"/>
<path d="M293.471 278.113V295.188L294.093 295.064V278.113H293.471Z" fill="#E63B2B"/>
<path d="M303.573 277.348V294.425L304.196 294.301V277.348H303.573Z" fill="#E63B2B"/>
<path d="M289.208 279.964V295.188L289.871 295.079V279.964H289.208Z" fill="#E63B2B"/>
<path d="M298.832 263C298.832 263 292.332 281.647 280.872 275.072C280.872 275.072 284.14 281.955 298.832 275.918C311.028 282.077 316.713 275.455 316.713 275.455C305.253 282.031 298.832 263.002 298.832 263.002V263Z" fill="#E63B2B"/>
<path d="M308.376 286.508L298.792 285.921L289.208 286.508L283.103 286.779C284.381 289.987 298.792 289.255 298.792 289.255C298.792 289.255 313.203 289.989 314.481 286.779L308.376 286.508Z" fill="#E63B2B"/>
<path d="M298.832 275.918C281.715 281.342 280.539 274.24 280.539 274.24C280.465 276.957 286.198 280.74 289.208 280.892C296.554 281.262 298.832 279.528 298.832 279.528C298.832 279.528 301.109 281.262 308.457 280.892C311.467 280.74 317.2 276.957 317.126 274.24C317.126 274.24 315.95 281.342 298.832 275.918Z" fill="#EE7F80"/>
<path d="M298.791 285.643C281.674 291.067 280.498 283.965 280.498 283.965C280.424 286.682 286.157 290.465 289.167 290.617C296.513 290.987 298.791 289.253 298.791 289.253C298.791 289.253 301.068 290.987 308.416 290.617C311.426 290.465 317.159 286.682 317.085 283.965C317.085 283.965 315.909 291.067 298.791 285.643Z" fill="#EE7F80"/>
<path d="M298.833 293.41L288.539 294.066V295.859L298.833 296.348L309.126 295.859V294.066L298.833 293.41Z" fill="#A967A3"/>
<path d="M298.833 275.918L298.209 276.113L298.52 279.716L298.833 279.784L299.146 279.716L299.457 276.113L298.833 275.918Z" fill="#A967A3"/>
<path d="M298.209 276.113C298.209 276.113 298.711 275.881 298.833 273.825C298.833 273.825 298.957 275.683 299.457 276.113C299.457 276.113 298.807 276.772 298.207 276.113H298.209Z" fill="#A967A3"/>
<path d="M280.539 274.24C280.539 274.24 281.169 275.755 282.065 276.405C282.065 276.405 282.047 276.781 281.649 276.663C281.249 276.542 280.637 276.126 280.539 274.24Z" fill="#A967A3"/>
<path d="M317.146 274.24C317.146 274.24 316.517 275.755 315.62 276.405C315.62 276.405 315.639 276.781 316.037 276.663C316.437 276.542 317.048 276.126 317.146 274.24Z" fill="#A967A3"/>
<path d="M282.067 276.405C282.067 276.405 284.764 279.977 289.21 280.892C289.21 280.892 283.177 280.475 281.725 276.678L282.067 276.405Z" fill="#A967A3"/>
<path d="M315.56 276.405C315.56 276.405 312.863 279.977 308.417 280.892C308.417 280.892 314.45 280.475 315.902 276.678L315.56 276.405Z" fill="#A967A3"/>
<path d="M298.782 285.665L298.156 285.86L298.469 289.462L298.782 289.531L299.093 289.462L299.407 285.86L298.782 285.665Z" fill="#A967A3"/>
<path d="M298.156 285.86C298.156 285.86 298.658 285.628 298.78 283.572C298.78 283.572 298.904 285.43 299.405 285.86C299.405 285.86 298.754 286.519 298.154 285.86H298.156Z" fill="#A967A3"/>
<path d="M280.488 283.989C280.488 283.989 281.118 285.504 282.015 286.154C282.015 286.154 281.996 286.53 281.598 286.412C281.198 286.291 280.586 285.874 280.488 283.989Z" fill="#A967A3"/>
<path d="M317.096 283.989C317.096 283.989 316.466 285.504 315.569 286.154C315.569 286.154 315.588 286.53 315.986 286.412C316.384 286.293 316.997 285.874 317.096 283.989Z" fill="#A967A3"/>
<path d="M282.016 286.154C282.016 286.154 284.714 289.725 289.159 290.641C289.159 290.641 283.126 290.224 281.674 286.426L282.016 286.154Z" fill="#A967A3"/>
<path d="M315.507 286.154C315.507 286.154 312.81 289.725 308.364 290.641C308.364 290.641 314.397 290.224 315.85 286.426L315.507 286.154Z" fill="#A967A3"/>
<path d="M299.112 293.434H298.451V296.335H299.112V293.434Z" fill="#CDDD91"/>
<path d="M288.537 293.684H288.204V295.859H288.537V293.684Z" fill="#CDDD91"/>
<path d="M309.292 293.797H308.959V295.972H309.292V293.797Z" fill="#CDDD91"/>
<path d="M298.832 293.967C299.127 293.967 299.366 293.729 299.366 293.434C299.366 293.139 299.127 292.901 298.832 292.901C298.538 292.901 298.299 293.139 298.299 293.434C298.299 293.729 298.538 293.967 298.832 293.967Z" fill="#E63B2B"/>
<path d="M288.372 294.021C288.558 294.021 288.709 293.87 288.709 293.684C288.709 293.498 288.558 293.347 288.372 293.347C288.186 293.347 288.035 293.498 288.035 293.684C288.035 293.87 288.186 294.021 288.372 294.021Z" fill="#E63B2B"/>
<path d="M311.209 304.796L298.721 305.758L286.23 304.796V300.247H311.209V304.796Z" fill="#62B497"/>
<path d="M309.126 294.134C309.312 294.134 309.463 293.983 309.463 293.797C309.463 293.611 309.312 293.46 309.126 293.46C308.94 293.46 308.789 293.611 308.789 293.797C308.789 293.983 308.94 294.134 309.126 294.134Z" fill="#E63B2B"/>
<path d="M309.409 295.859L298.807 296.348L288.204 295.859C279.559 302.196 274 298.087 274 298.087C276.267 302.027 297.21 301.516 298.69 301.473V301.49C298.69 301.49 321.262 302.17 323.613 298.085C323.613 298.085 318.054 302.194 309.409 295.857V295.859Z" fill="#E63B2B"/>
<path d="M292.227 273.586C292.227 273.586 297.693 266.562 298.832 263L298.782 272.147C298.782 272.147 294.327 274.071 292.227 273.586Z" fill="#A967A3"/>
<path d="M305.438 273.586C305.438 273.586 299.971 266.562 298.832 263L298.782 272.147C298.782 272.147 303.337 274.071 305.438 273.586Z" fill="#A967A3"/>
<path d="M286.87 301.238H286.23V304.844H286.87V301.238Z" fill="#E63B2B"/>
<path d="M311.209 301.238H310.57V304.844H311.209V301.238Z" fill="#E63B2B"/>
<path d="M282.017 286.154C282.017 286.154 285.655 289.414 298.782 285.667C298.782 285.667 287.312 290.354 282.017 286.154Z" fill="#F5EFB2"/>
<path d="M315.486 286.154C315.486 286.154 311.848 289.414 298.721 285.667C298.721 285.667 310.19 290.354 315.486 286.154Z" fill="#F5EFB2"/>
<path d="M298.834 301.534H298.301V306.004H298.834V301.534Z" fill="#E63B2B"/>
<path d="M290.408 300.736H289.769V305.609H290.408V300.736Z" fill="#E63B2B"/>
<path d="M294.006 301.014H293.367V305.887H294.006V301.014Z" fill="#E63B2B"/>
<path d="M306.724 305.75H307.363V300.877H306.724V305.75Z" fill="#E63B2B"/>
<path d="M303.126 306.026H303.765V301.153H303.126V306.026Z" fill="#E63B2B"/>
<path d="M278.557 304.557L298.994 306.663L298.743 317.731L278.557 313.813V304.557Z" fill="#62B497"/>
<path d="M319.111 304.557L298.672 306.663L298.744 317.731L319.111 313.813V304.557Z" fill="#62B497"/>
<path d="M278.618 311.528L298.798 315.349L298.805 316.034L278.618 312.115V311.528Z" fill="#E63B2B"/>
<path d="M319.608 311.528L298.725 315.349L298.716 316.034L319.608 312.115V311.528Z" fill="#E63B2B"/>
<path d="M278.994 303.768L298.451 305.611V306.663L278.994 304.605V303.768Z" fill="#FCCC81"/>
<path d="M319.11 303.768L298.049 305.611V306.663L319.11 304.605V303.768Z" fill="#FCCC81"/>
<path d="M278.993 300.404H278.119V313.73H278.993V300.404Z" fill="#E63B2B"/>
<path d="M319.547 299.571H318.673V313.782H319.547V299.571Z" fill="#E63B2B"/>
<path d="M282.058 276.405C282.058 276.405 285.696 279.665 298.823 275.918C298.823 275.918 287.353 280.605 282.058 276.405Z" fill="#F5EFB2"/>
<path d="M315.527 276.405C315.527 276.405 311.889 279.665 298.762 275.918C298.762 275.918 310.231 280.605 315.527 276.405Z" fill="#F5EFB2"/>
<path d="M278.557 313.226L298.734 317.046L298.743 317.731L278.557 313.813V313.226Z" fill="#E63B2B"/>
<path d="M319.545 313.226L298.662 317.046L298.654 317.731L319.545 313.813V313.226Z" fill="#E63B2B"/>
<path d="M274.002 298.087C274.002 298.087 278.753 301.495 298.833 301.238V301.705C298.833 301.705 276.842 302.344 274.002 298.087Z" fill="#F5EFB2"/>
<path d="M323.645 298.087C323.645 298.087 318.894 301.495 298.814 301.238V301.705C298.814 301.705 320.805 302.344 323.645 298.087Z" fill="#F5EFB2"/>
<path d="M314.538 314.721V307.295L307.883 308.066L307.983 316.034L314.538 314.721Z" fill="#A967A3"/>
<path d="M283.043 314.78V307.295L289.698 308.073L289.598 316.105L283.043 314.78Z" fill="#A967A3"/>
<path d="M283.356 307.295H283.043V314.743H283.356V307.295Z" fill="#E63B2B"/>
<path d="M289.856 308.073H289.543V316.034H289.856V308.073Z" fill="#E63B2B"/>
<path d="M314.304 314.778H314.617V307.33H314.304V314.778Z" fill="#E63B2B"/>
<path d="M307.806 316.07H308.119V308.108H307.806V316.07Z" fill="#E63B2B"/>
<path d="M278.144 304.313L298.674 306.663V309.258L275.52 306.663L278.144 304.313Z" fill="#E63B2B"/>
<path d="M319.203 304.313L298.674 306.663V309.258L321.828 306.663L319.203 304.313Z" fill="#E63B2B"/>
<path d="M298.994 309.216H298.301V317.731H298.994V309.216Z" fill="#E63B2B"/>
<path d="M277.234 313.474L298.744 317.731L298.673 320.45L277.234 316.034V313.474Z" fill="#E63B2B"/>
<path d="M320.049 313.474L298.538 317.731L298.608 320.45L320.049 316.034V313.474Z" fill="#E63B2B"/>
<path d="M283.356 314.743L279.687 317.731L286.231 319.202L289.856 316.034L283.356 314.743Z" fill="#E63B2B"/>
<path d="M289.856 316.034L289.698 318.601L286.23 320.033V319.202L289.856 316.034Z" fill="#E63B2B"/>
<path d="M279.687 317.731L286.231 319.202V320.033L279.687 318.54V317.731Z" fill="#E63B2B"/>
<path d="M314.916 314.328L318.584 317.316L312.039 318.785L308.416 315.617L314.916 314.328Z" fill="#E63B2B"/>
<path d="M308.416 315.618L308.573 318.185L312.039 319.617V318.785L308.416 315.618Z" fill="#E63B2B"/>
<path d="M318.583 317.316L312.039 318.785V319.617L318.583 318.124V317.316Z" fill="#E63B2B"/>
<defs>
<radialGradient id="paint0_radial_279_1382" cx="0" cy="0" r="1" gradientUnits="userSpaceOnUse" gradientTransform="translate(345.543 185.333) scale(822.64 1263.83)">
<stop stop-color="#FBF4ED"/>
<stop offset="0.14" stop-color="#A5D0BD"/>
<stop offset="0.34" stop-color="#FBF8F3"/>
<stop offset="0.45" stop-color="#FBEEE3"/>
<stop offset="0.58" stop-color="#BDDBCC"/>
<stop offset="0.7" stop-color="#FBF3EB"/>
<stop offset="1" stop-color="#C1DDCE"/>
</radialGradient>
<linearGradient id="paint1_linear_279_1382" x1="513.24" y1="235.191" x2="509.216" y2="71.7202" gradientUnits="userSpaceOnUse">
<stop stop-color="#FBE5D6"/>
<stop offset="0.18" stop-color="#F3E2D3"/>
<stop offset="0.63" stop-color="#62B497"/>
<stop offset="1" stop-color="#4C6F62"/>
</linearGradient>
<linearGradient id="paint2_linear_279_1382" x1="511.537" y1="233.065" x2="508.329" y2="102.7" gradientUnits="userSpaceOnUse">
<stop offset="0.09" stop-color="#FBF8F3"/>
<stop offset="0.27" stop-color="#F3E2D3"/>
<stop offset="0.61" stop-color="#62B497"/>
<stop offset="1" stop-color="#4C6F62"/>
</linearGradient>
<linearGradient id="paint3_linear_279_1382" x1="515.435" y1="225.801" x2="513.096" y2="130.88" gradientUnits="userSpaceOnUse">
<stop offset="0.09" stop-color="#FBF8F3"/>
<stop offset="0.27" stop-color="#F3E2D3"/>
<stop offset="0.61" stop-color="#62B497"/>
<stop offset="1" stop-color="#4C6F62"/>
</linearGradient>
<linearGradient id="paint4_linear_279_1382" x1="402.129" y1="331.458" x2="402.129" y2="133.322" gradientUnits="userSpaceOnUse">
<stop stop-color="#FBF8F3"/>
<stop offset="0.1" stop-color="#FBE5D6"/>
<stop offset="0.34" stop-color="#62B497"/>
<stop offset="1" stop-color="#4C6F62"/>
</linearGradient>
<linearGradient id="paint5_linear_279_1382" x1="438.331" y1="331.393" x2="438.331" y2="170.8" gradientUnits="userSpaceOnUse">
<stop stop-color="#FBF8F3"/>
<stop offset="0.1" stop-color="#FBE5D6"/>
<stop offset="0.34" stop-color="#62B497"/>
<stop offset="1" stop-color="#4C6F62"/>
</linearGradient>
<linearGradient id="paint6_linear_279_1382" x1="438.331" y1="331.852" x2="438.331" y2="218.443" gradientUnits="userSpaceOnUse">
<stop stop-color="#FBF8F3"/>
<stop offset="0.1" stop-color="#FBE5D6"/>
<stop offset="0.34" stop-color="#62B497"/>
<stop offset="1" stop-color="#4C6F62"/>
</linearGradient>
<linearGradient id="paint7_linear_279_1382" x1="442.628" y1="331.852" x2="442.628" y2="267.396" gradientUnits="userSpaceOnUse">
<stop stop-color="#FBF8F3"/>
<stop offset="0.1" stop-color="#FBE5D6"/>
<stop offset="0.34" stop-color="#62B497"/>
<stop offset="1" stop-color="#4C6F62"/>
</linearGradient>
</defs>
</svg>
