<svg width="260" height="260" viewBox="0 0 260 260" fill="none" xmlns="http://www.w3.org/2000/svg">
<path d="M25.6821 98.4698C25.4708 97.9892 25.289 97.5281 25.1023 97.0818C21.5451 115.414 18.8869 137.533 19.2112 162.584C19.3783 175.62 20.3363 187.705 21.7366 198.695C16.9854 192.246 10.6915 182.261 6.09754 168.931C0.0983436 151.555 0 137.219 0 129.411C0 94.0706 14.0768 62.001 36.9239 38.4846C21.7858 57.3566 23.8592 85.9931 25.6821 98.4649V98.4698Z" fill="#999A9C"/>
<path d="M85.6741 156.709C77.3263 153.452 65.0429 147.479 52.8627 136.552C37.5822 122.844 29.6422 107.773 25.6772 98.4745V98.4647C23.8494 85.993 21.781 57.3564 36.919 38.4845C38.3094 37.0475 39.7392 35.6448 41.1936 34.2765C42.7265 32.8297 44.289 31.432 45.8907 30.0686C44.1219 43.6242 42.9377 66.3461 50.3421 92.8787C59.2205 124.688 76.0046 146.057 85.679 156.704L85.6741 156.709Z" fill="#999A9C"/>
<path d="M186.633 186.939C171.682 198.136 156.775 203.089 147.931 205.414C161.055 196.748 190.427 174.629 205.142 134.87C211.038 118.931 213.053 104.301 213.554 92.8788C213.554 92.8788 227.016 8.05793 130.263 2.18251C134.503 1.13297 140.669 -0.00974601 148.142 6.27048e-05C151.213 0.00987142 160.932 0.210948 174.011 4.70334C178.949 6.40025 209.574 16.8367 225.469 38.2933C254.762 77.8567 232.387 152.682 186.633 186.934V186.939Z" fill="url(#paint0_linear_43_3595)"/>
<path d="M213.558 92.8838C205.682 108.107 196.116 121.04 185.164 131.962L185.105 132.021C185.105 132.021 185.12 131.976 185.13 131.962C189.817 121.054 207.525 79.8431 191.684 45.8559C176.094 12.4229 136.173 3.4283 130.267 2.1875C227.021 8.06782 213.558 92.8838 213.558 92.8838Z" fill="url(#paint1_linear_43_3595)"/>
<path d="M153.822 190.299C148.801 193.379 144.855 193.757 136.154 199.539C129.678 203.845 124.956 208.224 122.003 211.221C121.993 211.245 121.988 211.27 121.988 211.295C99.5591 210.363 77.9109 203.81 64.527 198.872C60.8272 196.689 56.1398 195.679 51.3493 193.506C51.2904 193.482 51.2461 193.462 51.2068 193.438C51.1331 193.403 51.0742 193.379 51.0202 193.354C50.9465 193.32 50.9121 193.305 50.9121 193.305C47.8757 191.878 44.8048 189.956 41.9256 186.94C39.0807 183.967 37.1449 180.677 36.8796 180.221C36.8796 180.221 34.1281 175.503 32.6737 169.303C30.9737 162.065 29.3917 144.639 29.4408 121.437C31.0819 125.645 46.7554 164.075 84.9665 172.663C90.3024 173.864 105.19 177.204 121.011 171.883C124.991 170.53 129.01 168.641 132.975 166.022C132.999 166.008 133.034 165.988 133.058 165.973C133.093 165.959 133.132 165.929 133.166 165.905C133.181 165.895 133.191 165.89 133.191 165.89C133.731 165.537 134.267 165.169 134.798 164.782C157.91 148.087 158.185 119.524 158.161 116.4C161.005 119.196 172.606 131.255 173.171 149.99C173.652 165.802 166.164 182.727 153.822 190.299Z" fill="#999A9C"/>
<path d="M176.792 205.625C150.796 220.559 113.98 234.782 83.9937 219.691C79.9058 217.631 75.6804 214.895 71.4893 211.216C71.3713 207.553 70.3101 205.169 69.5141 203.791C68.2268 201.565 66.517 200.044 64.5271 198.872C77.911 203.811 99.5592 210.358 121.989 211.295C121.998 211.305 122.003 211.305 122.013 211.295C133.034 212.781 152.663 213.874 174.994 206.258C175.598 206.047 176.198 205.836 176.792 205.63V205.625Z" fill="#999A9C"/>
<path d="M233.885 212.972C217.705 239.755 188.117 248.622 169.943 254.061C151.434 259.603 136.625 260 130.823 260C124.455 260 109.494 259.549 91.3245 253.943C87.1285 252.648 83.1487 251.422 79.4293 250.172C66.119 245.689 56.1645 240.883 51.32 231.442C49.3497 227.602 48.0821 222.732 42.9084 217.165C42.9084 217.165 41.2182 215.341 31.1311 207.087C36.0002 203.997 41.1101 202.854 45.9792 202.854C59.6334 202.854 71.5139 211.79 71.5139 211.79C71.5139 211.589 71.504 211.398 71.4991 211.211C75.6902 214.89 79.9107 217.626 84.0035 219.686C113.99 234.777 150.805 220.549 176.802 205.62C176.812 205.62 176.812 205.611 176.817 205.611C211.456 193.124 229.743 167.391 235.575 158.382C237.452 160.422 239.899 163.556 241.727 167.822C249.795 186.66 237.123 207.621 233.895 212.972H233.885Z" fill="#999A9C"/>
<path d="M257.307 159.225C255.371 167.322 252.757 173.864 250.576 178.538C250.414 174.904 249.627 168.107 245.53 160.902C242.508 155.596 238.833 152.069 236.273 149.985C227.296 158.945 218.329 167.896 209.353 176.856C221.651 160.966 229.158 146.336 233.752 135.709C236.361 129.671 239.648 121.962 242.164 111.354C246.247 94.1638 245.923 79.3673 244.95 69.4409C248.625 76.4051 251.691 83.7273 254.069 91.3585C259.582 109.029 259.96 129.343 259.965 130.25C260.068 138.161 260.127 147.391 257.307 159.225Z" fill="url(#paint2_linear_43_3595)"/>
<path d="M96.6502 158.19C100.32 154.149 123.168 128.367 119.365 99.4066C118.785 94.9829 117.591 85.8117 110.953 76.7338C104.526 67.9403 96.4489 63.9432 91.6043 61.6185C80.8441 56.4543 70.8258 55.6745 64.6841 55.7382C64.9347 55.4783 65.5488 54.8407 66.5167 54.007C66.5413 53.9727 66.5757 53.9334 66.6002 53.8991H66.6101C73.2038 51.6823 83.1681 49.6176 94.5523 51.957C109.956 55.1252 123.408 65.3998 131.083 78.7642C134.365 84.4827 136.596 90.7749 137.46 97.3075C141.43 127.19 115.68 151.859 96.6551 158.19H96.6502Z" fill="#999A9C"/>
<path d="M131.073 78.7591C123.399 65.3997 109.946 55.1202 94.5426 51.9519C83.1584 49.6077 73.199 51.6724 66.6003 53.894C69.3764 50.4267 77.788 41.3389 88.2043 42.874C101.028 44.7622 105.367 48.0235 108.516 45.8705C111.656 43.7273 100.448 42.7121 98.655 44.3943C98.8319 44.2178 100.272 42.7661 102.237 41.5988C104.846 40.0638 107.519 40.5591 109.474 40.7847C112.948 41.1869 115.513 42.4326 116.977 43.2026C122.799 46.2678 131.103 50.6523 133.559 59.3281C134.031 63.7714 133.923 70.564 131.068 78.7591H131.073Z" fill="#999A9C"/>
<path d="M177.416 90.1667C177.416 90.1667 165.511 74.5218 149.174 87.381C149.174 87.381 169.004 86.8121 170.685 98.5679C170.12 98.0137 166.548 94.5953 161.497 95.1005C157.375 95.5124 154.844 98.2932 153.857 99.4065C150.609 103.085 150.407 107.141 149.651 111.162C148.304 118.308 145.622 123.198 142.079 129.637C135.785 141.084 126.067 147.724 121.045 150.632C111.386 156.219 102.198 157.739 96.6455 158.19C115.67 151.859 141.421 127.185 137.451 97.3074C136.586 90.7748 134.355 84.4826 131.073 78.7641C133.928 70.5689 134.036 63.7715 133.564 59.333C133.574 59.3477 133.574 59.3673 133.579 59.382C133.673 59.7155 133.8 60.1717 133.933 60.7111C134.699 57.8323 134.075 54.5218 133.663 52.3786C131.55 41.285 122.288 34.6249 118.52 32.2217C121.65 32.1187 148.118 31.7362 165.28 53.08C177.495 68.2786 177.573 85.2525 177.411 90.1667H177.416Z" fill="#999A9C"/>
<defs>
<linearGradient id="paint0_linear_43_3595" x1="130.268" y1="102.707" x2="238.661" y2="102.707" gradientUnits="userSpaceOnUse">
<stop stop-color="#A767A1"/>
<stop offset="1" stop-color="#EB7E80"/>
</linearGradient>
<linearGradient id="paint1_linear_43_3595" x1="172.232" y1="132.016" x2="172.232" y2="2.1875" gradientUnits="userSpaceOnUse">
<stop stop-color="#A767A1"/>
<stop offset="1" stop-color="#EB7E80"/>
</linearGradient>
<linearGradient id="paint2_linear_43_3595" x1="217.199" y1="117.42" x2="268.698" y2="147.208" gradientUnits="userSpaceOnUse">
<stop stop-color="#A767A1"/>
<stop offset="1" stop-color="#EB7E80"/>
</linearGradient>
</defs>
</svg>
