<svg width="305" height="175" viewBox="0 0 305 175" fill="none" xmlns="http://www.w3.org/2000/svg">
<path d="M17.3504 66.2787C17.2127 65.9549 17.0875 65.6436 16.9623 65.3447C14.5587 77.6864 12.7687 92.5686 12.9815 109.431C13.0942 118.198 13.7453 126.331 14.6841 133.741C11.4794 129.394 7.22321 122.682 4.11863 113.715C0.0626413 102.021 0 92.3693 0 87.1138C0 63.3272 9.50142 41.745 24.9367 25.9163C14.7216 38.6191 16.1111 57.8849 17.3504 66.2787Z" fill="#FBF8F3"/>
<path d="M57.8605 105.471C52.2272 103.279 43.9275 99.2563 35.7029 91.9086C25.3877 82.6804 20.0171 72.543 17.3506 66.2787C16.1238 57.8849 14.7218 38.6066 24.9369 25.9038C25.8758 24.9324 26.8398 23.9984 27.8287 23.0768C28.8678 22.1054 29.9194 21.1589 30.996 20.2498C29.8067 29.3783 29.0054 44.6715 34.0003 62.5177C39.9966 83.9257 51.3259 98.3099 57.8605 105.471Z" fill="#FBF8F3"/>
<path d="M126.036 125.82C115.946 133.355 105.869 136.692 99.8976 138.249C108.761 132.421 128.59 117.526 138.53 90.7753C142.511 80.0527 143.875 70.2017 144.213 62.5177C144.213 62.5177 153.302 5.4299 87.9678 1.46961C90.8345 0.759745 94.9905 0 100.035 0C102.114 0 108.673 0.13704 117.511 3.1633C120.841 4.30904 141.522 11.333 152.262 25.7669C172.042 52.393 156.932 102.756 126.036 125.808V125.82Z" fill="#FBF8F3"/>
<path d="M144.225 62.5178C138.905 72.7673 132.445 81.4724 125.047 88.8201L125.009 88.8575C125.009 88.8575 125.009 88.8326 125.021 88.8201C128.189 81.4724 140.144 53.738 129.453 30.873C118.925 8.36907 91.9729 2.31658 87.9795 1.48218C153.313 5.44247 144.225 62.5303 144.225 62.5303V62.5178Z" fill="#FBF8F3"/>
<path d="M103.878 128.074C100.486 130.154 97.8192 130.403 91.948 134.289C87.5791 137.19 84.3867 140.129 82.3963 142.147C82.3963 142.159 82.3963 142.184 82.3963 142.197C67.2489 141.574 52.6273 137.165 43.589 133.84C41.0853 132.371 37.9308 131.698 34.6885 130.229C34.651 130.216 34.6258 130.204 34.5883 130.179C34.5382 130.154 34.5008 130.142 34.4633 130.117C34.4132 130.092 34.3881 130.079 34.3881 130.079C32.3351 129.12 30.2694 127.825 28.3165 125.795C26.4012 123.79 25.0868 121.573 24.9115 121.274C24.9115 121.274 23.0588 118.099 22.0698 113.927C20.9181 109.057 19.854 97.3259 19.8916 81.7089C20.9932 84.5359 31.5838 110.402 57.3844 116.181C60.9897 116.99 71.0423 119.245 81.7205 115.658C84.412 114.749 87.1284 113.478 89.7949 111.71C89.8074 111.71 89.8325 111.685 89.8575 111.673C89.8826 111.673 89.9074 111.648 89.9324 111.623H89.9449C90.308 111.386 90.6711 111.137 91.0342 110.876C106.645 99.6424 106.832 80.4138 106.807 78.3091C108.723 80.1896 116.559 88.3095 116.947 100.913C117.273 111.561 112.215 122.943 103.878 128.037V128.074Z" fill="#FBF8F3"/>
<path d="M119.388 138.398C101.837 148.448 76.9755 158.025 56.7206 147.863C53.954 146.481 51.1123 144.638 48.2831 142.159C48.208 139.693 47.4822 138.087 46.9439 137.165C46.0801 135.671 44.9156 134.65 43.5762 133.853C52.6145 137.178 67.2361 141.586 82.3834 142.209C82.3834 142.209 82.3835 142.209 82.396 142.209C89.8445 143.205 103.089 143.94 118.174 138.822C118.587 138.685 118.988 138.535 119.388 138.398Z" fill="#FBF8F3"/>
<path d="M157.946 143.343C147.017 161.363 127.038 167.341 114.77 171.003C102.276 174.739 92.2739 175 88.3557 175C84.0493 175 73.9471 174.689 61.679 170.928C58.8498 170.056 56.1582 169.234 53.6419 168.387C44.6537 165.373 37.9314 162.135 34.664 155.784C33.3371 153.206 32.4733 149.918 28.9806 146.17C28.9806 146.17 27.8413 144.949 21.0312 139.383C24.3236 137.303 27.7662 136.531 31.0586 136.531C40.2847 136.531 48.2965 142.546 48.2965 142.546C48.2965 142.409 48.2965 142.284 48.2965 142.16C51.1257 144.638 53.9799 146.481 56.734 147.863C76.9889 158.026 101.851 148.449 119.402 138.399C142.786 129.992 155.142 112.682 159.085 106.617C160.349 107.987 162.002 110.104 163.241 112.968C168.687 125.646 160.137 139.756 157.946 143.355V143.343Z" fill="#FBF8F3"/>
<path d="M173.769 107.165C172.467 112.619 170.69 117.015 169.225 120.166C169.112 117.713 168.587 113.142 165.82 108.298C163.78 104.724 161.301 102.357 159.573 100.95C153.514 106.978 147.455 113.005 141.396 119.033C149.709 108.335 154.766 98.4967 157.871 91.3358C159.636 87.2759 161.852 82.0828 163.554 74.9468C166.308 63.3772 166.095 53.4142 165.432 46.739C167.911 51.4216 169.989 56.3533 171.591 61.4967C175.309 73.39 175.572 87.0642 175.572 87.6745C175.635 93.0047 175.684 99.2067 173.782 107.177L173.769 107.165Z" fill="#FBF8F3"/>
<path d="M65.2711 106.467C67.7498 103.752 83.1851 86.3916 80.6063 66.9015C80.2182 63.9251 79.4044 57.748 74.9228 51.6457C70.5789 45.7302 65.1334 43.0403 61.8536 41.4711C54.5929 37.9965 47.8204 37.4734 43.6768 37.5107C43.852 37.3364 44.2651 36.9006 44.9161 36.3526C44.9286 36.3277 44.9537 36.3027 44.9787 36.2778C49.4353 34.7834 56.1578 33.401 63.8442 34.9701C74.247 37.0997 83.3354 44.024 88.518 53.0156C90.7338 56.8638 92.2359 61.0981 92.8243 65.4943C95.5033 85.6071 78.1151 102.208 65.2711 106.467Z" fill="#FBF8F3"/>
<path d="M88.5178 53.0155C83.3352 44.0239 74.2468 37.0996 63.8439 34.97C56.1576 33.3884 49.4351 34.7833 44.9785 36.2777C46.8563 33.9489 52.5396 27.8217 59.5624 28.8678C68.2252 30.1381 71.1548 32.3299 73.2829 30.8853C75.3985 29.4407 67.8373 28.7557 66.623 29.8889C66.7482 29.7644 67.712 28.793 69.039 28.0084C70.8041 26.9748 72.6066 27.3111 73.9211 27.4605C76.262 27.7345 78.0022 28.5688 78.9911 29.0919C82.9219 31.1592 88.5301 34.1107 90.1951 39.939C90.508 42.9279 90.4457 47.4985 88.5178 53.0155Z" fill="#FBF8F3"/>
<path d="M119.814 60.6871C119.814 60.6871 111.778 50.1512 100.736 58.8066C100.736 58.8066 114.131 58.4206 115.258 66.3412C114.882 65.9675 112.466 63.6636 109.048 64.0123C106.269 64.2863 104.554 66.1543 103.891 66.914C101.7 69.3923 101.562 72.1196 101.049 74.8221C100.135 79.6292 98.3326 82.9171 95.9416 87.251C91.6978 94.9599 85.1258 99.4308 81.7333 101.386C75.2112 105.147 69.0018 106.168 65.2588 106.467C78.1027 102.208 95.4909 85.5946 92.812 65.4942C92.2236 61.0981 90.7215 56.8638 88.5057 53.0156C90.4335 47.4986 90.5087 42.928 90.1833 39.9391C90.1833 39.9391 90.1833 39.9641 90.1833 39.9765C90.2459 40.2007 90.3334 40.512 90.421 40.8732C90.9343 38.9304 90.521 36.7136 90.2331 35.269C88.806 27.7967 82.5468 23.326 80.0056 21.707C82.1212 21.6447 99.9976 21.3831 111.577 35.7422C119.827 45.9667 119.877 57.3993 119.764 60.6996L119.814 60.6871Z" fill="#FBF8F3"/>
<path d="M199.795 141.213C199.795 143.243 198.142 144.887 196.102 144.887H189.066V144.663C189.066 142.433 190.143 140.354 191.933 138.996L191.958 138.971C192.822 138.324 193.56 137.688 194.174 137.091C194.787 136.493 195.263 135.945 195.601 135.447C195.939 134.949 196.102 134.55 196.102 134.251C196.102 133.791 195.939 133.392 195.626 133.081C195.301 132.757 194.912 132.607 194.449 132.607C193.986 132.607 193.585 132.769 193.272 133.093C192.947 133.417 192.797 133.815 192.797 134.289H190.869C189.792 134.289 189.066 133.193 189.504 132.209C189.792 131.561 190.18 131.001 190.669 130.515C191.157 130.03 191.72 129.643 192.371 129.357C193.022 129.071 193.711 128.934 194.462 128.934C195.213 128.934 195.901 129.071 196.54 129.357C197.191 129.643 197.754 130.03 198.242 130.515C198.73 131.001 199.106 131.561 199.394 132.209C199.682 132.857 199.82 133.541 199.82 134.289C199.82 136.393 198.242 138.71 195.1 141.225H199.82L199.795 141.213Z" fill="#FBF8F3"/>
<path d="M208.921 128.909C210.023 128.909 211.062 129.12 212.038 129.544C213.014 129.967 213.866 130.528 214.592 131.25C215.318 131.972 215.894 132.807 216.319 133.778C216.745 134.75 216.958 135.783 216.958 136.892C216.958 138 216.745 139.034 216.319 140.005C215.894 140.976 215.318 141.823 214.592 142.533C213.866 143.255 213.014 143.816 212.038 144.239C211.062 144.663 210.023 144.874 208.921 144.874C207.819 144.874 206.78 144.663 205.804 144.239C204.827 143.816 203.976 143.255 203.263 142.533C202.536 141.811 201.973 140.976 201.548 140.005C201.122 139.034 200.909 138 200.909 136.892C200.909 135.783 201.122 134.75 201.548 133.778C201.973 132.807 202.536 131.96 203.263 131.25C203.989 130.528 204.827 129.967 205.804 129.544C206.78 129.12 207.819 128.909 208.921 128.909ZM208.921 141.201C209.522 141.201 210.085 141.088 210.598 140.864C211.124 140.64 211.587 140.329 211.975 139.943C212.363 139.557 212.676 139.096 212.902 138.573C213.127 138.05 213.24 137.489 213.24 136.904C213.24 136.319 213.127 135.746 212.902 135.235C212.676 134.712 212.363 134.251 211.975 133.865C211.587 133.479 211.124 133.168 210.598 132.944C210.073 132.72 209.509 132.607 208.921 132.607C208.333 132.607 207.757 132.72 207.243 132.944C206.718 133.168 206.255 133.479 205.866 133.865C205.478 134.251 205.165 134.712 204.94 135.235C204.715 135.758 204.602 136.319 204.602 136.904C204.602 137.489 204.715 138.062 204.94 138.573C205.165 139.096 205.478 139.557 205.866 139.943C206.255 140.329 206.718 140.64 207.243 140.864C207.769 141.088 208.333 141.201 208.921 141.201Z" fill="#FBF8F3"/>
<path d="M228.812 141.213C228.812 143.243 227.16 144.887 225.119 144.887H218.084V144.663C218.084 142.433 219.161 140.354 220.951 138.996L220.976 138.971C221.84 138.324 222.578 137.688 223.192 137.091C223.805 136.493 224.281 135.945 224.619 135.447C224.957 134.949 225.119 134.55 225.119 134.251C225.119 133.791 224.957 133.392 224.644 133.081C224.318 132.757 223.93 132.607 223.467 132.607C223.004 132.607 222.603 132.769 222.29 133.093C221.965 133.417 221.814 133.815 221.814 134.289H219.912C218.848 134.289 218.096 133.205 218.509 132.234V132.209C218.797 131.561 219.186 131.001 219.674 130.515C220.162 130.03 220.725 129.643 221.376 129.357C222.027 129.071 222.716 128.934 223.467 128.934C224.218 128.934 224.907 129.071 225.545 129.357C226.196 129.643 226.759 130.03 227.248 130.515C227.736 131.001 228.111 131.561 228.399 132.209C228.687 132.857 228.825 133.541 228.825 134.289C228.825 136.393 227.248 138.71 224.105 141.225H228.825L228.812 141.213Z" fill="#FBF8F3"/>
<path d="M241.744 141.213C241.744 143.243 240.091 144.887 238.051 144.887H231.016V144.663C231.016 142.433 232.092 140.354 233.882 138.996L233.907 138.971C234.771 138.324 235.51 137.688 236.123 137.091C236.736 136.493 237.212 135.945 237.55 135.447C237.888 134.949 238.051 134.55 238.051 134.251C238.051 133.791 237.888 133.392 237.575 133.081C237.25 132.757 236.862 132.607 236.398 132.607C235.935 132.607 235.535 132.769 235.222 133.093C234.896 133.417 234.746 133.815 234.746 134.289H232.843C231.779 134.289 231.028 133.205 231.441 132.234V132.209C231.729 131.561 232.117 131.001 232.605 130.515C233.093 130.03 233.657 129.643 234.308 129.357C234.959 129.071 235.647 128.934 236.398 128.934C237.149 128.934 237.838 129.071 238.477 129.357C239.128 129.643 239.691 130.03 240.179 130.515C240.667 131.001 241.043 131.561 241.331 132.209C241.619 132.857 241.756 133.541 241.756 134.289C241.756 136.393 240.179 138.71 237.037 141.225H241.756L241.744 141.213Z" fill="#FBF8F3"/>
<path d="M288.575 85.52C290.841 85.52 292.969 85.9558 294.96 86.8151C296.95 87.6744 298.703 88.8451 300.18 90.3022C301.657 91.7593 302.846 93.5029 303.71 95.483C304.574 97.4756 304.999 99.5927 304.999 101.847C304.999 104.101 304.574 106.218 303.71 108.211C302.846 110.203 301.67 111.922 300.18 113.391C298.69 114.861 296.95 116.019 294.96 116.878C292.969 117.738 290.841 118.174 288.575 118.174C286.309 118.174 284.181 117.75 282.191 116.878C280.2 116.019 278.46 114.849 276.983 113.391C275.506 111.922 274.342 110.191 273.478 108.211C272.614 106.218 272.188 104.101 272.188 101.847C272.188 99.5927 272.614 97.4756 273.478 95.483C274.342 93.4904 275.506 91.7718 276.983 90.3022C278.46 88.8327 280.188 87.6744 282.191 86.8151C284.181 85.9558 286.309 85.52 288.575 85.52ZM288.6 110.652C289.827 110.652 290.966 110.428 292.043 109.967C293.12 109.506 294.058 108.871 294.86 108.074C295.661 107.277 296.299 106.343 296.762 105.272C297.225 104.201 297.451 103.067 297.451 101.847C297.451 100.626 297.225 99.4931 296.762 98.4221C296.299 97.3511 295.661 96.417 294.86 95.62C294.058 94.8229 293.12 94.1878 292.043 93.727C290.966 93.2662 289.827 93.042 288.6 93.042C287.374 93.042 286.234 93.2662 285.158 93.727C284.081 94.1878 283.142 94.8229 282.341 95.62C281.54 96.417 280.901 97.3511 280.438 98.4221C279.975 99.4931 279.75 100.626 279.75 101.847C279.75 103.067 279.975 104.201 280.438 105.272C280.901 106.343 281.54 107.277 282.341 108.074C283.142 108.871 284.081 109.506 285.158 109.967C286.234 110.428 287.374 110.652 288.6 110.652Z" fill="#FBF8F3"/>
<path d="M198.506 102.419H198.48V108.846H198.506V102.419Z" fill="#FBF8F3"/>
<path d="M198.506 86.9023H198.48V93.0544H198.506V86.9023Z" fill="#FBF8F3"/>
<path d="M215.305 110.328V108.846H198.505V118.211H207.381C211.762 118.211 215.305 114.686 215.305 110.328Z" fill="#FBF8F3"/>
<path d="M212.125 96.3049V93.0544H198.505V102.42H205.979C209.371 102.42 212.125 99.6798 212.125 96.3049Z" fill="#FBF8F3"/>
<path d="M198.48 86.9023H198.505V77.5745L189.066 77.5994V112.482C189.066 115.645 191.645 118.223 194.837 118.223H198.505V108.858H198.48V102.432H198.505V93.0668H198.48V86.9148V86.9023Z" fill="#FBF8F3"/>
<path d="M215.305 86.9023V82.917C215.305 79.9531 212.889 77.5496 209.897 77.5496L198.505 77.5745V86.9023H215.305Z" fill="#FBF8F3"/>
<path d="M245.825 85.6321C240.38 85.6321 235.335 88.484 232.543 93.1417L231.867 94.2626L236.299 101.361L245.838 85.6445L245.825 85.6321Z" fill="#FBF8F3"/>
<path d="M217.295 118.286C222.715 118.286 227.748 115.471 230.565 110.851L231.879 108.684L227.422 101.511L217.295 118.286Z" fill="#FBF8F3"/>
<path d="M236.249 101.424L236.299 101.349L231.867 94.2501V94.2749L231.104 93.0545C228.237 88.4341 223.167 85.6196 217.709 85.6196L227.473 101.461L227.448 101.511L231.905 108.684V108.659L233.244 110.801C236.111 115.446 241.206 118.286 246.702 118.286L236.274 101.424H236.249Z" fill="#FBF8F3"/>
<path d="M256.403 105.483C256.403 105.483 256.453 105.483 256.478 105.483V93.0793C256.478 93.0793 256.428 93.0793 256.403 93.0793V105.496V105.483Z" fill="#FBF8F3"/>
<path d="M256.403 107.725V93.9262C256.403 93.9262 256.453 93.9262 256.478 93.9262V85.5571H248.854V121.872H251.183C254.075 121.872 256.415 119.282 256.415 116.081C256.415 116.081 256.466 116.081 256.491 116.081V107.712C256.491 107.712 256.44 107.712 256.415 107.712L256.403 107.725Z" fill="#FBF8F3"/>
<path d="M268.897 94.0382C268.196 92.3943 267.232 90.9497 265.993 89.7043C264.753 88.4589 263.314 87.4626 261.674 86.7278C260.059 85.9931 258.319 85.6069 256.466 85.5696V93.0917C257.267 93.1291 258.031 93.3159 258.744 93.6397C259.47 93.9884 260.109 94.4243 260.647 94.9847C261.185 95.5326 261.611 96.1802 261.924 96.9274C262.237 97.6746 262.4 98.4592 262.4 99.2936C262.4 100.128 262.237 100.913 261.924 101.66C261.611 102.407 261.185 103.055 260.647 103.603C260.109 104.151 259.483 104.599 258.744 104.948C258.031 105.284 257.28 105.458 256.466 105.496V113.018C258.319 112.98 260.046 112.607 261.674 111.884C263.314 111.162 264.753 110.166 265.993 108.92C267.232 107.675 268.196 106.23 268.897 104.586C269.598 102.943 269.948 101.187 269.948 99.3186C269.948 97.4505 269.598 95.6945 268.897 94.0507V94.0382Z" fill="#FBF8F3"/>
<path d="M203.212 67.1756C201.322 67.1756 199.532 66.8268 197.842 66.1419C196.152 65.4569 194.65 64.4731 193.335 63.1903C191.983 61.8453 190.944 60.3384 190.218 58.6572C189.492 56.9759 189.117 55.1826 189.079 53.2647V30.1133C193.811 30.1133 197.642 33.9241 197.642 38.6316V53.2024C197.642 54.6844 198.205 55.9796 199.319 57.088C200.433 58.1341 201.748 58.6447 203.275 58.6572C204.013 58.6572 204.739 58.5077 205.403 58.2088C206.066 57.91 206.668 57.499 207.181 57.0009C207.682 56.5027 208.082 55.9049 208.345 55.2324C208.62 54.5599 208.746 53.8376 208.746 53.0654V30.1257C213.478 30.1257 217.308 33.9365 217.308 38.6441V53.0156C217.346 54.9335 216.995 56.7518 216.269 58.458C215.543 60.1766 214.541 61.671 213.277 62.9413C212.013 64.2241 210.523 65.2328 208.82 65.9924C207.118 66.7521 205.303 67.1383 203.375 67.1756H203.225H203.212Z" fill="#FBF8F3"/>
<path d="M220.513 62.8417V66.5653H227.473V57.1005L230.077 59.6411C234.646 64.0871 240.767 66.5778 247.152 66.5778H247.24L231.792 51.6208L220.5 62.8541L220.513 62.8417Z" fill="#FBF8F3"/>
<path d="M227.473 36.4521C223.63 36.4521 220.513 39.5531 220.513 43.3763V52.5921L227.473 45.6679V36.4521Z" fill="#FBF8F3"/>
<path d="M247.24 36.4521H237.238L227.473 45.9544V45.6555L220.513 52.5921V62.8416L231.804 51.6084L231.717 51.5336L247.24 36.4521Z" fill="#FBF8F3"/>
<path d="M248.717 66.5653C252.66 66.5653 255.915 63.5267 256.165 59.6162L256.503 54.3483L250.607 37.075L248.717 66.5653Z" fill="#FBF8F3"/>
<path d="M278.085 36.4521H270.925L264.453 55.2947L257.818 36.4521H250.658L250.607 37.0748L256.504 54.3482L256.541 53.7878L260.998 66.5652H267.958L272.152 54.2734L272.177 54.535L278.123 37.0624L278.085 36.4521Z" fill="#FBF8F3"/>
<path d="M278.123 37.0625L272.177 54.5352L272.49 59.6536C272.728 63.5392 275.957 66.5654 279.863 66.5654L278.123 37.05V37.0625Z" fill="#FBF8F3"/>
</svg>
