<svg width="96" height="56" viewBox="0 0 96 56" fill="none" xmlns="http://www.w3.org/2000/svg">
<path d="M5.45877 21.2088C5.41386 21.1053 5.37523 21.006 5.33555 20.9099C4.57944 24.8584 4.01446 29.6225 4.08338 35.0182C4.11889 37.8259 4.32253 40.4287 4.62016 42.7959C3.61028 41.4068 2.2725 39.2561 1.29604 36.3851C0.0209031 32.6425 0 29.5549 0 27.8732C0 20.2613 2.99205 13.354 7.84824 8.28894C4.63062 12.3537 5.07132 18.5216 5.45877 21.2078V21.2088Z" fill="url(#paint0_linear_40_1674)"/>
<path d="M18.2101 33.753C16.4357 33.0516 13.8249 31.765 11.2359 29.4115C7.98805 26.459 6.30038 23.213 5.4576 21.2102V21.2081C5.06911 18.5218 4.62945 12.3539 7.84706 8.28921C8.14261 7.97971 8.44651 7.6776 8.75564 7.38288C9.08147 7.07127 9.41358 6.77022 9.75403 6.47656C9.37807 9.39624 9.12636 14.2902 10.7002 20.0049C12.5873 26.8562 16.1548 31.4586 18.2111 33.7519L18.2101 33.753Z" fill="url(#paint1_linear_40_1674)"/>
<path d="M39.6692 40.2639C36.4913 42.6755 33.3228 43.7424 31.4429 44.2431C34.2324 42.3766 40.4754 37.6126 43.6032 29.0489C44.8565 25.6159 45.2846 22.4649 45.3912 20.0047C45.3912 20.0047 48.2527 1.73556 27.6875 0.470079C28.5888 0.244026 29.8994 -0.00209914 31.4878 1.35057e-05C32.1406 0.00212615 34.2063 0.0454351 36.9863 1.01303C38.0359 1.37852 44.5452 3.62637 47.9237 8.24779C54.15 16.7692 49.3941 32.8855 39.6692 40.2629V40.2639Z" fill="url(#paint2_linear_40_1674)"/>
<path d="M45.3921 20.0058C43.7181 23.2846 41.6847 26.0702 39.3569 28.4226L39.3444 28.4353C39.3444 28.4353 39.3475 28.4258 39.3496 28.4226C40.3459 26.0733 44.1097 17.197 40.7427 9.87671C37.429 2.67574 28.9438 0.738441 27.6885 0.471191C48.2536 1.73772 45.3921 20.0058 45.3921 20.0058V20.0058Z" fill="url(#paint3_linear_40_1674)"/>
<path d="M32.6953 40.9877C31.628 41.6511 30.7894 41.7325 28.9398 42.9779C27.5634 43.9053 26.5598 44.8486 25.9321 45.494C25.93 45.4993 25.929 45.5046 25.929 45.5099C21.1616 45.3092 16.5602 43.8979 13.7154 42.8342C12.929 42.3641 11.9327 42.1465 10.9145 41.6786C10.902 41.6733 10.8926 41.6691 10.8842 41.6638C10.8685 41.6564 10.856 41.6511 10.8445 41.6458C10.8289 41.6384 10.8216 41.6353 10.8216 41.6353C10.1762 41.3279 9.52345 40.9138 8.91147 40.2642C8.30679 39.624 7.89532 38.9152 7.83893 38.817C7.83893 38.817 7.25409 37.8008 6.94496 36.4656C6.58362 34.9065 6.24736 31.1534 6.25781 26.1559C6.60662 27.0622 9.93806 35.3396 18.0599 37.1892C19.1941 37.448 22.3584 38.1674 25.7212 37.0212C26.5671 36.7297 27.4214 36.323 28.2641 35.7589C28.2694 35.7558 28.2767 35.7515 28.2819 35.7484C28.2892 35.7452 28.2976 35.7389 28.3049 35.7336C28.308 35.7315 28.3101 35.7304 28.3101 35.7304C28.425 35.6544 28.5388 35.5751 28.6516 35.4917C33.5642 31.896 33.6227 25.7439 33.6174 25.071C34.2221 25.6731 36.6878 28.2707 36.8079 32.3058C36.9102 35.7114 35.3187 39.3568 32.6953 40.9877V40.9877Z" fill="url(#paint4_linear_40_1674)"/>
<path d="M37.5776 44.2885C32.052 47.505 24.2267 50.5684 17.8531 47.3181C16.9842 46.8744 16.0861 46.285 15.1953 45.4928C15.1702 44.7037 14.9446 44.1903 14.7754 43.8935C14.5018 43.4139 14.1384 43.0864 13.7155 42.834C16.5602 43.8977 21.1616 45.3079 25.929 45.5096C25.9311 45.5118 25.9322 45.5118 25.9342 45.5096C28.2767 45.8297 32.4488 46.0653 37.1954 44.4248C37.3238 44.3794 37.4512 44.334 37.5776 44.2896V44.2885Z" fill="url(#paint5_linear_40_1674)"/>
<path d="M49.7126 45.8707C46.2736 51.6393 39.9846 53.5492 36.1215 54.7206C32.1875 55.9143 29.0399 55.9998 27.8065 55.9998C26.453 55.9998 23.273 55.9027 19.411 54.6953C18.5192 54.4164 17.6733 54.1523 16.8827 53.883C14.0536 52.9175 11.9377 51.8823 10.908 49.8489C10.4892 49.0218 10.2198 47.9728 9.1201 46.7739C9.1201 46.7739 8.76085 46.3809 6.61682 44.6032C7.65176 43.9377 8.73787 43.6915 9.77282 43.6915C12.675 43.6915 15.2003 45.6162 15.2003 45.6162C15.2003 45.5729 15.1982 45.5317 15.1971 45.4915C16.0879 46.2838 16.985 46.8732 17.855 47.3168C24.2286 50.5672 32.0538 47.5028 37.5794 44.2873C37.5815 44.2873 37.5815 44.2852 37.5826 44.2852C44.9452 41.5958 48.8322 36.0533 50.0718 34.1128C50.4708 34.5522 50.9908 35.2272 51.3793 36.1462C53.0941 40.2036 50.4008 44.7183 49.7147 45.8707H49.7126Z" fill="url(#paint6_linear_40_1674)"/>
<path d="M54.6912 34.2946C54.2797 36.0385 53.7241 37.4477 53.2604 38.4544C53.226 37.6716 53.0589 36.2076 52.1879 34.6558C51.5456 33.5129 50.7645 32.7534 50.2204 32.3044C48.3123 34.2343 46.4064 36.1621 44.4984 38.092C47.1124 34.6695 48.7081 31.5185 49.6846 29.2295C50.2391 27.9291 50.9378 26.2686 51.4725 23.9838C52.3404 20.2814 52.2714 17.0944 52.0647 14.9564C52.8458 16.4564 53.4975 18.0335 54.003 19.6771C55.1747 23.4831 55.2551 27.8584 55.2562 28.0538C55.2781 29.7576 55.2906 31.7456 54.6912 34.2946V34.2946Z" fill="url(#paint7_linear_40_1674)"/>
<path d="M20.5432 34.0718C21.3234 33.2014 26.1796 27.6483 25.3713 21.4107C25.248 20.4579 24.9942 18.4826 23.5833 16.5274C22.2173 14.6334 20.5004 13.7725 19.4707 13.2718C17.1836 12.1594 15.0542 11.9915 13.7488 12.0052C13.802 11.9492 13.9326 11.8119 14.1383 11.6323C14.1435 11.625 14.1508 11.6165 14.1561 11.6091H14.1582C15.5597 11.1316 17.6776 10.6869 20.0973 11.1908C23.3713 11.8732 26.2307 14.0862 27.862 16.9647C28.5596 18.1963 29.0337 19.5516 29.2175 20.9586C30.0614 27.3948 24.588 32.7081 20.5443 34.0718H20.5432Z" fill="url(#paint8_linear_40_1674)"/>
<path d="M27.8598 16.9636C26.2286 14.0862 23.3692 11.8721 20.0952 11.1898C17.6754 10.6848 15.5586 11.1295 14.156 11.6081C14.7461 10.8612 16.534 8.90388 18.748 9.23451C21.4737 9.64119 22.3959 10.3436 23.0653 9.87992C23.7326 9.4183 21.3505 9.19964 20.9693 9.56196C21.0069 9.52394 21.3129 9.21126 21.7306 8.95986C22.2852 8.62923 22.8533 8.73592 23.2689 8.78451C24.0073 8.87113 24.5524 9.13943 24.8636 9.30528C26.1012 9.96548 27.8661 10.9098 28.3883 12.7785C28.4885 13.7355 28.4656 15.1985 27.8588 16.9636H27.8598Z" fill="url(#paint9_linear_40_1674)"/>
<path d="M37.7102 19.4206C37.7102 19.4206 35.1797 16.0509 31.7073 18.8206C31.7073 18.8206 35.9223 18.698 36.2794 21.2301C36.1593 21.1107 35.4001 20.3744 34.3265 20.4832C33.4503 20.572 32.9125 21.1709 32.7026 21.4107C32.0123 22.2029 31.9694 23.0765 31.8086 23.9427C31.5224 25.4818 30.9522 26.5349 30.1993 27.9219C28.8615 30.3873 26.7958 31.8176 25.7284 32.444C23.6753 33.6471 21.7223 33.9746 20.5422 34.0718C24.5859 32.7081 30.0593 27.3937 29.2155 20.9586C29.0317 19.5516 28.5576 18.1963 27.8599 16.9646C28.4667 15.1995 28.4897 13.7354 28.3894 12.7795C28.3915 12.7826 28.3915 12.7869 28.3926 12.79C28.4124 12.8618 28.4396 12.9601 28.4678 13.0763C28.6307 12.4562 28.498 11.7432 28.4103 11.2816C27.9612 8.89218 25.9927 7.45769 25.1916 6.94009C25.8569 6.91791 31.4828 6.83552 35.1307 11.4326C37.7269 14.7062 37.7436 18.3621 37.7091 19.4206H37.7102Z" fill="url(#paint10_linear_40_1674)"/>
<path d="M62.885 45.1904C62.885 45.84 62.3639 46.3671 61.7216 46.3671H59.5055V46.2953C59.5055 45.5801 59.8449 44.9146 60.4089 44.4837L60.4172 44.4773C60.6898 44.2682 60.9227 44.0675 61.1159 43.8742C61.308 43.6809 61.4574 43.5055 61.5628 43.3481C61.6683 43.1897 61.7216 43.0619 61.7216 42.9647C61.7216 42.8157 61.6715 42.69 61.5702 42.5886C61.4689 42.4862 61.3456 42.4355 61.1984 42.4355C61.0511 42.4355 60.9279 42.4872 60.8266 42.5907C60.7253 42.6943 60.6751 42.821 60.6751 42.971H60.0705C59.7321 42.971 59.5045 42.6203 59.6402 42.3066C59.73 42.1006 59.8512 41.9189 60.0047 41.7636C60.1582 41.6084 60.3368 41.4848 60.5415 41.395C60.7451 41.3041 60.9644 41.2598 61.1984 41.2598C61.4323 41.2598 61.6506 41.3052 61.8542 41.395C62.0579 41.4858 62.2354 41.6084 62.3879 41.7636C62.5404 41.9189 62.6615 42.1006 62.7503 42.3066C62.839 42.5126 62.8839 42.7344 62.8839 42.971C62.8839 43.6439 62.3889 44.3844 61.3979 45.1914H62.8839L62.885 45.1904Z" fill="#84B396"/>
<path d="M65.7581 41.2505C66.1058 41.2505 66.4337 41.3181 66.7408 41.4522C67.0478 41.5864 67.3162 41.7691 67.5449 41.9984C67.7736 42.2276 67.9553 42.498 68.088 42.8096C68.2206 43.1202 68.2875 43.4519 68.2875 43.8047C68.2875 44.1575 68.2206 44.4892 68.088 44.7997C67.9553 45.1103 67.7736 45.3807 67.5449 45.611C67.3162 45.8402 67.0478 46.023 66.7408 46.1571C66.4337 46.2913 66.1058 46.3589 65.7581 46.3589C65.4103 46.3589 65.0824 46.2913 64.7753 46.1571C64.4683 46.023 64.202 45.8402 63.9743 45.611C63.7477 45.3807 63.5681 45.1114 63.4354 44.7997C63.3028 44.4892 63.236 44.1575 63.236 43.8047C63.236 43.4519 63.3028 43.1202 63.4354 42.8096C63.5681 42.4991 63.7477 42.2286 63.9743 41.9984C64.2009 41.7691 64.4683 41.5864 64.7753 41.4522C65.0824 41.3181 65.4103 41.2505 65.7581 41.2505ZM65.7612 45.1832C65.9492 45.1832 66.1257 45.1473 66.2907 45.0754C66.4557 45.0036 66.6008 44.9054 66.7241 44.7797C66.8484 44.654 66.9455 44.5082 67.0165 44.3413C67.0875 44.1744 67.123 43.9959 67.123 43.8057C67.123 43.6156 67.0875 43.4371 67.0165 43.2702C66.9455 43.1033 66.8484 42.9565 66.7241 42.8318C66.5998 42.7061 66.4557 42.6079 66.2907 42.536C66.1257 42.4642 65.9492 42.4283 65.7612 42.4283C65.5732 42.4283 65.3967 42.4642 65.2317 42.536C65.0667 42.6079 64.9215 42.7061 64.7983 42.8318C64.674 42.9575 64.5769 43.1033 64.5059 43.2702C64.4349 43.4371 64.3994 43.6156 64.3994 43.8057C64.3994 43.9959 64.4349 44.1744 64.5059 44.3413C64.5769 44.5082 64.674 44.655 64.7983 44.7797C64.9226 44.9054 65.0667 45.0036 65.2317 45.0754C65.3967 45.1473 65.5732 45.1832 65.7612 45.1832Z" fill="#84B396"/>
<path d="M72.0156 45.1905C72.0156 45.8401 71.4945 46.3672 70.8522 46.3672H68.6361V46.2954C68.6361 45.5803 68.9755 44.9148 69.5395 44.4838L69.5478 44.4775C69.8204 44.2683 70.0533 44.0676 70.2465 43.8743C70.4387 43.681 70.588 43.5056 70.6935 43.3482C70.799 43.1898 70.8522 43.062 70.8522 42.9648C70.8522 42.8159 70.8021 42.6902 70.7008 42.5887C70.5995 42.4863 70.4763 42.4356 70.329 42.4356C70.1818 42.4356 70.0585 42.4873 69.9572 42.5909C69.8559 42.6944 69.8058 42.8211 69.8058 42.9711H69.2074C68.8722 42.9711 68.634 42.6247 68.7677 42.313L68.7708 42.3067C68.8606 42.1007 68.9818 41.919 69.1353 41.7638C69.2888 41.6085 69.4674 41.4849 69.6721 41.3951C69.8758 41.3043 70.0951 41.2599 70.329 41.2599C70.5629 41.2599 70.7812 41.3053 70.9848 41.3951C71.1885 41.4859 71.366 41.6085 71.5185 41.7638C71.671 41.919 71.7921 42.1007 71.8809 42.3067C71.9697 42.5127 72.0146 42.7345 72.0146 42.9711C72.0146 43.644 71.5195 44.3845 70.5285 45.1915H72.0146L72.0156 45.1905Z" fill="#84B396"/>
<path d="M76.0896 45.1905C76.0896 45.8401 75.5684 46.3672 74.9262 46.3672H72.7101V46.2954C72.7101 45.5803 73.0495 44.9148 73.6135 44.4838L73.6218 44.4775C73.8944 44.2683 74.1273 44.0676 74.3205 43.8743C74.5126 43.681 74.662 43.5056 74.7675 43.3482C74.8729 43.1898 74.9262 43.062 74.9262 42.9648C74.9262 42.8159 74.876 42.6902 74.7747 42.5887C74.6734 42.4863 74.5502 42.4356 74.403 42.4356C74.2557 42.4356 74.1325 42.4873 74.0312 42.5909C73.9299 42.6944 73.8798 42.8211 73.8798 42.9711H73.2813C72.9461 42.9711 72.708 42.6247 72.8417 42.313L72.8448 42.3067C72.9346 42.1007 73.0558 41.919 73.2093 41.7638C73.3628 41.6085 73.5414 41.4849 73.7461 41.3951C73.9497 41.3043 74.169 41.2599 74.403 41.2599C74.6369 41.2599 74.8552 41.3053 75.0588 41.3951C75.2625 41.4859 75.44 41.6085 75.5925 41.7638C75.7449 41.919 75.8661 42.1007 75.9549 42.3067C76.0436 42.5127 76.0885 42.7345 76.0885 42.9711C76.0885 43.644 75.5935 44.3845 74.6024 45.1915H76.0885L76.0896 45.1905Z" fill="#84B396"/>
<path d="M90.8274 27.3662C91.5397 27.3662 92.2091 27.5035 92.8378 27.7792C93.4654 28.0549 94.0137 28.4268 94.4826 28.8968C94.9515 29.3669 95.3212 29.9193 95.5928 30.5553C95.8643 31.1912 96 31.8704 96 32.5908C96 33.3112 95.8643 33.9904 95.5928 34.6263C95.3212 35.2622 94.9505 35.8147 94.4826 36.2848C94.0137 36.7548 93.4654 37.1277 92.8378 37.4024C92.2101 37.6781 91.5397 37.8154 90.8274 37.8154C90.1152 37.8154 89.4447 37.6781 88.8171 37.4024C88.1894 37.1266 87.6432 36.7548 87.1795 36.2848C86.7159 35.8147 86.3482 35.2622 86.0767 34.6263C85.8052 33.9904 85.6694 33.3123 85.6694 32.5908C85.6694 31.8693 85.8052 31.1912 86.0767 30.5553C86.3482 29.9193 86.7159 29.3669 87.1795 28.8968C87.6432 28.4268 88.1894 28.0549 88.8171 27.7792C89.4447 27.5035 90.1152 27.3662 90.8274 27.3662ZM90.8347 35.4101C91.2191 35.4101 91.5804 35.3372 91.9188 35.1894C92.2571 35.0425 92.5527 34.8408 92.8054 34.5841C93.0592 34.3274 93.2576 34.0285 93.4038 33.6873C93.549 33.345 93.6221 32.9806 93.6221 32.5908C93.6221 32.201 93.549 31.8366 93.4038 31.4943C93.2587 31.1531 93.0592 30.8531 92.8054 30.5975C92.5516 30.3408 92.2561 30.1401 91.9188 29.9922C91.5815 29.8454 91.2201 29.7715 90.8347 29.7715C90.4494 29.7715 90.0891 29.8454 89.7507 29.9922C89.4124 30.1391 89.1168 30.3408 88.8641 30.5975C88.6103 30.8542 88.4108 31.1531 88.2657 31.4943C88.1205 31.8355 88.0474 32.201 88.0474 32.5908C88.0474 32.9806 88.1205 33.345 88.2657 33.6873C88.4108 34.0285 88.6103 34.3274 88.8641 34.5841C89.1179 34.8408 89.4134 35.0425 89.7507 35.1894C90.088 35.3362 90.4494 35.4101 90.8347 35.4101Z" fill="url(#paint11_linear_40_1674)"/>
<path d="M67.7653 35.3064V34.8322H62.4778V37.8289H65.2703C66.6478 37.8289 67.7642 36.6997 67.7642 35.3064H67.7653Z" fill="url(#paint12_linear_40_1674)"/>
<path d="M66.7659 30.8182V29.7788H62.4778V32.7756H64.8307C65.899 32.7756 66.7659 31.8989 66.7659 30.8182V30.8182Z" fill="url(#paint13_linear_40_1674)"/>
<path d="M62.4694 27.8103H62.4777V24.8241L59.5066 24.8304V35.9947C59.5066 37.0088 60.3191 37.8306 61.3217 37.8306H62.4777V34.8338H62.4694V32.7761H62.4777V29.7793H62.4694V27.8103V27.8103Z" fill="url(#paint14_linear_40_1674)"/>
<path d="M67.7653 27.8099V26.5328C67.7653 25.5832 67.0029 24.8142 66.0651 24.8163L62.4778 24.8237V27.8099H67.7653Z" fill="url(#paint15_linear_40_1674)"/>
<path d="M77.373 27.4022C75.6582 27.4022 74.0698 28.3138 73.1915 29.8032L72.9795 30.1635L74.3727 32.4335L77.3741 27.4022H77.373Z" fill="url(#paint16_linear_40_1674)"/>
<path d="M68.3939 37.8542C70.1014 37.8542 71.6857 36.9511 72.5702 35.4743L72.9848 34.7814L71.5844 32.4871L68.395 37.8542H68.3939Z" fill="url(#paint17_linear_40_1674)"/>
<path d="M74.3571 32.4588L74.3717 32.4335L72.9785 30.1635L72.9744 30.1709L72.7373 29.7821C71.835 28.3033 70.2382 27.4022 68.5203 27.4022L71.5927 32.4726L71.5843 32.4863L72.9848 34.7806L72.989 34.7743L73.4046 35.4588C74.309 36.9472 75.9121 37.8535 77.6384 37.8535L74.3571 32.4578V32.4588Z" fill="url(#paint18_linear_40_1674)"/>
<path d="M80.7004 34.4733V30.0557C80.7077 30.0557 80.715 30.0578 80.7233 30.0578V27.3811H78.3224V39.0017H79.0545C79.9641 39.0017 80.7014 38.1725 80.7014 37.1489C80.7087 37.1489 80.716 37.1489 80.7244 37.1489V34.4722C80.7171 34.4722 80.7098 34.4743 80.7014 34.4743L80.7004 34.4733Z" fill="url(#paint19_linear_40_1674)"/>
<path d="M84.6344 30.0927C84.4141 29.5656 84.1091 29.1029 83.7196 28.7047C83.33 28.3064 82.8768 27.9885 82.3609 27.7508C81.8512 27.5163 81.305 27.3938 80.7223 27.3811V29.7885C80.9761 29.8001 81.2152 29.8592 81.4387 29.9649C81.6685 30.0747 81.8679 30.2173 82.0371 30.3937C82.2063 30.5701 82.34 30.7772 82.4382 31.0149C82.5363 31.2536 82.5864 31.5061 82.5864 31.7722C82.5864 32.0384 82.5374 32.292 82.4382 32.5296C82.34 32.7684 82.2063 32.9754 82.0371 33.1507C81.8679 33.3272 81.6685 33.4698 81.4387 33.5796C81.2152 33.6863 80.9761 33.7444 80.7223 33.756V36.1634C81.305 36.1518 81.8512 36.0313 82.3609 35.8011C82.8768 35.5687 83.33 35.2528 83.7196 34.8546C84.1091 34.4564 84.4141 33.9937 84.6344 33.4666C84.8548 32.9395 84.9655 32.3775 84.9655 31.7796C84.9655 31.1818 84.8548 30.6198 84.6344 30.0927V30.0927Z" fill="url(#paint20_linear_40_1674)"/>
<path d="M63.9575 21.4961C63.3612 21.4961 62.7983 21.3863 62.2667 21.1655C61.7352 20.9447 61.2621 20.63 60.8464 20.2212C60.4214 19.7912 60.0935 19.3064 59.8647 18.7687C59.636 18.231 59.5159 17.6553 59.5055 17.0416V9.63362C60.9947 9.63362 62.202 10.8547 62.202 12.361V17.0247C62.202 17.498 62.3774 17.912 62.7283 18.267C63.0792 18.6008 63.4938 18.7666 63.9721 18.7677C64.2029 18.7677 64.4327 18.718 64.6426 18.6229C64.8525 18.5279 65.0415 18.3969 65.2013 18.2353C65.3611 18.0737 65.4833 17.8856 65.5679 17.6701C65.6525 17.4546 65.6953 17.2233 65.6953 16.9761V9.63257C67.1845 9.63257 68.3918 10.8537 68.3918 12.36V16.9592C68.4022 17.573 68.2936 18.1539 68.0649 18.7022C67.8362 19.2504 67.5229 19.73 67.124 20.1388C66.725 20.5476 66.2572 20.8729 65.7204 21.1148C65.1825 21.3567 64.6113 21.4835 64.0056 21.494H63.9575V21.4961Z" fill="url(#paint21_linear_40_1674)"/>
<path d="M69.4048 20.1105V21.3031H71.5958V18.2735L72.4156 19.0848C73.8516 20.5066 75.7815 21.3031 77.7919 21.3031H77.8201L72.9587 16.5168L69.4048 20.1115V20.1105Z" fill="url(#paint22_linear_40_1674)"/>
<path d="M71.5958 11.6638C70.3854 11.6638 69.4048 12.6557 69.4048 13.88V16.8282L71.5958 14.612V11.6638Z" fill="url(#paint23_linear_40_1674)"/>
<path d="M77.819 11.6638H74.6693L71.5958 14.706V14.612L69.4048 16.8282V20.1102L72.9587 16.5166L72.9315 16.4902L77.819 11.6638Z" fill="url(#paint24_linear_40_1674)"/>
<path d="M78.2828 21.3031C79.5225 21.3031 80.5491 20.3291 80.6284 19.0784L80.7349 17.3915L78.8792 11.8658L78.2828 21.3031Z" fill="url(#paint25_linear_40_1674)"/>
<path d="M87.5273 11.6638H85.2716L83.2351 17.6965L81.1475 11.6638H78.8917L78.8792 11.8656L80.7349 17.3912L80.7464 17.2106L82.1459 21.3028H84.3379L85.66 17.368L85.6653 17.4514L87.5388 11.8582L87.5273 11.6638Z" fill="url(#paint26_linear_40_1674)"/>
<path d="M87.5387 11.8585L85.6652 17.4507L85.7623 19.0901C85.8364 20.3323 86.8536 21.302 88.0849 21.302L87.5387 11.8574V11.8585Z" fill="url(#paint27_linear_40_1674)"/>
<defs>
<linearGradient id="paint0_linear_40_1674" x1="-0.00104434" y1="25.5429" x2="7.84719" y2="25.5429" gradientUnits="userSpaceOnUse">
<stop stop-color="#EB7E80"/>
<stop offset="1" stop-color="#CBDA8F"/>
</linearGradient>
<linearGradient id="paint1_linear_40_1674" x1="6.6116" y1="16.8465" x2="18.5734" y2="22.0497" gradientUnits="userSpaceOnUse">
<stop stop-color="#EB7E80"/>
<stop offset="1" stop-color="#CBDA8F"/>
</linearGradient>
<linearGradient id="paint2_linear_40_1674" x1="27.6885" y1="22.1216" x2="50.7277" y2="22.1216" gradientUnits="userSpaceOnUse">
<stop stop-color="#A767A1"/>
<stop offset="1" stop-color="#EB7E80"/>
</linearGradient>
<linearGradient id="paint3_linear_40_1674" x1="36.6082" y1="28.4342" x2="36.6082" y2="0.471191" gradientUnits="userSpaceOnUse">
<stop stop-color="#A767A1"/>
<stop offset="1" stop-color="#EB7E80"/>
</linearGradient>
<linearGradient id="paint4_linear_40_1674" x1="34.1072" y1="40.3096" x2="7.00728" y2="24.8424" gradientUnits="userSpaceOnUse">
<stop stop-color="#E43D2B"/>
<stop offset="1" stop-color="#FBCB80"/>
</linearGradient>
<linearGradient id="paint5_linear_40_1674" x1="34.4581" y1="49.7529" x2="15.8338" y2="39.1223" gradientUnits="userSpaceOnUse">
<stop stop-color="#E43D2B"/>
<stop offset="1" stop-color="#FBCB80"/>
</linearGradient>
<linearGradient id="paint6_linear_40_1674" x1="19.0685" y1="26.5474" x2="46.2946" y2="63.2023" gradientUnits="userSpaceOnUse">
<stop stop-color="#E43D2B"/>
<stop offset="1" stop-color="#FBCB80"/>
</linearGradient>
<linearGradient id="paint7_linear_40_1674" x1="46.1662" y1="25.2904" x2="57.1846" y2="31.5797" gradientUnits="userSpaceOnUse">
<stop stop-color="#A767A1"/>
<stop offset="1" stop-color="#EB7E80"/>
</linearGradient>
<linearGradient id="paint8_linear_40_1674" x1="27.0484" y1="30.5057" x2="15.5404" y2="10.7985" gradientUnits="userSpaceOnUse">
<stop stop-color="#F2EDAF"/>
<stop offset="1" stop-color="#61B295"/>
</linearGradient>
<linearGradient id="paint9_linear_40_1674" x1="14.1571" y1="12.8461" x2="28.4342" y2="12.8461" gradientUnits="userSpaceOnUse">
<stop stop-color="#F2EDAF"/>
<stop offset="1" stop-color="#61B295"/>
</linearGradient>
<linearGradient id="paint10_linear_40_1674" x1="20.5433" y1="20.5033" x2="37.7164" y2="20.5033" gradientUnits="userSpaceOnUse">
<stop stop-color="#F2EDAF"/>
<stop offset="1" stop-color="#61B295"/>
</linearGradient>
<linearGradient id="paint11_linear_40_1674" x1="85.6684" y1="32.5908" x2="96" y2="32.5908" gradientUnits="userSpaceOnUse">
<stop stop-color="#A767A1"/>
<stop offset="1" stop-color="#EB7E80"/>
</linearGradient>
<linearGradient id="paint12_linear_40_1674" x1="62.4778" y1="36.3311" x2="67.7653" y2="36.3311" gradientUnits="userSpaceOnUse">
<stop stop-color="#A767A1"/>
<stop offset="1" stop-color="#EB7E80"/>
</linearGradient>
<linearGradient id="paint13_linear_40_1674" x1="62.4778" y1="31.2767" x2="66.7659" y2="31.2767" gradientUnits="userSpaceOnUse">
<stop stop-color="#A767A1"/>
<stop offset="1" stop-color="#EB7E80"/>
</linearGradient>
<linearGradient id="paint14_linear_40_1674" x1="59.5066" y1="31.3279" x2="62.4777" y2="31.3279" gradientUnits="userSpaceOnUse">
<stop stop-color="#A767A1"/>
<stop offset="1" stop-color="#EB7E80"/>
</linearGradient>
<linearGradient id="paint15_linear_40_1674" x1="62.4778" y1="26.3131" x2="67.7653" y2="26.3131" gradientUnits="userSpaceOnUse">
<stop stop-color="#A767A1"/>
<stop offset="1" stop-color="#EB7E80"/>
</linearGradient>
<linearGradient id="paint16_linear_40_1674" x1="72.9784" y1="29.9184" x2="77.373" y2="29.9184" gradientUnits="userSpaceOnUse">
<stop stop-color="#A767A1"/>
<stop offset="1" stop-color="#EB7E80"/>
</linearGradient>
<linearGradient id="paint17_linear_40_1674" x1="68.3939" y1="35.1701" x2="72.9848" y2="35.1701" gradientUnits="userSpaceOnUse">
<stop stop-color="#A767A1"/>
<stop offset="1" stop-color="#EB7E80"/>
</linearGradient>
<linearGradient id="paint18_linear_40_1674" x1="68.5203" y1="32.6289" x2="77.6384" y2="32.6289" gradientUnits="userSpaceOnUse">
<stop stop-color="#A767A1"/>
<stop offset="1" stop-color="#EB7E80"/>
</linearGradient>
<linearGradient id="paint19_linear_40_1674" x1="78.3213" y1="33.1909" x2="80.7223" y2="33.1909" gradientUnits="userSpaceOnUse">
<stop stop-color="#A767A1"/>
<stop offset="1" stop-color="#EB7E80"/>
</linearGradient>
<linearGradient id="paint20_linear_40_1674" x1="80.7223" y1="31.7722" x2="84.9644" y2="31.7722" gradientUnits="userSpaceOnUse">
<stop stop-color="#A767A1"/>
<stop offset="1" stop-color="#EB7E80"/>
</linearGradient>
<linearGradient id="paint21_linear_40_1674" x1="59.5065" y1="15.5649" x2="68.3939" y2="15.5649" gradientUnits="userSpaceOnUse">
<stop stop-color="#A767A1"/>
<stop offset="1" stop-color="#EB7E80"/>
</linearGradient>
<linearGradient id="paint22_linear_40_1674" x1="69.4048" y1="18.9094" x2="77.819" y2="18.9094" gradientUnits="userSpaceOnUse">
<stop stop-color="#A767A1"/>
<stop offset="1" stop-color="#EB7E80"/>
</linearGradient>
<linearGradient id="paint23_linear_40_1674" x1="69.4048" y1="14.2455" x2="71.5958" y2="14.2455" gradientUnits="userSpaceOnUse">
<stop stop-color="#A767A1"/>
<stop offset="1" stop-color="#EB7E80"/>
</linearGradient>
<linearGradient id="paint24_linear_40_1674" x1="69.4048" y1="15.887" x2="77.819" y2="15.887" gradientUnits="userSpaceOnUse">
<stop stop-color="#A767A1"/>
<stop offset="1" stop-color="#EB7E80"/>
</linearGradient>
<linearGradient id="paint25_linear_40_1674" x1="78.2828" y1="16.5844" x2="80.7349" y2="16.5844" gradientUnits="userSpaceOnUse">
<stop stop-color="#A767A1"/>
<stop offset="1" stop-color="#EB7E80"/>
</linearGradient>
<linearGradient id="paint26_linear_40_1674" x1="78.8792" y1="16.4828" x2="87.5388" y2="16.4828" gradientUnits="userSpaceOnUse">
<stop stop-color="#A767A1"/>
<stop offset="1" stop-color="#EB7E80"/>
</linearGradient>
<linearGradient id="paint27_linear_40_1674" x1="85.6652" y1="16.5813" x2="88.0849" y2="16.5813" gradientUnits="userSpaceOnUse">
<stop stop-color="#A767A1"/>
<stop offset="1" stop-color="#EB7E80"/>
</linearGradient>
</defs>
</svg>
