<svg width="135" height="135" viewBox="0 0 135 135" fill="none" xmlns="http://www.w3.org/2000/svg">
<path d="M13.3394 50.9567C13.2336 50.7077 13.1373 50.4684 13.041 50.2386C11.1931 59.7271 9.81687 71.169 9.98048 84.1331C10.0671 90.8738 10.5677 97.1261 11.2895 102.823C8.82565 99.4815 5.55337 94.3207 3.1665 87.4269C0.0481601 78.4362 0 71.0157 0 66.9752C0 48.6874 7.30492 32.0945 19.1719 19.925C11.3183 29.6913 12.3866 44.5033 13.3394 50.9567Z" fill="#3C3C3B"/>
<path d="M44.484 81.0885C40.153 79.4034 33.772 76.3107 27.4487 70.6617C19.5181 63.5668 15.389 55.7729 13.339 50.9568C12.3958 44.5034 11.3179 29.6818 19.1715 19.9156C19.8933 19.1687 20.6345 18.4506 21.3948 17.7421C22.1937 16.9953 23.0021 16.2676 23.8299 15.5686C22.9155 22.5869 22.2995 34.3446 26.1396 48.0652C30.7498 64.5242 39.46 75.5831 44.484 81.0885Z" fill="#3C3C3B"/>
<path d="M96.8989 96.7336C89.1415 102.526 81.3937 105.092 76.8028 106.289C83.6169 101.808 98.8623 90.3568 106.504 69.7902C109.565 61.5464 110.614 53.9727 110.874 48.0651C110.874 48.0651 117.861 4.17463 67.6309 1.12987C69.8349 0.58411 73.0301 0 76.9088 0C78.5064 0 83.5496 0.105359 90.3445 2.43202C92.9047 3.31289 108.804 8.71307 117.062 19.8102C132.269 40.281 120.652 79.0011 96.8989 96.724V96.7336Z" fill="#3C3C3B"/>
<path d="M110.883 48.0653C106.793 55.9453 101.827 62.638 96.1386 68.2871L96.1097 68.3159C96.1097 68.3159 96.1098 68.2967 96.1194 68.2871C98.5544 62.638 107.746 41.3152 99.5265 23.736C91.4323 6.43445 70.7108 1.78116 67.6406 1.13965C117.871 4.18441 110.883 48.0749 110.883 48.0749V48.0653Z" fill="#3C3C3B"/>
<path d="M79.8646 98.4664C77.2563 100.065 75.2063 100.257 70.6924 103.244C67.3334 105.475 64.8791 107.735 63.3488 109.286C63.3488 109.295 63.3488 109.315 63.3488 109.324C51.7031 108.845 40.4617 105.456 33.5128 102.9C31.5879 101.77 29.1627 101.253 26.6699 100.123C26.6411 100.113 26.6217 100.104 26.5929 100.085C26.5544 100.065 26.5256 100.056 26.4968 100.037C26.4583 100.018 26.439 100.008 26.439 100.008C24.8605 99.2707 23.2724 98.2749 21.771 96.7143C20.2984 95.1727 19.2879 93.4684 19.1531 93.2386C19.1531 93.2386 17.7287 90.7971 16.9684 87.5895C16.0829 83.8458 15.2648 74.8264 15.2937 62.8197C16.1407 64.9932 24.2829 84.8799 44.119 89.3226C46.8909 89.945 54.6196 91.6779 62.8293 88.9204C64.8985 88.2215 66.987 87.2448 69.037 85.8852C69.0466 85.8852 69.0659 85.8661 69.0852 85.8566C69.1044 85.8566 69.1235 85.8374 69.1427 85.8182H69.1524C69.4315 85.6363 69.7107 85.4448 69.9898 85.2438C81.9916 76.6073 82.1358 61.8239 82.1166 60.2058C83.5891 61.6516 89.6141 67.8943 89.9125 77.584C90.1627 85.7704 86.2745 94.5217 79.8646 98.4378V98.4664Z" fill="#3C3C3B"/>
<path d="M91.789 106.404C78.2954 114.131 59.1811 121.494 43.6087 113.681C41.4816 112.618 39.2969 111.201 37.1218 109.296C37.064 107.4 36.506 106.165 36.0921 105.456C35.428 104.307 34.5328 103.522 33.5029 102.909C40.4518 105.466 51.6932 108.855 63.3389 109.334C63.3389 109.334 63.3389 109.334 63.3485 109.334C69.0751 110.1 79.2579 110.665 90.8554 106.729C91.173 106.624 91.481 106.509 91.789 106.404Z" fill="#3C3C3B"/>
<path d="M121.432 110.205C113.03 124.06 97.6693 128.656 88.2373 131.471C78.6321 134.343 70.942 134.544 67.9295 134.544C64.6187 134.544 56.8519 134.305 47.4199 131.413C45.2448 130.743 43.1753 130.111 41.2408 129.46C34.3304 127.143 29.1622 124.653 26.6502 119.77C25.63 117.788 24.9658 115.261 22.2806 112.379C22.2806 112.379 21.4047 111.44 16.1689 107.16C18.7002 105.561 21.3469 104.968 23.8782 104.968C30.9714 104.968 37.1311 109.592 37.1311 109.592C37.1311 109.487 37.1311 109.391 37.1311 109.296C39.3063 111.201 41.5007 112.618 43.618 113.681C59.1905 121.494 78.3048 114.131 91.7984 106.404C109.777 99.941 119.276 86.6321 122.308 81.9692C123.28 83.0225 124.551 84.6501 125.503 86.8523C129.69 96.5994 123.117 107.448 121.432 110.215V110.205Z" fill="#3C3C3B"/>
<path d="M133.598 82.3907C132.597 86.5844 131.23 89.9643 130.104 92.3867C130.018 90.5004 129.613 86.9865 127.486 83.2619C125.918 80.514 124.012 78.6949 122.684 77.6129C118.026 82.2471 113.367 86.8812 108.709 91.5153C115.1 83.2906 118.988 75.7266 121.375 70.2211C122.732 67.0998 124.435 63.1072 125.744 57.6209C127.862 48.7259 127.698 41.0661 127.188 35.9341C129.094 39.5342 130.691 43.3258 131.923 47.2801C134.782 56.424 134.984 66.9371 134.984 67.4062C135.032 71.5042 135.07 76.2725 133.607 82.4003L133.598 82.3907Z" fill="#3C3C3B"/>
<path d="M50.1823 81.8544C52.088 79.7671 63.955 66.4199 61.9724 51.4355C61.674 49.1471 61.0484 44.398 57.6028 39.7064C54.2631 35.1584 50.0765 33.0904 47.5549 31.8839C41.9727 29.2126 36.7658 28.8104 33.5801 28.8391C33.7148 28.7051 34.0324 28.37 34.5329 27.9487C34.5425 27.9296 34.5618 27.9104 34.5811 27.8912C38.0074 26.7423 43.1758 25.6794 49.0853 26.8858C57.0832 28.5231 64.0706 33.8467 68.0551 40.7596C69.7586 43.7182 70.9135 46.9736 71.3659 50.3535C73.4255 65.8167 60.0571 78.5799 50.1823 81.8544Z" fill="#3C3C3B"/>
<path d="M68.0551 40.7596C64.0706 33.8466 57.0832 28.5231 49.0852 26.8858C43.1758 25.6698 38.0074 26.7422 34.5811 27.8912C36.0247 26.1007 40.3942 21.39 45.7935 22.1943C52.4537 23.1709 54.706 24.8561 56.3422 23.7454C57.9687 22.6347 52.1554 22.1081 51.2219 22.9794C51.3181 22.8836 52.0591 22.1368 53.0793 21.5336C54.4364 20.7389 55.8222 20.9974 56.8328 21.1123C58.6326 21.323 59.9704 21.9644 60.7307 22.3666C63.7528 23.956 68.0646 26.2251 69.3446 30.7061C69.5852 33.0041 69.5373 36.518 68.0551 40.7596Z" fill="#3C3C3B"/>
<path d="M92.1165 46.6576C92.1165 46.6576 85.9376 38.5574 77.4488 45.2118C77.4488 45.2118 87.7468 44.9151 88.6131 51.0046C88.3243 50.7173 86.4668 48.946 83.8393 49.2141C81.7027 49.4248 80.3843 50.8609 79.8742 51.445C78.1899 53.3504 78.084 55.4472 77.6894 57.5249C76.9868 61.2208 75.6008 63.7486 73.7625 67.0806C70.4998 73.0074 65.4471 76.4447 62.8388 77.9479C57.8245 80.8395 53.0506 81.6245 50.1729 81.8543C60.0476 78.5798 73.416 65.8071 71.3564 50.3534C70.904 46.9736 69.7492 43.7181 68.0456 40.7596C69.5278 36.5179 69.5856 33.004 69.3354 30.7061C69.3354 30.7061 69.3354 30.7253 69.3354 30.7348C69.3835 30.9072 69.4508 31.1465 69.5182 31.4242C69.9128 29.9305 69.595 28.2262 69.3737 27.1156C68.2765 21.3707 63.4643 17.9335 61.5105 16.6888C63.1371 16.6409 76.8808 16.4397 85.7835 27.4794C92.1261 35.3403 92.1646 44.1299 92.078 46.6672L92.1165 46.6576Z" fill="#3C3C3B"/>
</svg>
