<svg width="260" height="260" viewBox="0 0 260 260" fill="none" xmlns="http://www.w3.org/2000/svg">
<path d="M25.6821 98.4695C25.4708 97.9889 25.289 97.5279 25.1023 97.0816C21.5451 115.414 18.8869 137.533 19.2112 162.584C19.3783 175.62 20.3363 187.704 21.7366 198.695C16.9854 192.246 10.6915 182.26 6.09754 168.93C0.0983436 151.554 0 137.219 0 129.411C0 94.0704 14.0768 62.0008 36.9239 38.4844C21.7858 57.3563 23.8592 85.9929 25.6821 98.4646V98.4695Z" fill="url(#paint0_linear_48_1623)"/>
<path d="M85.6741 156.709C77.3263 153.452 65.0429 147.479 52.8627 136.552C37.5822 122.844 29.6422 107.773 25.6772 98.4743V98.4645C23.8494 85.9927 21.781 57.3562 36.919 38.4842C38.3094 37.0472 39.7392 35.6446 41.1936 34.2763C42.7265 32.8295 44.289 31.4318 45.8907 30.0684C44.1219 43.624 42.9377 66.3459 50.3421 92.8784C59.2205 124.688 76.0046 146.056 85.679 156.704L85.6741 156.709Z" fill="url(#paint1_linear_48_1623)"/>
<path d="M186.633 186.939C171.682 198.136 156.775 203.089 147.931 205.414C161.055 196.748 190.427 174.629 205.142 134.87C211.038 118.931 213.053 104.301 213.554 92.8788C213.554 92.8788 227.016 8.05792 130.263 2.18251C134.503 1.13297 140.669 -0.009746 148.142 6.27048e-05C151.213 0.00987141 160.932 0.210948 174.011 4.70334C178.949 6.40024 209.574 16.8367 225.469 38.2933C254.762 77.8567 232.387 152.682 186.633 186.934V186.939Z" fill="url(#paint2_linear_48_1623)"/>
<path d="M213.558 92.8837C205.682 108.107 196.116 121.04 185.164 131.962L185.105 132.021C185.105 132.021 185.12 131.976 185.13 131.962C189.817 121.054 207.525 79.8431 191.684 45.8559C176.094 12.4229 136.173 3.4283 130.267 2.1875C227.021 8.06782 213.558 92.8837 213.558 92.8837Z" fill="url(#paint3_linear_48_1623)"/>
<path d="M153.822 190.299C148.801 193.379 144.855 193.756 136.154 199.539C129.678 203.845 124.956 208.224 122.003 211.221C121.994 211.245 121.989 211.27 121.989 211.294C99.5593 210.362 77.9111 203.81 64.5272 198.872C60.8275 196.689 56.1401 195.679 51.3496 193.506C51.2906 193.482 51.2464 193.462 51.2071 193.438C51.1334 193.403 51.0745 193.379 51.0204 193.354C50.9467 193.32 50.9123 193.305 50.9123 193.305C47.8759 191.878 44.805 189.955 41.9258 186.939C39.081 183.967 37.1451 180.676 36.8798 180.22C36.8798 180.22 34.1283 175.502 32.674 169.303C30.9739 162.064 29.3919 144.639 29.4411 121.437C31.0821 125.645 46.7557 164.075 84.9668 172.663C90.3027 173.864 105.19 177.204 121.011 171.883C124.991 170.529 129.01 168.641 132.975 166.022C133 166.007 133.034 165.988 133.059 165.973C133.093 165.958 133.132 165.929 133.167 165.904C133.181 165.895 133.191 165.89 133.191 165.89C133.732 165.537 134.267 165.169 134.798 164.781C157.91 148.087 158.185 119.524 158.161 116.4C161.006 119.195 172.606 131.255 173.171 149.99C173.652 165.801 166.165 182.726 153.822 190.299Z" fill="url(#paint4_linear_48_1623)"/>
<path d="M176.792 205.625C150.796 220.559 113.98 234.781 83.9937 219.691C79.9058 217.631 75.6804 214.894 71.4893 211.216C71.3713 207.552 70.3101 205.169 69.5141 203.791C68.2268 201.564 66.517 200.044 64.5271 198.872C77.911 203.81 99.5592 210.358 121.989 211.294C121.998 211.304 122.003 211.304 122.013 211.294C133.034 212.78 152.663 213.874 174.994 206.258C175.598 206.047 176.198 205.836 176.792 205.63V205.625Z" fill="url(#paint5_linear_48_1623)"/>
<path d="M233.885 212.972C217.705 239.755 188.117 248.622 169.943 254.061C151.434 259.603 136.625 260 130.823 260C124.455 260 109.494 259.549 91.3245 253.943C87.1285 252.648 83.1487 251.422 79.4293 250.172C66.119 245.689 56.1645 240.883 51.32 231.442C49.3497 227.602 48.0821 222.732 42.9084 217.165C42.9084 217.165 41.2182 215.341 31.1311 207.087C36.0002 203.997 41.1101 202.855 45.9792 202.855C59.6334 202.855 71.5139 211.79 71.5139 211.79C71.5139 211.589 71.504 211.398 71.4991 211.212C75.6902 214.89 79.9107 217.626 84.0035 219.686C113.99 234.777 150.805 220.549 176.802 205.621C176.812 205.621 176.812 205.611 176.817 205.611C211.456 193.124 229.743 167.391 235.575 158.382C237.452 160.422 239.899 163.556 241.727 167.823C249.795 186.66 237.123 207.622 233.895 212.972H233.885Z" fill="url(#paint6_linear_48_1623)"/>
<path d="M257.307 159.224C255.371 167.322 252.757 173.864 250.576 178.538C250.414 174.904 249.627 168.106 245.53 160.902C242.508 155.595 238.833 152.069 236.273 149.985C227.296 158.945 218.329 167.895 209.353 176.856C221.651 160.966 229.158 146.336 233.752 135.708C236.361 129.671 239.648 121.961 242.164 111.353C246.247 94.1633 245.923 79.3668 244.95 69.4404C248.625 76.4046 251.691 83.7268 254.069 91.358C259.582 109.028 259.96 129.342 259.965 130.25C260.068 138.16 260.127 147.39 257.307 159.224Z" fill="url(#paint7_linear_48_1623)"/>
<path d="M96.6502 158.19C100.32 154.149 123.168 128.367 119.365 99.4066C118.785 94.9829 117.591 85.8117 110.953 76.7338C104.526 67.9403 96.4489 63.9432 91.6043 61.6185C80.8441 56.4543 70.8258 55.6745 64.6841 55.7382C64.9347 55.4783 65.5488 54.8407 66.5167 54.007C66.5413 53.9727 66.5757 53.9334 66.6002 53.8991H66.6101C73.2038 51.6823 83.1681 49.6176 94.5523 51.957C109.956 55.1252 123.408 65.3998 131.083 78.7642C134.365 84.4827 136.596 90.7749 137.46 97.3075C141.43 127.19 115.68 151.859 96.6551 158.19H96.6502Z" fill="url(#paint8_linear_48_1623)"/>
<path d="M131.073 78.7591C123.399 65.3997 109.946 55.1202 94.5426 51.9519C83.1584 49.6077 73.199 51.6724 66.6003 53.894C69.3764 50.4267 77.788 41.3389 88.2043 42.874C101.028 44.7622 105.367 48.0235 108.516 45.8705C111.656 43.7273 100.448 42.7121 98.655 44.3943C98.8319 44.2178 100.271 42.7661 102.237 41.5988C104.846 40.0638 107.519 40.5591 109.474 40.7847C112.948 41.1869 115.513 42.4326 116.977 43.2026C122.799 46.2678 131.103 50.6523 133.559 59.3281C134.031 63.7714 133.923 70.564 131.068 78.7591H131.073Z" fill="url(#paint9_linear_48_1623)"/>
<path d="M177.416 90.1669C177.416 90.1669 165.511 74.522 149.174 87.3813C149.174 87.3813 169.004 86.8124 170.685 98.5681C170.12 98.0139 166.548 94.5956 161.497 95.1007C157.375 95.5127 154.844 98.2935 153.857 99.4068C150.609 103.085 150.407 107.141 149.651 111.162C148.304 118.308 145.622 123.198 142.079 129.637C135.785 141.084 126.067 147.724 121.045 150.633C111.386 156.219 102.198 157.739 96.6455 158.19C115.67 151.859 141.421 127.185 137.451 97.3077C136.586 90.7751 134.355 84.4828 131.073 78.7643C133.928 70.5691 134.036 63.7717 133.564 59.3333C133.574 59.348 133.574 59.3676 133.579 59.3823C133.673 59.7158 133.8 60.1719 133.933 60.7114C134.699 57.8325 134.075 54.5221 133.663 52.3789C131.55 41.2852 122.288 34.6251 118.52 32.222C121.65 32.119 148.118 31.7364 165.28 53.0802C177.495 68.2788 177.573 85.2528 177.411 90.1669H177.416Z" fill="url(#paint10_linear_48_1623)"/>
<defs>
<linearGradient id="paint0_linear_48_1623" x1="-0.00491335" y1="118.592" x2="36.9189" y2="118.592" gradientUnits="userSpaceOnUse">
<stop stop-color="#EB7E80"/>
<stop offset="1" stop-color="#CBDA8F"/>
</linearGradient>
<linearGradient id="paint1_linear_48_1623" x1="31.1064" y1="78.2144" x2="87.1442" y2="102.915" gradientUnits="userSpaceOnUse">
<stop stop-color="#EB7E80"/>
<stop offset="1" stop-color="#CBDA8F"/>
</linearGradient>
<linearGradient id="paint2_linear_48_1623" x1="130.268" y1="102.707" x2="238.661" y2="102.707" gradientUnits="userSpaceOnUse">
<stop stop-color="#A767A1"/>
<stop offset="1" stop-color="#EB7E80"/>
</linearGradient>
<linearGradient id="paint3_linear_48_1623" x1="172.232" y1="132.016" x2="172.232" y2="2.1875" gradientUnits="userSpaceOnUse">
<stop stop-color="#A767A1"/>
<stop offset="1" stop-color="#EB7E80"/>
</linearGradient>
<linearGradient id="paint4_linear_48_1623" x1="160.465" y1="187.15" x2="33.8023" y2="113.894" gradientUnits="userSpaceOnUse">
<stop stop-color="#E43D2B"/>
<stop offset="1" stop-color="#FBCB80"/>
</linearGradient>
<linearGradient id="paint5_linear_48_1623" x1="162.116" y1="230.995" x2="75.0675" y2="180.646" gradientUnits="userSpaceOnUse">
<stop stop-color="#E43D2B"/>
<stop offset="1" stop-color="#FBCB80"/>
</linearGradient>
<linearGradient id="paint6_linear_48_1623" x1="89.7129" y1="123.257" x2="215.627" y2="295.036" gradientUnits="userSpaceOnUse">
<stop stop-color="#E43D2B"/>
<stop offset="1" stop-color="#FBCB80"/>
</linearGradient>
<linearGradient id="paint7_linear_48_1623" x1="217.199" y1="117.42" x2="268.698" y2="147.207" gradientUnits="userSpaceOnUse">
<stop stop-color="#A767A1"/>
<stop offset="1" stop-color="#EB7E80"/>
</linearGradient>
<linearGradient id="paint8_linear_48_1623" x1="127.255" y1="141.633" x2="74.1753" y2="49.5236" gradientUnits="userSpaceOnUse">
<stop stop-color="#F2EDAF"/>
<stop offset="1" stop-color="#61B295"/>
</linearGradient>
<linearGradient id="paint9_linear_48_1623" x1="66.6053" y1="59.642" x2="133.776" y2="59.642" gradientUnits="userSpaceOnUse">
<stop stop-color="#F2EDAF"/>
<stop offset="1" stop-color="#61B295"/>
</linearGradient>
<linearGradient id="paint10_linear_48_1623" x1="96.6504" y1="95.1939" x2="177.446" y2="95.1939" gradientUnits="userSpaceOnUse">
<stop stop-color="#F2EDAF"/>
<stop offset="1" stop-color="#61B295"/>
</linearGradient>
</defs>
</svg>
