<svg width="30" height="30" viewBox="0 0 30 30" fill="none" xmlns="http://www.w3.org/2000/svg">
<path d="M26.25 12.5V5C26.25 3.625 25.125 2.5 23.75 2.5H3.75C2.375 2.5 1.2625 3.625 1.2625 5L1.25 20C1.25 21.375 2.375 22.5 3.75 22.5H17.5V16.25C17.5 14.175 19.175 12.5 21.25 12.5H26.25ZM14.4125 13.3375C14.0125 13.5875 13.4875 13.5875 13.0875 13.3375L4.25 7.8125C4.12466 7.74214 4.0149 7.64708 3.92736 7.53307C3.83982 7.41906 3.77633 7.28847 3.74072 7.14921C3.70511 7.00995 3.69813 6.86492 3.7202 6.72288C3.74226 6.58085 3.79292 6.44477 3.8691 6.32288C3.94528 6.20099 4.04541 6.09582 4.16341 6.01374C4.28141 5.93167 4.41484 5.87439 4.55562 5.84537C4.6964 5.81636 4.8416 5.81621 4.98244 5.84494C5.12328 5.87366 5.25683 5.93067 5.375 6.0125L13.75 11.25L22.125 6.0125C22.2432 5.93067 22.3767 5.87366 22.5176 5.84494C22.6584 5.81621 22.8036 5.81636 22.9444 5.84537C23.0852 5.87439 23.2186 5.93167 23.3366 6.01374C23.4546 6.09582 23.5547 6.20099 23.6309 6.32288C23.7071 6.44477 23.7577 6.58085 23.7798 6.72288C23.8019 6.86492 23.7949 7.00995 23.7593 7.14921C23.7237 7.28847 23.6602 7.41906 23.5726 7.53307C23.4851 7.64708 23.3753 7.74214 23.25 7.8125L14.4125 13.3375Z" fill="#62B497"/>
<path d="M27.5 17.5C26.8125 17.5 26.25 18.0625 26.25 18.75V22.5C26.25 23.875 25.125 25 23.75 25C22.375 25 21.25 23.875 21.25 22.5V16.875C21.25 16.525 21.525 16.25 21.875 16.25C22.225 16.25 22.5 16.525 22.5 16.875V21.25C22.5 21.9375 23.0625 22.5 23.75 22.5C24.4375 22.5 25 21.9375 25 21.25V16.875C25 16.0462 24.6708 15.2513 24.0847 14.6653C23.4987 14.0792 22.7038 13.75 21.875 13.75C21.0462 13.75 20.2513 14.0792 19.6653 14.6653C19.0792 15.2513 18.75 16.0462 18.75 16.875V22.5C18.75 25.2625 20.9875 27.5 23.75 27.5C26.5125 27.5 28.75 25.2625 28.75 22.5V18.75C28.75 18.0625 28.1875 17.5 27.5 17.5Z" fill="#62B497"/>
</svg>
