<svg width="37" height="37" viewBox="0 0 37 37" fill="none" xmlns="http://www.w3.org/2000/svg">
<path d="M28.6499 0.074707H7.37012C3.31012 0.074707 0 3.39482 0 7.44482V28.7247C0 32.7847 3.32012 36.0947 7.37012 36.0947H28.6499C32.7099 36.0947 36.02 32.7747 36.02 28.7247V7.44482C36.02 3.38482 32.6999 0.074707 28.6499 0.074707ZM29.22 22.1948C29.16 22.2848 29.08 22.3848 28.98 22.5048C28.55 23.0248 28.07 23.5048 27.54 23.9448C23.88 27.3248 17.8701 31.3447 17.0701 30.7247C16.3801 30.1847 18.2101 27.5447 16.1001 27.1047C15.9501 27.0847 15.8099 27.0748 15.6599 27.0448C9.46991 26.1648 4.77002 21.8348 4.77002 16.6248C4.77002 10.7748 10.69 6.03479 17.99 6.03479C25.29 6.03479 31.21 10.7748 31.21 16.6248C31.21 18.6648 30.49 20.5748 29.24 22.1948H29.22Z" fill="#62B497"/>
<path d="M10.3003 20.0049H12.9702C13.3502 20.0049 13.6602 19.6949 13.6602 19.3149V19.2549C13.6602 18.8749 13.3502 18.5649 12.9702 18.5649H11.0503V14.1949C11.0503 13.8149 10.7404 13.5049 10.3604 13.5049H10.3003C9.92029 13.5049 9.61035 13.8149 9.61035 14.1949V19.3049C9.61035 19.6849 9.92029 19.9949 10.3003 19.9949V20.0049ZM26.8203 16.7949V16.7349C26.8203 16.3549 26.5104 16.0449 26.1304 16.0449H24.2102V14.9548H26.1304C26.5104 14.9548 26.8203 14.6449 26.8203 14.2649V14.2048C26.8203 13.8248 26.5104 13.5149 26.1304 13.5149H23.4602C23.0802 13.5149 22.7703 13.8248 22.7703 14.2048V19.3149C22.7703 19.6949 23.0802 20.0049 23.4602 20.0049H26.1304C26.5104 20.0049 26.8203 19.6949 26.8203 19.3149V19.2549C26.8203 18.8749 26.5104 18.5649 26.1304 18.5649H24.2102V17.4749H26.1304C26.5104 17.4749 26.8203 17.1649 26.8203 16.7849V16.7949ZM21.6902 19.7949C21.8102 19.6649 21.8904 19.4949 21.8904 19.3149V14.2048C21.8904 13.8248 21.5802 13.5149 21.2002 13.5149H21.1404C20.7604 13.5149 20.4502 13.8248 20.4502 14.2048V17.2048L17.9602 13.8649C17.8402 13.6549 17.6204 13.5149 17.3604 13.5149H17.3003C16.9203 13.5149 16.6104 13.8248 16.6104 14.2048V19.3149C16.6104 19.6949 16.9203 20.0049 17.3003 20.0049H17.3604C17.7404 20.0049 18.0503 19.6949 18.0503 19.3149V16.2549L20.5603 19.6849C20.5603 19.6849 20.5904 19.7349 20.6104 19.7549C20.6804 19.8449 20.7704 19.9148 20.8804 19.9548C20.9604 19.9848 21.0504 20.0049 21.1404 20.0049H21.2002C21.3202 20.0049 21.4303 19.9749 21.5203 19.9249C21.5903 19.8949 21.6502 19.8449 21.6902 19.7949V19.7949ZM14.9001 20.0049H14.9602C15.3402 20.0049 15.6501 19.6949 15.6501 19.3149V14.2048C15.6501 13.8248 15.3402 13.5149 14.9602 13.5149H14.9001C14.5201 13.5149 14.2102 13.8248 14.2102 14.2048V19.3149C14.2102 19.6949 14.5201 20.0049 14.9001 20.0049Z" fill="#62B497"/>
</svg>
