<svg width="38" height="38" viewBox="0 0 38 38" fill="none" xmlns="http://www.w3.org/2000/svg">
<path d="M24.8301 7.71436H12.9302C10.0202 7.71436 7.66016 10.0744 7.66016 12.9844V24.8844C7.66016 27.7944 10.0202 30.1544 12.9302 30.1544H24.8301C27.7401 30.1544 30.1001 27.7944 30.1001 24.8844V12.9844C30.1001 10.0744 27.7401 7.71436 24.8301 7.71436ZM18.8801 26.0645C14.9401 26.0645 11.74 22.8744 11.74 18.9244C11.74 14.9744 14.9301 11.7844 18.8801 11.7844C22.8301 11.7844 26.02 14.9744 26.02 18.9244C26.02 22.8744 22.8301 26.0645 18.8801 26.0645ZM26.25 13.1844C25.33 13.1844 24.5901 12.4444 24.5901 11.5244C24.5901 10.6044 25.33 9.86438 26.25 9.86438C27.17 9.86438 27.9102 10.6044 27.9102 11.5244C27.9102 12.4444 27.17 13.1844 26.25 13.1844Z" fill="#FBF8F3"/>
<path d="M18.8801 14.3047C16.3301 14.3047 14.25 16.3747 14.25 18.9347C14.25 21.4947 16.3201 23.5647 18.8801 23.5647C21.4401 23.5647 23.51 21.4947 23.51 18.9347C23.51 16.3747 21.4401 14.3047 18.8801 14.3047Z" fill="#FBF8F3"/>
<path d="M29.2102 0.144531H8.62012C3.86012 0.144531 0 4.00453 0 8.76453V29.3545C0 34.1145 3.86012 37.9745 8.62012 37.9745H29.2102C33.9702 37.9745 37.8301 34.1145 37.8301 29.3545V8.76453C37.8301 4.00453 33.9702 0.144531 29.2102 0.144531ZM32.6301 24.6746C32.6301 29.0546 29.0802 32.6145 24.6902 32.6145H13.0701C8.69007 32.6145 5.13013 29.0646 5.13013 24.6746V13.0546C5.13013 8.67457 8.68007 5.1145 13.0701 5.1145H24.6902C29.0702 5.1145 32.6301 8.66457 32.6301 13.0546V24.6746Z" fill="#FBF8F3"/>
</svg>
